M48
;DRILL file {KiCad 5.0.0-fee4fd1~65~ubuntu17.10.1} date Fri Sep 20 12:26:59 2019
;FORMAT={-:-/ absolute / inch / decimal}
FMAT,2
INCH,TZ
T1C0.0118
T2C0.0394
T3C0.0472
T4C0.0551
T5C0.0630
T6C0.1260
%
G90
G05
M72
T1
X2.9652Y-4.8402
X3.1994Y-4.7949
X3.2506Y-4.535
X3.2624Y-5.1098
X3.286Y-4.2634
X3.3175Y-5.3776
X3.3254Y-5.1807
X3.3569Y-4.2634
X3.3569Y-5.102
X3.3805Y-4.8461
X3.4376Y-5.1157
X3.4376Y-5.1768
X3.4435Y-4.2634
X3.4789Y-5.3421
X3.4829Y-5.5114
X3.4868Y-4.4996
X3.4868Y-5.598
X3.5065Y-4.2634
X3.5144Y-4.9445
X3.5459Y-4.4071
X3.5537Y-5.1098
X3.6364Y-5.0783
X3.6404Y-5.472
X3.6758Y-5.3854
X3.7427Y-4.9484
X3.7427Y-5.035
X3.7526Y-4.3579
X3.7545Y-5.4012
X3.7939Y-4.9484
X3.7939Y-5.0272
X3.8018Y-5.3815
X3.8372Y-4.535
X3.8569Y-4.7358
X3.8726Y-4.2634
X3.9474Y-4.2634
X3.9789Y-4.9406
X4.0144Y-5.039
X4.0262Y-5.472
X4.038Y-4.2634
X4.038Y-5.2831
X4.0695Y-4.4996
X4.0931Y-5.4327
X4.097Y-4.2634
X4.1128Y-4.9209
X4.1266Y-4.4071
X4.1364Y-5.2831
X4.171Y-5.1831
X4.2146Y-4.6605
X4.2191Y-5.3579
X4.2191Y-5.4209
X4.2545Y-4.8382
X4.2742Y-5.1846
X4.2821Y-4.7201
X4.3136Y-5.3717
X4.3333Y-4.8303
X4.3411Y-4.7201
X4.3431Y-4.3579
X4.3726Y-4.8303
X4.3943Y-5.2831
X4.4081Y-4.6925
X4.412Y-4.8303
X4.4219Y-4.9583
X4.4553Y-5.2319
X4.4593Y-4.8972
X4.4593Y-5.0193
X4.4593Y-5.098
X4.4632Y-4.2634
X4.4711Y-4.5843
X4.4829Y-4.6925
X4.538Y-4.2634
X4.5695Y-4.9287
X4.601Y-5.4248
X4.6049Y-5.0862
X4.6089Y-5.1256
X4.6285Y-4.2634
X4.6364Y-4.6925
X4.6482Y-5.0862
X4.66Y-4.4996
X4.664Y-4.8933
X4.6797Y-4.7201
X4.6876Y-4.2634
X4.7171Y-4.4071
X4.7191Y-4.9051
X4.727Y-5.165
X4.7368Y-5.0026
X4.8057Y-5.1059
X4.8057Y-5.2949
X4.8057Y-5.4839
X4.8254Y-4.7713
X4.9041Y-5.0705
X4.9041Y-5.3303
X4.9081Y-4.972
X4.9081Y-5.4484
X4.9238Y-4.8028
X4.9337Y-4.3579
X5.0321Y-5.0567
X5.0321Y-5.2348
X5.0695Y-5.098
X5.0695Y-5.2949
X5.0734Y-5.4839
X5.2624Y-5.1256
X5.286Y-4.2476
X5.5124Y-4.6177
X5.5124Y-5.165
T2
X3.0636Y-4.6728
X3.1636Y-4.6728
T3
X2.9868Y-5.0026
X2.9868Y-5.3077
T4
X3.1364Y-5.0085
X3.1364Y-5.3018
T5
X3.5656Y-3.8854
X3.7624Y-3.8854
X3.9593Y-3.8854
X4.1561Y-3.8854
X4.353Y-3.8854
X4.5498Y-3.8854
X4.7467Y-3.8854
T6
X5.4356Y-3.9051
X5.4356Y-5.5587
X3.1128Y-5.5587
X3.1128Y-3.9051
T0
M30
