G04 #@! TF.GenerationSoftware,KiCad,Pcbnew,5.0.2-bee76a0~70~ubuntu18.04.1*
G04 #@! TF.CreationDate,2019-12-11T08:43:07+01:00*
G04 #@! TF.ProjectId,lynsyn,6c796e73-796e-42e6-9b69-6361645f7063,rev?*
G04 #@! TF.SameCoordinates,Original*
G04 #@! TF.FileFunction,Soldermask,Top*
G04 #@! TF.FilePolarity,Negative*
%FSLAX46Y46*%
G04 Gerber Fmt 4.6, Leading zero omitted, Abs format (unit mm)*
G04 Created by KiCad (PCBNEW 5.0.2-bee76a0~70~ubuntu18.04.1) date on. 11. des. 2019 kl. 08.43 +0100*
%MOMM*%
%LPD*%
G01*
G04 APERTURE LIST*
%ADD10C,0.100000*%
G04 APERTURE END LIST*
D10*
G36*
X142448778Y-138156585D02*
X142954652Y-138257209D01*
X143509717Y-138487125D01*
X144009262Y-138820910D01*
X144434090Y-139245738D01*
X144767875Y-139745283D01*
X144997791Y-140300348D01*
X145047954Y-140552537D01*
X145113887Y-140884003D01*
X145115000Y-140889601D01*
X145115000Y-141490399D01*
X144997791Y-142079652D01*
X144767875Y-142634717D01*
X144434090Y-143134262D01*
X144009262Y-143559090D01*
X143509717Y-143892875D01*
X142954652Y-144122791D01*
X142449251Y-144223321D01*
X142365400Y-144240000D01*
X141764600Y-144240000D01*
X141680749Y-144223321D01*
X141175348Y-144122791D01*
X140620283Y-143892875D01*
X140120738Y-143559090D01*
X139695910Y-143134262D01*
X139362125Y-142634717D01*
X139132209Y-142079652D01*
X139015000Y-141490399D01*
X139015000Y-140889601D01*
X139016114Y-140884003D01*
X139082046Y-140552537D01*
X139132209Y-140300348D01*
X139362125Y-139745283D01*
X139695910Y-139245738D01*
X140120738Y-138820910D01*
X140620283Y-138487125D01*
X141175348Y-138257209D01*
X141681222Y-138156585D01*
X141764600Y-138140000D01*
X142365400Y-138140000D01*
X142448778Y-138156585D01*
X142448778Y-138156585D01*
G37*
G36*
X79448778Y-138156585D02*
X79954652Y-138257209D01*
X80509717Y-138487125D01*
X81009262Y-138820910D01*
X81434090Y-139245738D01*
X81767875Y-139745283D01*
X81997791Y-140300348D01*
X82047954Y-140552537D01*
X82113887Y-140884003D01*
X82115000Y-140889601D01*
X82115000Y-141490399D01*
X81997791Y-142079652D01*
X81767875Y-142634717D01*
X81434090Y-143134262D01*
X81009262Y-143559090D01*
X80509717Y-143892875D01*
X79954652Y-144122791D01*
X79449251Y-144223321D01*
X79365400Y-144240000D01*
X78764600Y-144240000D01*
X78680749Y-144223321D01*
X78175348Y-144122791D01*
X77620283Y-143892875D01*
X77120738Y-143559090D01*
X76695910Y-143134262D01*
X76362125Y-142634717D01*
X76132209Y-142079652D01*
X76015000Y-141490399D01*
X76015000Y-140889601D01*
X76016114Y-140884003D01*
X76082046Y-140552537D01*
X76132209Y-140300348D01*
X76362125Y-139745283D01*
X76695910Y-139245738D01*
X77120738Y-138820910D01*
X77620283Y-138487125D01*
X78175348Y-138257209D01*
X78681222Y-138156585D01*
X78764600Y-138140000D01*
X79365400Y-138140000D01*
X79448778Y-138156585D01*
X79448778Y-138156585D01*
G37*
G36*
X87963497Y-141295997D02*
X88016153Y-141311970D01*
X88064665Y-141337900D01*
X88107196Y-141372804D01*
X88142100Y-141415335D01*
X88168030Y-141463847D01*
X88184003Y-141516503D01*
X88190000Y-141577390D01*
X88190000Y-142802610D01*
X88184003Y-142863497D01*
X88168030Y-142916153D01*
X88142100Y-142964665D01*
X88107196Y-143007196D01*
X88064665Y-143042100D01*
X88016153Y-143068030D01*
X87963497Y-143084003D01*
X87902610Y-143090000D01*
X87102390Y-143090000D01*
X87041503Y-143084003D01*
X86988847Y-143068030D01*
X86940335Y-143042100D01*
X86897804Y-143007196D01*
X86862900Y-142964665D01*
X86836970Y-142916153D01*
X86820997Y-142863497D01*
X86815000Y-142802610D01*
X86815000Y-141577390D01*
X86820997Y-141516503D01*
X86836970Y-141463847D01*
X86862900Y-141415335D01*
X86897804Y-141372804D01*
X86940335Y-141337900D01*
X86988847Y-141311970D01*
X87041503Y-141295997D01*
X87102390Y-141290000D01*
X87902610Y-141290000D01*
X87963497Y-141295997D01*
X87963497Y-141295997D01*
G37*
G36*
X86088497Y-141295997D02*
X86141153Y-141311970D01*
X86189665Y-141337900D01*
X86232196Y-141372804D01*
X86267100Y-141415335D01*
X86293030Y-141463847D01*
X86309003Y-141516503D01*
X86315000Y-141577390D01*
X86315000Y-142802610D01*
X86309003Y-142863497D01*
X86293030Y-142916153D01*
X86267100Y-142964665D01*
X86232196Y-143007196D01*
X86189665Y-143042100D01*
X86141153Y-143068030D01*
X86088497Y-143084003D01*
X86027610Y-143090000D01*
X85227390Y-143090000D01*
X85166503Y-143084003D01*
X85113847Y-143068030D01*
X85065335Y-143042100D01*
X85022804Y-143007196D01*
X84987900Y-142964665D01*
X84961970Y-142916153D01*
X84945997Y-142863497D01*
X84940000Y-142802610D01*
X84940000Y-141577390D01*
X84945997Y-141516503D01*
X84961970Y-141463847D01*
X84987900Y-141415335D01*
X85022804Y-141372804D01*
X85065335Y-141337900D01*
X85113847Y-141311970D01*
X85166503Y-141295997D01*
X85227390Y-141290000D01*
X86027610Y-141290000D01*
X86088497Y-141295997D01*
X86088497Y-141295997D01*
G37*
G36*
X107240770Y-140205372D02*
X107356689Y-140228429D01*
X107538678Y-140303811D01*
X107702463Y-140413249D01*
X107841751Y-140552537D01*
X107951189Y-140716322D01*
X108026571Y-140898311D01*
X108065000Y-141091509D01*
X108065000Y-141288491D01*
X108026571Y-141481689D01*
X107951189Y-141663678D01*
X107841751Y-141827463D01*
X107702463Y-141966751D01*
X107538678Y-142076189D01*
X107356689Y-142151571D01*
X107240770Y-142174628D01*
X107163493Y-142190000D01*
X106966507Y-142190000D01*
X106889230Y-142174628D01*
X106773311Y-142151571D01*
X106591322Y-142076189D01*
X106427537Y-141966751D01*
X106288249Y-141827463D01*
X106178811Y-141663678D01*
X106103429Y-141481689D01*
X106065000Y-141288491D01*
X106065000Y-141091509D01*
X106103429Y-140898311D01*
X106178811Y-140716322D01*
X106288249Y-140552537D01*
X106427537Y-140413249D01*
X106591322Y-140303811D01*
X106773311Y-140228429D01*
X106889230Y-140205372D01*
X106966507Y-140190000D01*
X107163493Y-140190000D01*
X107240770Y-140205372D01*
X107240770Y-140205372D01*
G37*
G36*
X87963497Y-139095997D02*
X88016153Y-139111970D01*
X88064665Y-139137900D01*
X88107196Y-139172804D01*
X88142100Y-139215335D01*
X88168030Y-139263847D01*
X88184003Y-139316503D01*
X88190000Y-139377390D01*
X88190000Y-140602610D01*
X88184003Y-140663497D01*
X88168030Y-140716153D01*
X88142100Y-140764665D01*
X88107196Y-140807196D01*
X88064665Y-140842100D01*
X88016153Y-140868030D01*
X87963497Y-140884003D01*
X87902610Y-140890000D01*
X87102390Y-140890000D01*
X87041503Y-140884003D01*
X86988847Y-140868030D01*
X86940335Y-140842100D01*
X86897804Y-140807196D01*
X86862900Y-140764665D01*
X86836970Y-140716153D01*
X86820997Y-140663497D01*
X86815000Y-140602610D01*
X86815000Y-139377390D01*
X86820997Y-139316503D01*
X86836970Y-139263847D01*
X86862900Y-139215335D01*
X86897804Y-139172804D01*
X86940335Y-139137900D01*
X86988847Y-139111970D01*
X87041503Y-139095997D01*
X87102390Y-139090000D01*
X87902610Y-139090000D01*
X87963497Y-139095997D01*
X87963497Y-139095997D01*
G37*
G36*
X86088497Y-139095997D02*
X86141153Y-139111970D01*
X86189665Y-139137900D01*
X86232196Y-139172804D01*
X86267100Y-139215335D01*
X86293030Y-139263847D01*
X86309003Y-139316503D01*
X86315000Y-139377390D01*
X86315000Y-140602610D01*
X86309003Y-140663497D01*
X86293030Y-140716153D01*
X86267100Y-140764665D01*
X86232196Y-140807196D01*
X86189665Y-140842100D01*
X86141153Y-140868030D01*
X86088497Y-140884003D01*
X86027610Y-140890000D01*
X85227390Y-140890000D01*
X85166503Y-140884003D01*
X85113847Y-140868030D01*
X85065335Y-140842100D01*
X85022804Y-140807196D01*
X84987900Y-140764665D01*
X84961970Y-140716153D01*
X84945997Y-140663497D01*
X84940000Y-140602610D01*
X84940000Y-139377390D01*
X84945997Y-139316503D01*
X84961970Y-139263847D01*
X84987900Y-139215335D01*
X85022804Y-139172804D01*
X85065335Y-139137900D01*
X85113847Y-139111970D01*
X85166503Y-139095997D01*
X85227390Y-139090000D01*
X86027610Y-139090000D01*
X86088497Y-139095997D01*
X86088497Y-139095997D01*
G37*
G36*
X99475000Y-140440000D02*
X93255000Y-140440000D01*
X93255000Y-137640000D01*
X99475000Y-137640000D01*
X99475000Y-140440000D01*
X99475000Y-140440000D01*
G37*
G36*
X123358622Y-138620517D02*
X123406585Y-138635066D01*
X123450775Y-138658686D01*
X123489518Y-138690482D01*
X123521314Y-138729225D01*
X123544934Y-138773415D01*
X123559483Y-138821378D01*
X123565000Y-138877391D01*
X123565000Y-139702609D01*
X123559483Y-139758622D01*
X123544934Y-139806585D01*
X123521314Y-139850775D01*
X123489518Y-139889518D01*
X123450775Y-139921314D01*
X123406585Y-139944934D01*
X123358622Y-139959483D01*
X123302609Y-139965000D01*
X122552391Y-139965000D01*
X122496378Y-139959483D01*
X122448415Y-139944934D01*
X122404225Y-139921314D01*
X122365482Y-139889518D01*
X122333686Y-139850775D01*
X122310066Y-139806585D01*
X122295517Y-139758622D01*
X122290000Y-139702609D01*
X122290000Y-138877391D01*
X122295517Y-138821378D01*
X122310066Y-138773415D01*
X122333686Y-138729225D01*
X122365482Y-138690482D01*
X122404225Y-138658686D01*
X122448415Y-138635066D01*
X122496378Y-138620517D01*
X122552391Y-138615000D01*
X123302609Y-138615000D01*
X123358622Y-138620517D01*
X123358622Y-138620517D01*
G37*
G36*
X128333622Y-138620517D02*
X128381585Y-138635066D01*
X128425775Y-138658686D01*
X128464518Y-138690482D01*
X128496314Y-138729225D01*
X128519934Y-138773415D01*
X128534483Y-138821378D01*
X128540000Y-138877391D01*
X128540000Y-139702609D01*
X128534483Y-139758622D01*
X128519934Y-139806585D01*
X128496314Y-139850775D01*
X128464518Y-139889518D01*
X128425775Y-139921314D01*
X128381585Y-139944934D01*
X128333622Y-139959483D01*
X128277609Y-139965000D01*
X127527391Y-139965000D01*
X127471378Y-139959483D01*
X127423415Y-139944934D01*
X127379225Y-139921314D01*
X127340482Y-139889518D01*
X127308686Y-139850775D01*
X127285066Y-139806585D01*
X127270517Y-139758622D01*
X127265000Y-139702609D01*
X127265000Y-138877391D01*
X127270517Y-138821378D01*
X127285066Y-138773415D01*
X127308686Y-138729225D01*
X127340482Y-138690482D01*
X127379225Y-138658686D01*
X127423415Y-138635066D01*
X127471378Y-138620517D01*
X127527391Y-138615000D01*
X128277609Y-138615000D01*
X128333622Y-138620517D01*
X128333622Y-138620517D01*
G37*
G36*
X126758622Y-138620517D02*
X126806585Y-138635066D01*
X126850775Y-138658686D01*
X126889518Y-138690482D01*
X126921314Y-138729225D01*
X126944934Y-138773415D01*
X126959483Y-138821378D01*
X126965000Y-138877391D01*
X126965000Y-139702609D01*
X126959483Y-139758622D01*
X126944934Y-139806585D01*
X126921314Y-139850775D01*
X126889518Y-139889518D01*
X126850775Y-139921314D01*
X126806585Y-139944934D01*
X126758622Y-139959483D01*
X126702609Y-139965000D01*
X125952391Y-139965000D01*
X125896378Y-139959483D01*
X125848415Y-139944934D01*
X125804225Y-139921314D01*
X125765482Y-139889518D01*
X125733686Y-139850775D01*
X125710066Y-139806585D01*
X125695517Y-139758622D01*
X125690000Y-139702609D01*
X125690000Y-138877391D01*
X125695517Y-138821378D01*
X125710066Y-138773415D01*
X125733686Y-138729225D01*
X125765482Y-138690482D01*
X125804225Y-138658686D01*
X125848415Y-138635066D01*
X125896378Y-138620517D01*
X125952391Y-138615000D01*
X126702609Y-138615000D01*
X126758622Y-138620517D01*
X126758622Y-138620517D01*
G37*
G36*
X124933622Y-138620517D02*
X124981585Y-138635066D01*
X125025775Y-138658686D01*
X125064518Y-138690482D01*
X125096314Y-138729225D01*
X125119934Y-138773415D01*
X125134483Y-138821378D01*
X125140000Y-138877391D01*
X125140000Y-139702609D01*
X125134483Y-139758622D01*
X125119934Y-139806585D01*
X125096314Y-139850775D01*
X125064518Y-139889518D01*
X125025775Y-139921314D01*
X124981585Y-139944934D01*
X124933622Y-139959483D01*
X124877609Y-139965000D01*
X124127391Y-139965000D01*
X124071378Y-139959483D01*
X124023415Y-139944934D01*
X123979225Y-139921314D01*
X123940482Y-139889518D01*
X123908686Y-139850775D01*
X123885066Y-139806585D01*
X123870517Y-139758622D01*
X123865000Y-139702609D01*
X123865000Y-138877391D01*
X123870517Y-138821378D01*
X123885066Y-138773415D01*
X123908686Y-138729225D01*
X123940482Y-138690482D01*
X123979225Y-138658686D01*
X124023415Y-138635066D01*
X124071378Y-138620517D01*
X124127391Y-138615000D01*
X124877609Y-138615000D01*
X124933622Y-138620517D01*
X124933622Y-138620517D01*
G37*
G36*
X118615000Y-139660000D02*
X115065000Y-139660000D01*
X115065000Y-138260000D01*
X118615000Y-138260000D01*
X118615000Y-139660000D01*
X118615000Y-139660000D01*
G37*
G36*
X113565000Y-139660000D02*
X110015000Y-139660000D01*
X110015000Y-138260000D01*
X113565000Y-138260000D01*
X113565000Y-139660000D01*
X113565000Y-139660000D01*
G37*
G36*
X108583622Y-137045517D02*
X108631585Y-137060066D01*
X108675775Y-137083686D01*
X108714518Y-137115482D01*
X108746314Y-137154225D01*
X108769934Y-137198415D01*
X108784483Y-137246378D01*
X108790000Y-137302391D01*
X108790000Y-138052609D01*
X108784483Y-138108622D01*
X108769934Y-138156585D01*
X108746314Y-138200775D01*
X108714518Y-138239518D01*
X108675775Y-138271314D01*
X108631585Y-138294934D01*
X108583622Y-138309483D01*
X108527609Y-138315000D01*
X107702391Y-138315000D01*
X107646378Y-138309483D01*
X107598415Y-138294934D01*
X107554225Y-138271314D01*
X107515482Y-138239518D01*
X107483686Y-138200775D01*
X107460066Y-138156585D01*
X107445517Y-138108622D01*
X107440000Y-138052609D01*
X107440000Y-137302391D01*
X107445517Y-137246378D01*
X107460066Y-137198415D01*
X107483686Y-137154225D01*
X107515482Y-137115482D01*
X107554225Y-137083686D01*
X107598415Y-137060066D01*
X107646378Y-137045517D01*
X107702391Y-137040000D01*
X108527609Y-137040000D01*
X108583622Y-137045517D01*
X108583622Y-137045517D01*
G37*
G36*
X124015000Y-138215000D02*
X122015000Y-138215000D01*
X122015000Y-135565000D01*
X124015000Y-135565000D01*
X124015000Y-138215000D01*
X124015000Y-138215000D01*
G37*
G36*
X127415000Y-138215000D02*
X125415000Y-138215000D01*
X125415000Y-135565000D01*
X127415000Y-135565000D01*
X127415000Y-138215000D01*
X127415000Y-138215000D01*
G37*
G36*
X104588497Y-136345997D02*
X104641153Y-136361970D01*
X104689665Y-136387900D01*
X104732196Y-136422804D01*
X104767100Y-136465335D01*
X104793030Y-136513847D01*
X104809003Y-136566503D01*
X104815000Y-136627390D01*
X104815000Y-137427610D01*
X104809003Y-137488497D01*
X104793030Y-137541153D01*
X104767100Y-137589665D01*
X104732196Y-137632196D01*
X104689665Y-137667100D01*
X104641153Y-137693030D01*
X104588497Y-137709003D01*
X104527610Y-137715000D01*
X103302390Y-137715000D01*
X103241503Y-137709003D01*
X103188847Y-137693030D01*
X103140335Y-137667100D01*
X103097804Y-137632196D01*
X103062900Y-137589665D01*
X103036970Y-137541153D01*
X103020997Y-137488497D01*
X103015000Y-137427610D01*
X103015000Y-136627390D01*
X103020997Y-136566503D01*
X103036970Y-136513847D01*
X103062900Y-136465335D01*
X103097804Y-136422804D01*
X103140335Y-136387900D01*
X103188847Y-136361970D01*
X103241503Y-136345997D01*
X103302390Y-136340000D01*
X104527610Y-136340000D01*
X104588497Y-136345997D01*
X104588497Y-136345997D01*
G37*
G36*
X113565000Y-137120000D02*
X110015000Y-137120000D01*
X110015000Y-135720000D01*
X113565000Y-135720000D01*
X113565000Y-137120000D01*
X113565000Y-137120000D01*
G37*
G36*
X118615000Y-137120000D02*
X115065000Y-137120000D01*
X115065000Y-135720000D01*
X118615000Y-135720000D01*
X118615000Y-137120000D01*
X118615000Y-137120000D01*
G37*
G36*
X108583622Y-135470517D02*
X108631585Y-135485066D01*
X108675775Y-135508686D01*
X108714518Y-135540482D01*
X108746314Y-135579225D01*
X108769934Y-135623415D01*
X108784483Y-135671378D01*
X108790000Y-135727391D01*
X108790000Y-136477609D01*
X108784483Y-136533622D01*
X108769934Y-136581585D01*
X108746314Y-136625775D01*
X108714518Y-136664518D01*
X108675775Y-136696314D01*
X108631585Y-136719934D01*
X108583622Y-136734483D01*
X108527609Y-136740000D01*
X107702391Y-136740000D01*
X107646378Y-136734483D01*
X107598415Y-136719934D01*
X107554225Y-136696314D01*
X107515482Y-136664518D01*
X107483686Y-136625775D01*
X107460066Y-136581585D01*
X107445517Y-136533622D01*
X107440000Y-136477609D01*
X107440000Y-135727391D01*
X107445517Y-135671378D01*
X107460066Y-135623415D01*
X107483686Y-135579225D01*
X107515482Y-135540482D01*
X107554225Y-135508686D01*
X107598415Y-135485066D01*
X107646378Y-135470517D01*
X107702391Y-135465000D01*
X108527609Y-135465000D01*
X108583622Y-135470517D01*
X108583622Y-135470517D01*
G37*
G36*
X99475000Y-136540000D02*
X93255000Y-136540000D01*
X93255000Y-133740000D01*
X99475000Y-133740000D01*
X99475000Y-136540000D01*
X99475000Y-136540000D01*
G37*
G36*
X84988497Y-134945997D02*
X85041153Y-134961970D01*
X85089665Y-134987900D01*
X85132196Y-135022804D01*
X85167100Y-135065335D01*
X85193030Y-135113847D01*
X85209003Y-135166503D01*
X85215000Y-135227390D01*
X85215000Y-136027610D01*
X85209003Y-136088497D01*
X85193030Y-136141153D01*
X85167100Y-136189665D01*
X85132196Y-136232196D01*
X85089665Y-136267100D01*
X85041153Y-136293030D01*
X84988497Y-136309003D01*
X84927610Y-136315000D01*
X83702390Y-136315000D01*
X83641503Y-136309003D01*
X83588847Y-136293030D01*
X83540335Y-136267100D01*
X83497804Y-136232196D01*
X83462900Y-136189665D01*
X83436970Y-136141153D01*
X83420997Y-136088497D01*
X83415000Y-136027610D01*
X83415000Y-135227390D01*
X83420997Y-135166503D01*
X83436970Y-135113847D01*
X83462900Y-135065335D01*
X83497804Y-135022804D01*
X83540335Y-134987900D01*
X83588847Y-134961970D01*
X83641503Y-134945997D01*
X83702390Y-134940000D01*
X84927610Y-134940000D01*
X84988497Y-134945997D01*
X84988497Y-134945997D01*
G37*
G36*
X76185857Y-133757272D02*
X76386042Y-133840191D01*
X76386045Y-133840193D01*
X76560353Y-133956662D01*
X76566213Y-133960578D01*
X76719422Y-134113787D01*
X76719424Y-134113790D01*
X76719425Y-134113791D01*
X76821230Y-134266153D01*
X76839809Y-134293958D01*
X76922728Y-134494143D01*
X76965000Y-134706658D01*
X76965000Y-134923342D01*
X76922728Y-135135857D01*
X76839809Y-135336042D01*
X76839807Y-135336045D01*
X76724452Y-135508686D01*
X76719422Y-135516213D01*
X76566213Y-135669422D01*
X76566210Y-135669424D01*
X76566209Y-135669425D01*
X76490518Y-135720000D01*
X76386042Y-135789809D01*
X76185857Y-135872728D01*
X75973342Y-135915000D01*
X75756658Y-135915000D01*
X75544143Y-135872728D01*
X75343958Y-135789809D01*
X75239482Y-135720000D01*
X75163791Y-135669425D01*
X75163790Y-135669424D01*
X75163787Y-135669422D01*
X75010578Y-135516213D01*
X75005549Y-135508686D01*
X74890193Y-135336045D01*
X74890191Y-135336042D01*
X74807272Y-135135857D01*
X74765000Y-134923342D01*
X74765000Y-134706658D01*
X74807272Y-134494143D01*
X74890191Y-134293958D01*
X74908770Y-134266153D01*
X75010575Y-134113791D01*
X75010576Y-134113790D01*
X75010578Y-134113787D01*
X75163787Y-133960578D01*
X75169648Y-133956662D01*
X75343955Y-133840193D01*
X75343958Y-133840191D01*
X75544143Y-133757272D01*
X75756658Y-133715000D01*
X75973342Y-133715000D01*
X76185857Y-133757272D01*
X76185857Y-133757272D01*
G37*
G36*
X78824793Y-132837835D02*
X78836344Y-132859446D01*
X78851890Y-132878388D01*
X78870832Y-132893934D01*
X78892443Y-132905485D01*
X78899205Y-132908286D01*
X78899207Y-132908287D01*
X78996170Y-132973076D01*
X78997481Y-132973952D01*
X79081048Y-133057519D01*
X79146713Y-133155793D01*
X79191943Y-133264988D01*
X79215432Y-133383078D01*
X79217402Y-133403074D01*
X79224515Y-133426523D01*
X79236066Y-133448134D01*
X79251612Y-133467076D01*
X79270554Y-133482622D01*
X79292165Y-133494173D01*
X79315614Y-133501286D01*
X79340000Y-133503688D01*
X79364386Y-133501286D01*
X79546809Y-133465000D01*
X79783191Y-133465000D01*
X80015026Y-133511115D01*
X80233412Y-133601573D01*
X80429958Y-133732901D01*
X80597099Y-133900042D01*
X80728427Y-134096588D01*
X80818885Y-134314974D01*
X80865000Y-134546809D01*
X80865000Y-134783191D01*
X80818885Y-135015026D01*
X80728427Y-135233412D01*
X80597099Y-135429958D01*
X80429958Y-135597099D01*
X80233412Y-135728427D01*
X80015026Y-135818885D01*
X79783191Y-135865000D01*
X79546809Y-135865000D01*
X79314974Y-135818885D01*
X79096588Y-135728427D01*
X78900042Y-135597099D01*
X78732901Y-135429958D01*
X78601573Y-135233412D01*
X78511115Y-135015026D01*
X78465000Y-134783191D01*
X78465000Y-134546809D01*
X78511115Y-134314976D01*
X78531338Y-134266153D01*
X78561466Y-134193417D01*
X78568578Y-134169971D01*
X78570980Y-134145584D01*
X78568578Y-134121198D01*
X78561465Y-134097749D01*
X78549914Y-134076138D01*
X78534369Y-134057196D01*
X78515427Y-134041650D01*
X78493816Y-134030099D01*
X78470367Y-134022986D01*
X78439988Y-134016943D01*
X78330793Y-133971713D01*
X78232519Y-133906048D01*
X78148952Y-133822481D01*
X78083287Y-133724207D01*
X78038057Y-133615012D01*
X78015000Y-133499096D01*
X78015000Y-133380904D01*
X78038057Y-133264988D01*
X78083287Y-133155793D01*
X78148952Y-133057519D01*
X78232519Y-132973952D01*
X78330793Y-132908287D01*
X78439988Y-132863057D01*
X78555904Y-132840000D01*
X78674097Y-132840000D01*
X78715615Y-132848258D01*
X78740001Y-132850660D01*
X78764387Y-132848258D01*
X78787836Y-132841145D01*
X78809447Y-132829593D01*
X78819732Y-132821152D01*
X78824793Y-132837835D01*
X78824793Y-132837835D01*
G37*
G36*
X104588497Y-134470997D02*
X104641153Y-134486970D01*
X104689665Y-134512900D01*
X104732196Y-134547804D01*
X104767100Y-134590335D01*
X104793030Y-134638847D01*
X104809003Y-134691503D01*
X104815000Y-134752390D01*
X104815000Y-135552610D01*
X104809003Y-135613497D01*
X104793030Y-135666153D01*
X104767100Y-135714665D01*
X104732196Y-135757196D01*
X104689665Y-135792100D01*
X104641153Y-135818030D01*
X104588497Y-135834003D01*
X104527610Y-135840000D01*
X103302390Y-135840000D01*
X103241503Y-135834003D01*
X103188847Y-135818030D01*
X103140335Y-135792100D01*
X103097804Y-135757196D01*
X103062900Y-135714665D01*
X103036970Y-135666153D01*
X103020997Y-135613497D01*
X103015000Y-135552610D01*
X103015000Y-134752390D01*
X103020997Y-134691503D01*
X103036970Y-134638847D01*
X103062900Y-134590335D01*
X103097804Y-134547804D01*
X103140335Y-134512900D01*
X103188847Y-134486970D01*
X103241503Y-134470997D01*
X103302390Y-134465000D01*
X104527610Y-134465000D01*
X104588497Y-134470997D01*
X104588497Y-134470997D01*
G37*
G36*
X89790000Y-135520000D02*
X86840000Y-135520000D01*
X86840000Y-134060000D01*
X89790000Y-134060000D01*
X89790000Y-135520000D01*
X89790000Y-135520000D01*
G37*
G36*
X123358622Y-133820517D02*
X123406585Y-133835066D01*
X123450775Y-133858686D01*
X123489518Y-133890482D01*
X123521314Y-133929225D01*
X123544934Y-133973415D01*
X123559483Y-134021378D01*
X123565000Y-134077391D01*
X123565000Y-134902609D01*
X123559483Y-134958622D01*
X123544934Y-135006585D01*
X123521314Y-135050775D01*
X123489518Y-135089518D01*
X123450775Y-135121314D01*
X123406585Y-135144934D01*
X123358622Y-135159483D01*
X123302609Y-135165000D01*
X122552391Y-135165000D01*
X122496378Y-135159483D01*
X122448415Y-135144934D01*
X122404225Y-135121314D01*
X122365482Y-135089518D01*
X122333686Y-135050775D01*
X122310066Y-135006585D01*
X122295517Y-134958622D01*
X122290000Y-134902609D01*
X122290000Y-134077391D01*
X122295517Y-134021378D01*
X122310066Y-133973415D01*
X122333686Y-133929225D01*
X122365482Y-133890482D01*
X122404225Y-133858686D01*
X122448415Y-133835066D01*
X122496378Y-133820517D01*
X122552391Y-133815000D01*
X123302609Y-133815000D01*
X123358622Y-133820517D01*
X123358622Y-133820517D01*
G37*
G36*
X124933622Y-133820517D02*
X124981585Y-133835066D01*
X125025775Y-133858686D01*
X125064518Y-133890482D01*
X125096314Y-133929225D01*
X125119934Y-133973415D01*
X125134483Y-134021378D01*
X125140000Y-134077391D01*
X125140000Y-134902609D01*
X125134483Y-134958622D01*
X125119934Y-135006585D01*
X125096314Y-135050775D01*
X125064518Y-135089518D01*
X125025775Y-135121314D01*
X124981585Y-135144934D01*
X124933622Y-135159483D01*
X124877609Y-135165000D01*
X124127391Y-135165000D01*
X124071378Y-135159483D01*
X124023415Y-135144934D01*
X123979225Y-135121314D01*
X123940482Y-135089518D01*
X123908686Y-135050775D01*
X123885066Y-135006585D01*
X123870517Y-134958622D01*
X123865000Y-134902609D01*
X123865000Y-134077391D01*
X123870517Y-134021378D01*
X123885066Y-133973415D01*
X123908686Y-133929225D01*
X123940482Y-133890482D01*
X123979225Y-133858686D01*
X124023415Y-133835066D01*
X124071378Y-133820517D01*
X124127391Y-133815000D01*
X124877609Y-133815000D01*
X124933622Y-133820517D01*
X124933622Y-133820517D01*
G37*
G36*
X126758622Y-133820517D02*
X126806585Y-133835066D01*
X126850775Y-133858686D01*
X126889518Y-133890482D01*
X126921314Y-133929225D01*
X126944934Y-133973415D01*
X126959483Y-134021378D01*
X126965000Y-134077391D01*
X126965000Y-134902609D01*
X126959483Y-134958622D01*
X126944934Y-135006585D01*
X126921314Y-135050775D01*
X126889518Y-135089518D01*
X126850775Y-135121314D01*
X126806585Y-135144934D01*
X126758622Y-135159483D01*
X126702609Y-135165000D01*
X125952391Y-135165000D01*
X125896378Y-135159483D01*
X125848415Y-135144934D01*
X125804225Y-135121314D01*
X125765482Y-135089518D01*
X125733686Y-135050775D01*
X125710066Y-135006585D01*
X125695517Y-134958622D01*
X125690000Y-134902609D01*
X125690000Y-134077391D01*
X125695517Y-134021378D01*
X125710066Y-133973415D01*
X125733686Y-133929225D01*
X125765482Y-133890482D01*
X125804225Y-133858686D01*
X125848415Y-133835066D01*
X125896378Y-133820517D01*
X125952391Y-133815000D01*
X126702609Y-133815000D01*
X126758622Y-133820517D01*
X126758622Y-133820517D01*
G37*
G36*
X128333622Y-133820517D02*
X128381585Y-133835066D01*
X128425775Y-133858686D01*
X128464518Y-133890482D01*
X128496314Y-133929225D01*
X128519934Y-133973415D01*
X128534483Y-134021378D01*
X128540000Y-134077391D01*
X128540000Y-134902609D01*
X128534483Y-134958622D01*
X128519934Y-135006585D01*
X128496314Y-135050775D01*
X128464518Y-135089518D01*
X128425775Y-135121314D01*
X128381585Y-135144934D01*
X128333622Y-135159483D01*
X128277609Y-135165000D01*
X127527391Y-135165000D01*
X127471378Y-135159483D01*
X127423415Y-135144934D01*
X127379225Y-135121314D01*
X127340482Y-135089518D01*
X127308686Y-135050775D01*
X127285066Y-135006585D01*
X127270517Y-134958622D01*
X127265000Y-134902609D01*
X127265000Y-134077391D01*
X127270517Y-134021378D01*
X127285066Y-133973415D01*
X127308686Y-133929225D01*
X127340482Y-133890482D01*
X127379225Y-133858686D01*
X127423415Y-133835066D01*
X127471378Y-133820517D01*
X127527391Y-133815000D01*
X128277609Y-133815000D01*
X128333622Y-133820517D01*
X128333622Y-133820517D01*
G37*
G36*
X84988497Y-133070997D02*
X85041153Y-133086970D01*
X85089665Y-133112900D01*
X85132196Y-133147804D01*
X85167100Y-133190335D01*
X85193030Y-133238847D01*
X85209003Y-133291503D01*
X85215000Y-133352390D01*
X85215000Y-134152610D01*
X85209003Y-134213497D01*
X85193030Y-134266153D01*
X85167100Y-134314665D01*
X85132196Y-134357196D01*
X85089665Y-134392100D01*
X85041153Y-134418030D01*
X84988497Y-134434003D01*
X84927610Y-134440000D01*
X83702390Y-134440000D01*
X83641503Y-134434003D01*
X83588847Y-134418030D01*
X83540335Y-134392100D01*
X83497804Y-134357196D01*
X83462900Y-134314665D01*
X83436970Y-134266153D01*
X83420997Y-134213497D01*
X83415000Y-134152610D01*
X83415000Y-133352390D01*
X83420997Y-133291503D01*
X83436970Y-133238847D01*
X83462900Y-133190335D01*
X83497804Y-133147804D01*
X83540335Y-133112900D01*
X83588847Y-133086970D01*
X83641503Y-133070997D01*
X83702390Y-133065000D01*
X84927610Y-133065000D01*
X84988497Y-133070997D01*
X84988497Y-133070997D01*
G37*
G36*
X105302749Y-131915629D02*
X105327251Y-131915629D01*
X105333638Y-131915000D01*
X105796362Y-131915000D01*
X105802749Y-131915629D01*
X105827251Y-131915629D01*
X105833638Y-131915000D01*
X106296362Y-131915000D01*
X106302749Y-131915629D01*
X106327251Y-131915629D01*
X106333638Y-131915000D01*
X106796362Y-131915000D01*
X106802749Y-131915629D01*
X106827251Y-131915629D01*
X106833638Y-131915000D01*
X107296362Y-131915000D01*
X107302749Y-131915629D01*
X107327251Y-131915629D01*
X107333638Y-131915000D01*
X107796362Y-131915000D01*
X107802749Y-131915629D01*
X107827251Y-131915629D01*
X107833638Y-131915000D01*
X108296362Y-131915000D01*
X108302749Y-131915629D01*
X108327251Y-131915629D01*
X108333638Y-131915000D01*
X108796362Y-131915000D01*
X108802749Y-131915629D01*
X108827251Y-131915629D01*
X108833638Y-131915000D01*
X109296362Y-131915000D01*
X109302749Y-131915629D01*
X109327251Y-131915629D01*
X109333638Y-131915000D01*
X109796362Y-131915000D01*
X109802749Y-131915629D01*
X109827251Y-131915629D01*
X109833638Y-131915000D01*
X110296362Y-131915000D01*
X110302749Y-131915629D01*
X110327251Y-131915629D01*
X110333638Y-131915000D01*
X110796362Y-131915000D01*
X110802749Y-131915629D01*
X110827251Y-131915629D01*
X110833638Y-131915000D01*
X111296362Y-131915000D01*
X111302749Y-131915629D01*
X111327251Y-131915629D01*
X111333638Y-131915000D01*
X111796362Y-131915000D01*
X111802749Y-131915629D01*
X111827251Y-131915629D01*
X111833638Y-131915000D01*
X112296362Y-131915000D01*
X112302749Y-131915629D01*
X112327251Y-131915629D01*
X112333638Y-131915000D01*
X112796362Y-131915000D01*
X112824327Y-131917754D01*
X112845320Y-131924123D01*
X112864664Y-131934462D01*
X112881622Y-131948378D01*
X112895538Y-131965336D01*
X112905877Y-131984680D01*
X112912246Y-132005673D01*
X112915000Y-132033638D01*
X112915000Y-133671362D01*
X112912246Y-133699327D01*
X112905877Y-133720320D01*
X112895538Y-133739664D01*
X112881622Y-133756622D01*
X112864664Y-133770538D01*
X112845320Y-133780877D01*
X112824327Y-133787246D01*
X112796362Y-133790000D01*
X112333638Y-133790000D01*
X112327251Y-133789371D01*
X112302749Y-133789371D01*
X112296362Y-133790000D01*
X111833638Y-133790000D01*
X111827251Y-133789371D01*
X111802749Y-133789371D01*
X111796362Y-133790000D01*
X111333638Y-133790000D01*
X111327251Y-133789371D01*
X111302749Y-133789371D01*
X111296362Y-133790000D01*
X110833638Y-133790000D01*
X110827251Y-133789371D01*
X110802749Y-133789371D01*
X110796362Y-133790000D01*
X110333638Y-133790000D01*
X110327251Y-133789371D01*
X110302749Y-133789371D01*
X110296362Y-133790000D01*
X109833638Y-133790000D01*
X109827251Y-133789371D01*
X109802749Y-133789371D01*
X109796362Y-133790000D01*
X109333638Y-133790000D01*
X109327251Y-133789371D01*
X109302749Y-133789371D01*
X109296362Y-133790000D01*
X108833638Y-133790000D01*
X108827251Y-133789371D01*
X108802749Y-133789371D01*
X108796362Y-133790000D01*
X108333638Y-133790000D01*
X108327251Y-133789371D01*
X108302749Y-133789371D01*
X108296362Y-133790000D01*
X107833638Y-133790000D01*
X107827251Y-133789371D01*
X107802749Y-133789371D01*
X107796362Y-133790000D01*
X107333638Y-133790000D01*
X107327251Y-133789371D01*
X107302749Y-133789371D01*
X107296362Y-133790000D01*
X106833638Y-133790000D01*
X106827251Y-133789371D01*
X106802749Y-133789371D01*
X106796362Y-133790000D01*
X106333638Y-133790000D01*
X106327251Y-133789371D01*
X106302749Y-133789371D01*
X106296362Y-133790000D01*
X105833638Y-133790000D01*
X105827251Y-133789371D01*
X105802749Y-133789371D01*
X105796362Y-133790000D01*
X105333638Y-133790000D01*
X105327251Y-133789371D01*
X105302749Y-133789371D01*
X105296362Y-133790000D01*
X104833638Y-133790000D01*
X104805673Y-133787246D01*
X104784680Y-133780877D01*
X104765336Y-133770538D01*
X104748378Y-133756622D01*
X104734462Y-133739664D01*
X104724123Y-133720320D01*
X104717754Y-133699327D01*
X104715000Y-133671362D01*
X104715000Y-132033638D01*
X104717754Y-132005673D01*
X104724123Y-131984680D01*
X104734462Y-131965336D01*
X104748378Y-131948378D01*
X104765336Y-131934462D01*
X104784680Y-131924123D01*
X104805673Y-131917754D01*
X104833638Y-131915000D01*
X105296362Y-131915000D01*
X105302749Y-131915629D01*
X105302749Y-131915629D01*
G37*
G36*
X127415000Y-133415000D02*
X125415000Y-133415000D01*
X125415000Y-130765000D01*
X127415000Y-130765000D01*
X127415000Y-133415000D01*
X127415000Y-133415000D01*
G37*
G36*
X124015000Y-133415000D02*
X122015000Y-133415000D01*
X122015000Y-130765000D01*
X124015000Y-130765000D01*
X124015000Y-133415000D01*
X124015000Y-133415000D01*
G37*
G36*
X89790000Y-133320000D02*
X86840000Y-133320000D01*
X86840000Y-131860000D01*
X89790000Y-131860000D01*
X89790000Y-133320000D01*
X89790000Y-133320000D01*
G37*
G36*
X78870832Y-129193934D02*
X78892443Y-129205485D01*
X78915892Y-129212598D01*
X78940278Y-129215000D01*
X80565000Y-129215000D01*
X80565000Y-132665000D01*
X78940278Y-132665000D01*
X78915892Y-132667402D01*
X78892443Y-132674515D01*
X78870832Y-132686066D01*
X78865000Y-132690852D01*
X78865000Y-129189148D01*
X78870832Y-129193934D01*
X78870832Y-129193934D01*
G37*
G36*
X99650997Y-124795997D02*
X99703653Y-124811970D01*
X99752165Y-124837900D01*
X99794696Y-124872804D01*
X99829600Y-124915335D01*
X99855530Y-124963847D01*
X99871503Y-125016503D01*
X99877500Y-125077390D01*
X99877500Y-126302610D01*
X99871503Y-126363497D01*
X99855530Y-126416153D01*
X99829600Y-126464665D01*
X99794696Y-126507196D01*
X99752165Y-126542100D01*
X99703652Y-126568031D01*
X99695901Y-126570382D01*
X99673262Y-126579760D01*
X99652887Y-126593373D01*
X99635560Y-126610701D01*
X99621946Y-126631075D01*
X99612569Y-126653714D01*
X99607788Y-126677748D01*
X99607788Y-126702252D01*
X99612568Y-126726285D01*
X99621946Y-126748924D01*
X99635559Y-126769299D01*
X99652887Y-126786626D01*
X99673261Y-126800240D01*
X99695901Y-126809618D01*
X99703652Y-126811969D01*
X99752165Y-126837900D01*
X99794696Y-126872804D01*
X99829600Y-126915335D01*
X99855530Y-126963847D01*
X99871503Y-127016503D01*
X99877500Y-127077390D01*
X99877500Y-128302610D01*
X99871503Y-128363497D01*
X99855530Y-128416153D01*
X99829600Y-128464665D01*
X99794696Y-128507196D01*
X99752168Y-128542097D01*
X99715187Y-128561864D01*
X99694813Y-128575478D01*
X99685773Y-128584518D01*
X99680642Y-128583497D01*
X99656137Y-128583497D01*
X99590110Y-128590000D01*
X98974904Y-128590000D01*
X98950518Y-128592402D01*
X98927069Y-128599515D01*
X98905458Y-128611066D01*
X98886516Y-128626612D01*
X98870970Y-128645554D01*
X98859419Y-128667165D01*
X98852306Y-128690614D01*
X98849904Y-128715000D01*
X98852306Y-128739386D01*
X98859419Y-128762835D01*
X98870970Y-128784446D01*
X98886516Y-128803388D01*
X98905458Y-128818934D01*
X98915980Y-128825240D01*
X98939665Y-128837900D01*
X98982196Y-128872804D01*
X99017100Y-128915335D01*
X99043030Y-128963847D01*
X99059003Y-129016503D01*
X99065000Y-129077390D01*
X99065000Y-130302610D01*
X99059003Y-130363497D01*
X99043030Y-130416153D01*
X99017100Y-130464665D01*
X98982196Y-130507196D01*
X98939665Y-130542100D01*
X98891152Y-130568031D01*
X98883401Y-130570382D01*
X98860762Y-130579760D01*
X98840387Y-130593373D01*
X98823060Y-130610701D01*
X98809446Y-130631075D01*
X98800069Y-130653714D01*
X98795288Y-130677748D01*
X98795288Y-130702252D01*
X98800068Y-130726285D01*
X98809446Y-130748924D01*
X98823059Y-130769299D01*
X98840387Y-130786626D01*
X98860761Y-130800240D01*
X98883401Y-130809618D01*
X98891152Y-130811969D01*
X98939665Y-130837900D01*
X98982196Y-130872804D01*
X99017100Y-130915335D01*
X99043030Y-130963847D01*
X99059003Y-131016503D01*
X99065000Y-131077390D01*
X99065000Y-132302610D01*
X99059003Y-132363497D01*
X99043030Y-132416153D01*
X99017100Y-132464665D01*
X98982196Y-132507196D01*
X98939665Y-132542100D01*
X98891153Y-132568030D01*
X98838497Y-132584003D01*
X98777610Y-132590000D01*
X97977390Y-132590000D01*
X97916503Y-132584003D01*
X97863847Y-132568030D01*
X97815335Y-132542100D01*
X97772804Y-132507196D01*
X97737900Y-132464665D01*
X97711970Y-132416153D01*
X97695997Y-132363497D01*
X97690000Y-132302610D01*
X97690000Y-131077390D01*
X97695997Y-131016503D01*
X97711970Y-130963847D01*
X97737900Y-130915335D01*
X97772804Y-130872804D01*
X97815335Y-130837900D01*
X97863848Y-130811969D01*
X97871599Y-130809618D01*
X97894238Y-130800240D01*
X97914613Y-130786627D01*
X97931940Y-130769299D01*
X97945554Y-130748925D01*
X97954931Y-130726286D01*
X97959712Y-130702252D01*
X97959712Y-130677748D01*
X97954932Y-130653715D01*
X97945554Y-130631076D01*
X97931941Y-130610701D01*
X97914613Y-130593374D01*
X97894239Y-130579760D01*
X97871599Y-130570382D01*
X97863848Y-130568031D01*
X97815335Y-130542100D01*
X97772804Y-130507196D01*
X97737900Y-130464665D01*
X97711970Y-130416153D01*
X97695997Y-130363497D01*
X97690000Y-130302610D01*
X97690000Y-129077390D01*
X97695997Y-129016503D01*
X97711970Y-128963847D01*
X97737900Y-128915335D01*
X97772804Y-128872804D01*
X97815332Y-128837903D01*
X97852313Y-128818136D01*
X97872687Y-128804522D01*
X97881727Y-128795482D01*
X97886858Y-128796503D01*
X97911363Y-128796503D01*
X97977390Y-128790000D01*
X98592596Y-128790000D01*
X98616982Y-128787598D01*
X98640431Y-128780485D01*
X98662042Y-128768934D01*
X98680984Y-128753388D01*
X98696530Y-128734446D01*
X98708081Y-128712835D01*
X98715194Y-128689386D01*
X98717596Y-128665000D01*
X98715194Y-128640614D01*
X98708081Y-128617165D01*
X98696530Y-128595554D01*
X98680984Y-128576612D01*
X98662042Y-128561066D01*
X98651520Y-128554760D01*
X98627835Y-128542100D01*
X98585304Y-128507196D01*
X98550400Y-128464665D01*
X98524470Y-128416153D01*
X98508497Y-128363497D01*
X98502500Y-128302610D01*
X98502500Y-127077390D01*
X98508497Y-127016503D01*
X98524470Y-126963847D01*
X98550400Y-126915335D01*
X98585304Y-126872804D01*
X98627835Y-126837900D01*
X98676348Y-126811969D01*
X98684099Y-126809618D01*
X98706738Y-126800240D01*
X98727113Y-126786627D01*
X98744440Y-126769299D01*
X98758054Y-126748925D01*
X98767431Y-126726286D01*
X98772212Y-126702252D01*
X98772212Y-126677748D01*
X98767432Y-126653715D01*
X98758054Y-126631076D01*
X98744441Y-126610701D01*
X98727113Y-126593374D01*
X98706739Y-126579760D01*
X98684099Y-126570382D01*
X98676348Y-126568031D01*
X98627835Y-126542100D01*
X98585304Y-126507196D01*
X98550400Y-126464665D01*
X98524470Y-126416153D01*
X98508497Y-126363497D01*
X98502500Y-126302610D01*
X98502500Y-125077390D01*
X98508497Y-125016503D01*
X98524470Y-124963847D01*
X98550400Y-124915335D01*
X98585304Y-124872804D01*
X98627835Y-124837900D01*
X98676347Y-124811970D01*
X98729003Y-124795997D01*
X98789890Y-124790000D01*
X99590110Y-124790000D01*
X99650997Y-124795997D01*
X99650997Y-124795997D01*
G37*
G36*
X101533622Y-127345517D02*
X101581585Y-127360066D01*
X101625775Y-127383686D01*
X101664518Y-127415482D01*
X101696314Y-127454225D01*
X101719934Y-127498415D01*
X101734483Y-127546378D01*
X101740000Y-127602391D01*
X101740000Y-128352609D01*
X101734483Y-128408622D01*
X101719934Y-128456585D01*
X101696314Y-128500775D01*
X101664518Y-128539518D01*
X101625775Y-128571314D01*
X101581585Y-128594934D01*
X101533622Y-128609483D01*
X101477609Y-128615000D01*
X100892413Y-128615000D01*
X100868027Y-128617402D01*
X100844578Y-128624515D01*
X100822967Y-128636066D01*
X100804025Y-128651612D01*
X100788479Y-128670554D01*
X100776928Y-128692165D01*
X100769815Y-128715614D01*
X100767413Y-128740000D01*
X100769815Y-128764386D01*
X100776928Y-128787835D01*
X100788479Y-128809446D01*
X100813113Y-128836626D01*
X100857196Y-128872804D01*
X100892100Y-128915335D01*
X100918030Y-128963847D01*
X100934003Y-129016503D01*
X100940000Y-129077390D01*
X100940000Y-130302610D01*
X100934003Y-130363497D01*
X100918030Y-130416153D01*
X100892100Y-130464665D01*
X100857196Y-130507196D01*
X100814665Y-130542100D01*
X100766152Y-130568031D01*
X100758401Y-130570382D01*
X100735762Y-130579760D01*
X100715387Y-130593373D01*
X100698060Y-130610701D01*
X100684446Y-130631075D01*
X100675069Y-130653714D01*
X100670288Y-130677748D01*
X100670288Y-130702252D01*
X100675068Y-130726285D01*
X100684446Y-130748924D01*
X100698059Y-130769299D01*
X100715387Y-130786626D01*
X100735761Y-130800240D01*
X100758401Y-130809618D01*
X100766152Y-130811969D01*
X100814665Y-130837900D01*
X100857196Y-130872804D01*
X100892100Y-130915335D01*
X100918030Y-130963847D01*
X100934003Y-131016503D01*
X100940000Y-131077390D01*
X100940000Y-132302610D01*
X100934003Y-132363497D01*
X100918030Y-132416153D01*
X100892100Y-132464665D01*
X100857196Y-132507196D01*
X100814665Y-132542100D01*
X100766153Y-132568030D01*
X100713497Y-132584003D01*
X100652610Y-132590000D01*
X99852390Y-132590000D01*
X99791503Y-132584003D01*
X99738847Y-132568030D01*
X99690335Y-132542100D01*
X99647804Y-132507196D01*
X99612900Y-132464665D01*
X99586970Y-132416153D01*
X99570997Y-132363497D01*
X99565000Y-132302610D01*
X99565000Y-131077390D01*
X99570997Y-131016503D01*
X99586970Y-130963847D01*
X99612900Y-130915335D01*
X99647804Y-130872804D01*
X99690335Y-130837900D01*
X99738848Y-130811969D01*
X99746599Y-130809618D01*
X99769238Y-130800240D01*
X99789613Y-130786627D01*
X99806940Y-130769299D01*
X99820554Y-130748925D01*
X99829931Y-130726286D01*
X99834712Y-130702252D01*
X99834712Y-130677748D01*
X99829932Y-130653715D01*
X99820554Y-130631076D01*
X99806941Y-130610701D01*
X99789613Y-130593374D01*
X99769239Y-130579760D01*
X99746599Y-130570382D01*
X99738848Y-130568031D01*
X99690335Y-130542100D01*
X99647804Y-130507196D01*
X99612900Y-130464665D01*
X99586970Y-130416153D01*
X99570997Y-130363497D01*
X99565000Y-130302610D01*
X99565000Y-129077390D01*
X99570997Y-129016503D01*
X99586970Y-128963847D01*
X99612900Y-128915335D01*
X99647804Y-128872804D01*
X99690332Y-128837903D01*
X99727313Y-128818136D01*
X99747687Y-128804522D01*
X99756727Y-128795482D01*
X99761858Y-128796503D01*
X99786363Y-128796503D01*
X99852390Y-128790000D01*
X100421343Y-128790000D01*
X100445729Y-128787598D01*
X100469178Y-128780485D01*
X100490789Y-128768934D01*
X100509731Y-128753388D01*
X100525277Y-128734446D01*
X100536828Y-128712835D01*
X100543941Y-128689386D01*
X100546343Y-128665000D01*
X100543941Y-128640614D01*
X100536828Y-128617165D01*
X100525277Y-128595554D01*
X100500643Y-128568374D01*
X100465482Y-128539518D01*
X100433686Y-128500775D01*
X100410066Y-128456585D01*
X100395517Y-128408622D01*
X100390000Y-128352609D01*
X100390000Y-127602391D01*
X100395517Y-127546378D01*
X100410066Y-127498415D01*
X100433686Y-127454225D01*
X100465482Y-127415482D01*
X100504225Y-127383686D01*
X100548415Y-127360066D01*
X100596378Y-127345517D01*
X100652391Y-127340000D01*
X101477609Y-127340000D01*
X101533622Y-127345517D01*
X101533622Y-127345517D01*
G37*
G36*
X143765000Y-132320000D02*
X140215000Y-132320000D01*
X140215000Y-130920000D01*
X143765000Y-130920000D01*
X143765000Y-132320000D01*
X143765000Y-132320000D01*
G37*
G36*
X138715000Y-132320000D02*
X135165000Y-132320000D01*
X135165000Y-130920000D01*
X138715000Y-130920000D01*
X138715000Y-132320000D01*
X138715000Y-132320000D01*
G37*
G36*
X117652199Y-130470968D02*
X117704566Y-130486854D01*
X117752832Y-130512653D01*
X117795132Y-130547368D01*
X117829847Y-130589668D01*
X117855646Y-130637934D01*
X117871532Y-130690301D01*
X117878102Y-130757013D01*
X117882882Y-130781046D01*
X117892260Y-130803685D01*
X117905873Y-130824060D01*
X117923200Y-130841387D01*
X117943575Y-130855001D01*
X117966214Y-130864378D01*
X117990247Y-130869159D01*
X118014752Y-130869159D01*
X118038785Y-130864379D01*
X118061424Y-130855001D01*
X118081799Y-130841388D01*
X118099126Y-130824061D01*
X118112740Y-130803686D01*
X118122117Y-130781047D01*
X118126898Y-130757013D01*
X118133468Y-130690301D01*
X118149354Y-130637934D01*
X118175153Y-130589668D01*
X118209868Y-130547368D01*
X118252168Y-130512653D01*
X118300434Y-130486854D01*
X118352801Y-130470968D01*
X118413400Y-130465000D01*
X119366600Y-130465000D01*
X119427199Y-130470968D01*
X119479566Y-130486854D01*
X119527832Y-130512653D01*
X119570132Y-130547368D01*
X119604847Y-130589668D01*
X119630646Y-130637934D01*
X119646532Y-130690301D01*
X119652500Y-130750900D01*
X119652500Y-131629100D01*
X119646532Y-131689699D01*
X119630646Y-131742066D01*
X119604847Y-131790332D01*
X119570132Y-131832632D01*
X119527832Y-131867347D01*
X119479566Y-131893146D01*
X119427199Y-131909032D01*
X119366600Y-131915000D01*
X118413400Y-131915000D01*
X118352801Y-131909032D01*
X118300434Y-131893146D01*
X118252168Y-131867347D01*
X118209868Y-131832632D01*
X118175153Y-131790332D01*
X118149354Y-131742066D01*
X118133468Y-131689699D01*
X118126898Y-131622987D01*
X118122118Y-131598954D01*
X118112740Y-131576315D01*
X118099127Y-131555940D01*
X118081800Y-131538613D01*
X118061425Y-131524999D01*
X118038786Y-131515622D01*
X118014753Y-131510841D01*
X117990248Y-131510841D01*
X117966215Y-131515621D01*
X117943576Y-131524999D01*
X117923201Y-131538612D01*
X117905874Y-131555939D01*
X117892260Y-131576314D01*
X117882883Y-131598953D01*
X117878102Y-131622987D01*
X117871532Y-131689699D01*
X117855646Y-131742066D01*
X117829847Y-131790332D01*
X117795132Y-131832632D01*
X117752832Y-131867347D01*
X117704566Y-131893146D01*
X117652199Y-131909032D01*
X117591600Y-131915000D01*
X116638400Y-131915000D01*
X116577801Y-131909032D01*
X116525434Y-131893146D01*
X116477168Y-131867347D01*
X116434868Y-131832632D01*
X116400153Y-131790332D01*
X116374354Y-131742066D01*
X116358468Y-131689699D01*
X116352500Y-131629100D01*
X116352500Y-130750900D01*
X116358468Y-130690301D01*
X116374354Y-130637934D01*
X116400153Y-130589668D01*
X116434868Y-130547368D01*
X116477168Y-130512653D01*
X116525434Y-130486854D01*
X116577801Y-130470968D01*
X116638400Y-130465000D01*
X117591600Y-130465000D01*
X117652199Y-130470968D01*
X117652199Y-130470968D01*
G37*
G36*
X103999327Y-123092754D02*
X104020320Y-123099123D01*
X104039664Y-123109462D01*
X104056622Y-123123378D01*
X104070538Y-123140336D01*
X104080877Y-123159680D01*
X104087246Y-123180673D01*
X104090000Y-123208638D01*
X104090000Y-123671362D01*
X104089371Y-123677749D01*
X104089371Y-123702251D01*
X104090000Y-123708638D01*
X104090000Y-124171362D01*
X104089371Y-124177749D01*
X104089371Y-124202251D01*
X104090000Y-124208638D01*
X104090000Y-124671362D01*
X104089371Y-124677749D01*
X104089371Y-124702251D01*
X104090000Y-124708638D01*
X104090000Y-125171362D01*
X104089371Y-125177749D01*
X104089371Y-125202251D01*
X104090000Y-125208638D01*
X104090000Y-125671362D01*
X104089371Y-125677749D01*
X104089371Y-125702251D01*
X104090000Y-125708638D01*
X104090000Y-126171362D01*
X104089371Y-126177749D01*
X104089371Y-126202251D01*
X104090000Y-126208638D01*
X104090000Y-126671362D01*
X104089371Y-126677749D01*
X104089371Y-126702251D01*
X104090000Y-126708638D01*
X104090000Y-127171362D01*
X104089371Y-127177749D01*
X104089371Y-127202251D01*
X104090000Y-127208638D01*
X104090000Y-127671362D01*
X104089371Y-127677749D01*
X104089371Y-127702251D01*
X104090000Y-127708638D01*
X104090000Y-128171362D01*
X104089371Y-128177749D01*
X104089371Y-128202251D01*
X104090000Y-128208638D01*
X104090000Y-128671362D01*
X104089371Y-128677749D01*
X104089371Y-128702251D01*
X104090000Y-128708638D01*
X104090000Y-129171362D01*
X104089371Y-129177749D01*
X104089371Y-129202251D01*
X104090000Y-129208638D01*
X104090000Y-129671362D01*
X104089371Y-129677749D01*
X104089371Y-129702251D01*
X104090000Y-129708638D01*
X104090000Y-130171362D01*
X104089371Y-130177749D01*
X104089371Y-130202251D01*
X104090000Y-130208638D01*
X104090000Y-130671362D01*
X104089371Y-130677749D01*
X104089371Y-130702251D01*
X104090000Y-130708638D01*
X104090000Y-131171362D01*
X104087246Y-131199327D01*
X104080877Y-131220320D01*
X104070538Y-131239664D01*
X104056622Y-131256622D01*
X104039664Y-131270538D01*
X104020320Y-131280877D01*
X103999327Y-131287246D01*
X103971362Y-131290000D01*
X102333638Y-131290000D01*
X102305673Y-131287246D01*
X102284680Y-131280877D01*
X102265336Y-131270538D01*
X102248378Y-131256622D01*
X102234462Y-131239664D01*
X102224123Y-131220320D01*
X102217754Y-131199327D01*
X102215000Y-131171362D01*
X102215000Y-130708638D01*
X102215629Y-130702251D01*
X102215629Y-130677749D01*
X102215000Y-130671362D01*
X102215000Y-130208638D01*
X102215629Y-130202251D01*
X102215629Y-130177749D01*
X102215000Y-130171362D01*
X102215000Y-129708638D01*
X102215629Y-129702251D01*
X102215629Y-129677749D01*
X102215000Y-129671362D01*
X102215000Y-129208638D01*
X102215629Y-129202251D01*
X102215629Y-129177749D01*
X102215000Y-129171362D01*
X102215000Y-128708638D01*
X102215629Y-128702251D01*
X102215629Y-128677749D01*
X102215000Y-128671362D01*
X102215000Y-128208638D01*
X102215629Y-128202251D01*
X102215629Y-128177749D01*
X102215000Y-128171362D01*
X102215000Y-127708638D01*
X102215629Y-127702251D01*
X102215629Y-127677749D01*
X102215000Y-127671362D01*
X102215000Y-127208638D01*
X102215629Y-127202251D01*
X102215629Y-127177749D01*
X102215000Y-127171362D01*
X102215000Y-126708638D01*
X102215629Y-126702251D01*
X102215629Y-126677749D01*
X102215000Y-126671362D01*
X102215000Y-126208638D01*
X102215629Y-126202251D01*
X102215629Y-126177749D01*
X102215000Y-126171362D01*
X102215000Y-125708638D01*
X102215629Y-125702251D01*
X102215629Y-125677749D01*
X102215000Y-125671362D01*
X102215000Y-125208638D01*
X102215629Y-125202251D01*
X102215629Y-125177749D01*
X102215000Y-125171362D01*
X102215000Y-124708638D01*
X102215629Y-124702251D01*
X102215629Y-124677749D01*
X102215000Y-124671362D01*
X102215000Y-124208638D01*
X102215629Y-124202251D01*
X102215629Y-124177749D01*
X102215000Y-124171362D01*
X102215000Y-123708638D01*
X102215629Y-123702251D01*
X102215629Y-123677749D01*
X102215000Y-123671362D01*
X102215000Y-123208638D01*
X102217754Y-123180673D01*
X102224123Y-123159680D01*
X102234462Y-123140336D01*
X102248378Y-123123378D01*
X102265336Y-123109462D01*
X102284680Y-123099123D01*
X102305673Y-123092754D01*
X102333638Y-123090000D01*
X103971362Y-123090000D01*
X103999327Y-123092754D01*
X103999327Y-123092754D01*
G37*
G36*
X115324327Y-123092754D02*
X115345320Y-123099123D01*
X115364664Y-123109462D01*
X115381622Y-123123378D01*
X115395538Y-123140336D01*
X115405877Y-123159680D01*
X115412246Y-123180673D01*
X115415000Y-123208638D01*
X115415000Y-123671362D01*
X115414371Y-123677749D01*
X115414371Y-123702251D01*
X115415000Y-123708638D01*
X115415000Y-124171362D01*
X115414371Y-124177749D01*
X115414371Y-124202251D01*
X115415000Y-124208638D01*
X115415000Y-124671362D01*
X115414371Y-124677749D01*
X115414371Y-124702251D01*
X115415000Y-124708638D01*
X115415000Y-125171362D01*
X115414371Y-125177749D01*
X115414371Y-125202251D01*
X115415000Y-125208638D01*
X115415000Y-125671362D01*
X115414371Y-125677749D01*
X115414371Y-125702251D01*
X115415000Y-125708638D01*
X115415000Y-126171362D01*
X115414371Y-126177749D01*
X115414371Y-126202251D01*
X115415000Y-126208638D01*
X115415000Y-126671362D01*
X115414371Y-126677749D01*
X115414371Y-126702251D01*
X115415000Y-126708638D01*
X115415000Y-127171362D01*
X115414371Y-127177749D01*
X115414371Y-127202251D01*
X115415000Y-127208638D01*
X115415000Y-127671362D01*
X115414371Y-127677749D01*
X115414371Y-127702251D01*
X115415000Y-127708638D01*
X115415000Y-128171362D01*
X115414371Y-128177749D01*
X115414371Y-128202251D01*
X115415000Y-128208638D01*
X115415000Y-128671362D01*
X115414371Y-128677749D01*
X115414371Y-128702251D01*
X115415000Y-128708638D01*
X115415000Y-129171362D01*
X115414371Y-129177749D01*
X115414371Y-129202251D01*
X115415000Y-129208638D01*
X115415000Y-129671362D01*
X115414371Y-129677749D01*
X115414371Y-129702251D01*
X115415000Y-129708638D01*
X115415000Y-130171362D01*
X115414371Y-130177749D01*
X115414371Y-130202251D01*
X115415000Y-130208638D01*
X115415000Y-130671362D01*
X115414371Y-130677749D01*
X115414371Y-130702251D01*
X115415000Y-130708638D01*
X115415000Y-131171362D01*
X115412246Y-131199327D01*
X115405877Y-131220320D01*
X115395538Y-131239664D01*
X115381622Y-131256622D01*
X115364664Y-131270538D01*
X115345320Y-131280877D01*
X115324327Y-131287246D01*
X115296362Y-131290000D01*
X113658638Y-131290000D01*
X113630673Y-131287246D01*
X113609680Y-131280877D01*
X113590336Y-131270538D01*
X113573378Y-131256622D01*
X113559462Y-131239664D01*
X113549123Y-131220320D01*
X113542754Y-131199327D01*
X113540000Y-131171362D01*
X113540000Y-130708638D01*
X113540629Y-130702251D01*
X113540629Y-130677749D01*
X113540000Y-130671362D01*
X113540000Y-130208638D01*
X113540629Y-130202251D01*
X113540629Y-130177749D01*
X113540000Y-130171362D01*
X113540000Y-129708638D01*
X113540629Y-129702251D01*
X113540629Y-129677749D01*
X113540000Y-129671362D01*
X113540000Y-129208638D01*
X113540629Y-129202251D01*
X113540629Y-129177749D01*
X113540000Y-129171362D01*
X113540000Y-128708638D01*
X113540629Y-128702251D01*
X113540629Y-128677749D01*
X113540000Y-128671362D01*
X113540000Y-128208638D01*
X113540629Y-128202251D01*
X113540629Y-128177749D01*
X113540000Y-128171362D01*
X113540000Y-127708638D01*
X113540629Y-127702251D01*
X113540629Y-127677749D01*
X113540000Y-127671362D01*
X113540000Y-127208638D01*
X113540629Y-127202251D01*
X113540629Y-127177749D01*
X113540000Y-127171362D01*
X113540000Y-126708638D01*
X113540629Y-126702251D01*
X113540629Y-126677749D01*
X113540000Y-126671362D01*
X113540000Y-126208638D01*
X113540629Y-126202251D01*
X113540629Y-126177749D01*
X113540000Y-126171362D01*
X113540000Y-125708638D01*
X113540629Y-125702251D01*
X113540629Y-125677749D01*
X113540000Y-125671362D01*
X113540000Y-125208638D01*
X113540629Y-125202251D01*
X113540629Y-125177749D01*
X113540000Y-125171362D01*
X113540000Y-124708638D01*
X113540629Y-124702251D01*
X113540629Y-124677749D01*
X113540000Y-124671362D01*
X113540000Y-124208638D01*
X113540629Y-124202251D01*
X113540629Y-124177749D01*
X113540000Y-124171362D01*
X113540000Y-123708638D01*
X113540629Y-123702251D01*
X113540629Y-123677749D01*
X113540000Y-123671362D01*
X113540000Y-123208638D01*
X113542754Y-123180673D01*
X113549123Y-123159680D01*
X113559462Y-123140336D01*
X113573378Y-123123378D01*
X113590336Y-123109462D01*
X113609680Y-123099123D01*
X113630673Y-123092754D01*
X113658638Y-123090000D01*
X115296362Y-123090000D01*
X115324327Y-123092754D01*
X115324327Y-123092754D01*
G37*
G36*
X126758622Y-129020517D02*
X126806585Y-129035066D01*
X126850775Y-129058686D01*
X126889518Y-129090482D01*
X126921314Y-129129225D01*
X126944934Y-129173415D01*
X126959483Y-129221378D01*
X126965000Y-129277391D01*
X126965000Y-130102609D01*
X126959483Y-130158622D01*
X126944934Y-130206585D01*
X126921314Y-130250775D01*
X126889518Y-130289518D01*
X126850775Y-130321314D01*
X126806585Y-130344934D01*
X126758622Y-130359483D01*
X126702609Y-130365000D01*
X125952391Y-130365000D01*
X125896378Y-130359483D01*
X125848415Y-130344934D01*
X125804225Y-130321314D01*
X125765482Y-130289518D01*
X125733686Y-130250775D01*
X125710066Y-130206585D01*
X125695517Y-130158622D01*
X125690000Y-130102609D01*
X125690000Y-129277391D01*
X125695517Y-129221378D01*
X125710066Y-129173415D01*
X125733686Y-129129225D01*
X125765482Y-129090482D01*
X125804225Y-129058686D01*
X125848415Y-129035066D01*
X125896378Y-129020517D01*
X125952391Y-129015000D01*
X126702609Y-129015000D01*
X126758622Y-129020517D01*
X126758622Y-129020517D01*
G37*
G36*
X128333622Y-129020517D02*
X128381585Y-129035066D01*
X128425775Y-129058686D01*
X128464518Y-129090482D01*
X128496314Y-129129225D01*
X128519934Y-129173415D01*
X128534483Y-129221378D01*
X128540000Y-129277391D01*
X128540000Y-130102609D01*
X128534483Y-130158622D01*
X128519934Y-130206585D01*
X128496314Y-130250775D01*
X128464518Y-130289518D01*
X128425775Y-130321314D01*
X128381585Y-130344934D01*
X128333622Y-130359483D01*
X128277609Y-130365000D01*
X127527391Y-130365000D01*
X127471378Y-130359483D01*
X127423415Y-130344934D01*
X127379225Y-130321314D01*
X127340482Y-130289518D01*
X127308686Y-130250775D01*
X127285066Y-130206585D01*
X127270517Y-130158622D01*
X127265000Y-130102609D01*
X127265000Y-129277391D01*
X127270517Y-129221378D01*
X127285066Y-129173415D01*
X127308686Y-129129225D01*
X127340482Y-129090482D01*
X127379225Y-129058686D01*
X127423415Y-129035066D01*
X127471378Y-129020517D01*
X127527391Y-129015000D01*
X128277609Y-129015000D01*
X128333622Y-129020517D01*
X128333622Y-129020517D01*
G37*
G36*
X123358622Y-129020517D02*
X123406585Y-129035066D01*
X123450775Y-129058686D01*
X123489518Y-129090482D01*
X123521314Y-129129225D01*
X123544934Y-129173415D01*
X123559483Y-129221378D01*
X123565000Y-129277391D01*
X123565000Y-130102609D01*
X123559483Y-130158622D01*
X123544934Y-130206585D01*
X123521314Y-130250775D01*
X123489518Y-130289518D01*
X123450775Y-130321314D01*
X123406585Y-130344934D01*
X123358622Y-130359483D01*
X123302609Y-130365000D01*
X122552391Y-130365000D01*
X122496378Y-130359483D01*
X122448415Y-130344934D01*
X122404225Y-130321314D01*
X122365482Y-130289518D01*
X122333686Y-130250775D01*
X122310066Y-130206585D01*
X122295517Y-130158622D01*
X122290000Y-130102609D01*
X122290000Y-129277391D01*
X122295517Y-129221378D01*
X122310066Y-129173415D01*
X122333686Y-129129225D01*
X122365482Y-129090482D01*
X122404225Y-129058686D01*
X122448415Y-129035066D01*
X122496378Y-129020517D01*
X122552391Y-129015000D01*
X123302609Y-129015000D01*
X123358622Y-129020517D01*
X123358622Y-129020517D01*
G37*
G36*
X124933622Y-129020517D02*
X124981585Y-129035066D01*
X125025775Y-129058686D01*
X125064518Y-129090482D01*
X125096314Y-129129225D01*
X125119934Y-129173415D01*
X125134483Y-129221378D01*
X125140000Y-129277391D01*
X125140000Y-130102609D01*
X125134483Y-130158622D01*
X125119934Y-130206585D01*
X125096314Y-130250775D01*
X125064518Y-130289518D01*
X125025775Y-130321314D01*
X124981585Y-130344934D01*
X124933622Y-130359483D01*
X124877609Y-130365000D01*
X124127391Y-130365000D01*
X124071378Y-130359483D01*
X124023415Y-130344934D01*
X123979225Y-130321314D01*
X123940482Y-130289518D01*
X123908686Y-130250775D01*
X123885066Y-130206585D01*
X123870517Y-130158622D01*
X123865000Y-130102609D01*
X123865000Y-129277391D01*
X123870517Y-129221378D01*
X123885066Y-129173415D01*
X123908686Y-129129225D01*
X123940482Y-129090482D01*
X123979225Y-129058686D01*
X124023415Y-129035066D01*
X124071378Y-129020517D01*
X124127391Y-129015000D01*
X124877609Y-129015000D01*
X124933622Y-129020517D01*
X124933622Y-129020517D01*
G37*
G36*
X143765000Y-129780000D02*
X140215000Y-129780000D01*
X140215000Y-128380000D01*
X143765000Y-128380000D01*
X143765000Y-129780000D01*
X143765000Y-129780000D01*
G37*
G36*
X138715000Y-129780000D02*
X135165000Y-129780000D01*
X135165000Y-128380000D01*
X138715000Y-128380000D01*
X138715000Y-129780000D01*
X138715000Y-129780000D01*
G37*
G36*
X90790000Y-129520000D02*
X89740000Y-129520000D01*
X89740000Y-128060000D01*
X90790000Y-128060000D01*
X90790000Y-129520000D01*
X90790000Y-129520000D01*
G37*
G36*
X88890000Y-129520000D02*
X87840000Y-129520000D01*
X87840000Y-128060000D01*
X88890000Y-128060000D01*
X88890000Y-129520000D01*
X88890000Y-129520000D01*
G37*
G36*
X85988497Y-127945997D02*
X86041153Y-127961970D01*
X86089665Y-127987900D01*
X86132196Y-128022804D01*
X86167100Y-128065335D01*
X86193030Y-128113847D01*
X86209003Y-128166503D01*
X86215000Y-128227390D01*
X86215000Y-129027610D01*
X86209003Y-129088497D01*
X86193030Y-129141153D01*
X86167100Y-129189665D01*
X86132196Y-129232196D01*
X86089665Y-129267100D01*
X86041153Y-129293030D01*
X85988497Y-129309003D01*
X85927610Y-129315000D01*
X84702390Y-129315000D01*
X84641503Y-129309003D01*
X84588847Y-129293030D01*
X84540335Y-129267100D01*
X84497804Y-129232196D01*
X84462900Y-129189665D01*
X84436970Y-129141153D01*
X84420997Y-129088497D01*
X84415000Y-129027610D01*
X84415000Y-128227390D01*
X84420997Y-128166503D01*
X84436970Y-128113847D01*
X84462900Y-128065335D01*
X84497804Y-128022804D01*
X84540335Y-127987900D01*
X84588847Y-127961970D01*
X84641503Y-127945997D01*
X84702390Y-127940000D01*
X85927610Y-127940000D01*
X85988497Y-127945997D01*
X85988497Y-127945997D01*
G37*
G36*
X83488497Y-127945997D02*
X83541153Y-127961970D01*
X83589665Y-127987900D01*
X83632196Y-128022804D01*
X83667100Y-128065335D01*
X83693030Y-128113847D01*
X83709003Y-128166503D01*
X83715000Y-128227390D01*
X83715000Y-129027610D01*
X83709003Y-129088497D01*
X83693030Y-129141153D01*
X83667100Y-129189665D01*
X83632196Y-129232196D01*
X83589665Y-129267100D01*
X83541153Y-129293030D01*
X83488497Y-129309003D01*
X83427610Y-129315000D01*
X82202390Y-129315000D01*
X82141503Y-129309003D01*
X82088847Y-129293030D01*
X82040335Y-129267100D01*
X81997804Y-129232196D01*
X81962900Y-129189665D01*
X81936970Y-129141153D01*
X81920997Y-129088497D01*
X81915000Y-129027610D01*
X81915000Y-128227390D01*
X81920997Y-128166503D01*
X81936970Y-128113847D01*
X81962900Y-128065335D01*
X81997804Y-128022804D01*
X82040335Y-127987900D01*
X82088847Y-127961970D01*
X82141503Y-127945997D01*
X82202390Y-127940000D01*
X83427610Y-127940000D01*
X83488497Y-127945997D01*
X83488497Y-127945997D01*
G37*
G36*
X131575997Y-125495997D02*
X131628653Y-125511970D01*
X131677165Y-125537900D01*
X131719696Y-125572804D01*
X131754600Y-125615335D01*
X131780530Y-125663847D01*
X131796503Y-125716503D01*
X131802500Y-125777390D01*
X131802500Y-127002610D01*
X131796503Y-127063497D01*
X131780530Y-127116153D01*
X131754600Y-127164665D01*
X131719696Y-127207196D01*
X131677165Y-127242100D01*
X131628652Y-127268031D01*
X131620901Y-127270382D01*
X131598262Y-127279760D01*
X131577887Y-127293373D01*
X131560560Y-127310701D01*
X131546946Y-127331075D01*
X131537569Y-127353714D01*
X131532788Y-127377748D01*
X131532788Y-127402252D01*
X131537568Y-127426285D01*
X131546946Y-127448924D01*
X131560559Y-127469299D01*
X131577887Y-127486626D01*
X131598261Y-127500240D01*
X131620901Y-127509618D01*
X131628652Y-127511969D01*
X131677165Y-127537900D01*
X131719696Y-127572804D01*
X131754600Y-127615335D01*
X131780530Y-127663847D01*
X131796503Y-127716503D01*
X131802500Y-127777390D01*
X131802500Y-129002610D01*
X131796503Y-129063497D01*
X131780530Y-129116153D01*
X131754600Y-129164665D01*
X131719696Y-129207196D01*
X131677165Y-129242100D01*
X131628653Y-129268030D01*
X131575997Y-129284003D01*
X131515110Y-129290000D01*
X130714890Y-129290000D01*
X130654003Y-129284003D01*
X130601347Y-129268030D01*
X130552835Y-129242100D01*
X130510304Y-129207196D01*
X130475400Y-129164665D01*
X130449470Y-129116153D01*
X130433497Y-129063497D01*
X130427500Y-129002610D01*
X130427500Y-127777390D01*
X130433497Y-127716503D01*
X130449470Y-127663847D01*
X130475400Y-127615335D01*
X130510304Y-127572804D01*
X130552835Y-127537900D01*
X130601348Y-127511969D01*
X130609099Y-127509618D01*
X130631738Y-127500240D01*
X130652113Y-127486627D01*
X130669440Y-127469299D01*
X130683054Y-127448925D01*
X130692431Y-127426286D01*
X130697212Y-127402252D01*
X130697212Y-127377748D01*
X130692432Y-127353715D01*
X130683054Y-127331076D01*
X130669441Y-127310701D01*
X130652113Y-127293374D01*
X130631739Y-127279760D01*
X130609099Y-127270382D01*
X130601348Y-127268031D01*
X130552835Y-127242100D01*
X130510304Y-127207196D01*
X130475400Y-127164665D01*
X130449470Y-127116153D01*
X130433497Y-127063497D01*
X130427500Y-127002610D01*
X130427500Y-125777390D01*
X130433497Y-125716503D01*
X130449470Y-125663847D01*
X130475400Y-125615335D01*
X130510304Y-125572804D01*
X130552835Y-125537900D01*
X130601347Y-125511970D01*
X130654003Y-125495997D01*
X130714890Y-125490000D01*
X131515110Y-125490000D01*
X131575997Y-125495997D01*
X131575997Y-125495997D01*
G37*
G36*
X133450997Y-125495997D02*
X133503653Y-125511970D01*
X133552165Y-125537900D01*
X133594696Y-125572804D01*
X133629600Y-125615335D01*
X133655530Y-125663847D01*
X133671503Y-125716503D01*
X133677500Y-125777390D01*
X133677500Y-127002610D01*
X133671503Y-127063497D01*
X133655530Y-127116153D01*
X133629600Y-127164665D01*
X133594696Y-127207196D01*
X133552165Y-127242100D01*
X133503652Y-127268031D01*
X133495901Y-127270382D01*
X133473262Y-127279760D01*
X133452887Y-127293373D01*
X133435560Y-127310701D01*
X133421946Y-127331075D01*
X133412569Y-127353714D01*
X133407788Y-127377748D01*
X133407788Y-127402252D01*
X133412568Y-127426285D01*
X133421946Y-127448924D01*
X133435559Y-127469299D01*
X133452887Y-127486626D01*
X133473261Y-127500240D01*
X133495901Y-127509618D01*
X133503652Y-127511969D01*
X133552165Y-127537900D01*
X133594696Y-127572804D01*
X133629600Y-127615335D01*
X133655530Y-127663847D01*
X133671503Y-127716503D01*
X133677500Y-127777390D01*
X133677500Y-129002610D01*
X133671503Y-129063497D01*
X133655530Y-129116153D01*
X133629600Y-129164665D01*
X133594696Y-129207196D01*
X133552165Y-129242100D01*
X133503653Y-129268030D01*
X133450997Y-129284003D01*
X133390110Y-129290000D01*
X132589890Y-129290000D01*
X132529003Y-129284003D01*
X132476347Y-129268030D01*
X132427835Y-129242100D01*
X132385304Y-129207196D01*
X132350400Y-129164665D01*
X132324470Y-129116153D01*
X132308497Y-129063497D01*
X132302500Y-129002610D01*
X132302500Y-127777390D01*
X132308497Y-127716503D01*
X132324470Y-127663847D01*
X132350400Y-127615335D01*
X132385304Y-127572804D01*
X132427835Y-127537900D01*
X132476348Y-127511969D01*
X132484099Y-127509618D01*
X132506738Y-127500240D01*
X132527113Y-127486627D01*
X132544440Y-127469299D01*
X132558054Y-127448925D01*
X132567431Y-127426286D01*
X132572212Y-127402252D01*
X132572212Y-127377748D01*
X132567432Y-127353715D01*
X132558054Y-127331076D01*
X132544441Y-127310701D01*
X132527113Y-127293374D01*
X132506739Y-127279760D01*
X132484099Y-127270382D01*
X132476348Y-127268031D01*
X132427835Y-127242100D01*
X132385304Y-127207196D01*
X132350400Y-127164665D01*
X132324470Y-127116153D01*
X132308497Y-127063497D01*
X132302500Y-127002610D01*
X132302500Y-125777390D01*
X132308497Y-125716503D01*
X132324470Y-125663847D01*
X132350400Y-125615335D01*
X132385304Y-125572804D01*
X132427835Y-125537900D01*
X132476347Y-125511970D01*
X132529003Y-125495997D01*
X132589890Y-125490000D01*
X133390110Y-125490000D01*
X133450997Y-125495997D01*
X133450997Y-125495997D01*
G37*
G36*
X80015026Y-126061115D02*
X80233412Y-126151573D01*
X80429958Y-126282901D01*
X80597099Y-126450042D01*
X80728427Y-126646588D01*
X80818885Y-126864974D01*
X80865000Y-127096809D01*
X80865000Y-127333191D01*
X80818885Y-127565026D01*
X80728427Y-127783412D01*
X80597099Y-127979958D01*
X80429958Y-128147099D01*
X80233412Y-128278427D01*
X80015026Y-128368885D01*
X79783191Y-128415000D01*
X79546809Y-128415000D01*
X79364386Y-128378714D01*
X79340000Y-128376312D01*
X79315614Y-128378714D01*
X79292164Y-128385827D01*
X79270554Y-128397378D01*
X79251612Y-128412924D01*
X79236066Y-128431866D01*
X79224515Y-128453477D01*
X79217402Y-128476926D01*
X79215432Y-128496922D01*
X79215000Y-128499094D01*
X79215000Y-128499095D01*
X79212172Y-128513312D01*
X79191943Y-128615012D01*
X79146713Y-128724207D01*
X79081048Y-128822481D01*
X78997481Y-128906048D01*
X78997478Y-128906050D01*
X78899207Y-128971713D01*
X78899206Y-128971714D01*
X78899205Y-128971714D01*
X78892443Y-128974515D01*
X78870832Y-128986066D01*
X78851890Y-129001612D01*
X78836344Y-129020554D01*
X78824793Y-129042165D01*
X78819732Y-129058848D01*
X78809446Y-129050406D01*
X78787835Y-129038855D01*
X78764386Y-129031742D01*
X78740000Y-129029340D01*
X78715615Y-129031742D01*
X78674097Y-129040000D01*
X78555904Y-129040000D01*
X78439988Y-129016943D01*
X78330793Y-128971713D01*
X78232519Y-128906048D01*
X78148952Y-128822481D01*
X78083287Y-128724207D01*
X78038057Y-128615012D01*
X78015000Y-128499096D01*
X78015000Y-128380904D01*
X78038057Y-128264988D01*
X78083287Y-128155793D01*
X78148952Y-128057519D01*
X78232519Y-127973952D01*
X78330793Y-127908287D01*
X78439988Y-127863057D01*
X78470367Y-127857014D01*
X78493816Y-127849901D01*
X78515427Y-127838349D01*
X78534369Y-127822804D01*
X78549914Y-127803862D01*
X78561465Y-127782251D01*
X78568578Y-127758802D01*
X78570980Y-127734416D01*
X78568578Y-127710029D01*
X78561465Y-127686580D01*
X78555162Y-127671362D01*
X78511116Y-127565027D01*
X78509855Y-127558686D01*
X78465000Y-127333191D01*
X78465000Y-127096809D01*
X78511115Y-126864974D01*
X78601573Y-126646588D01*
X78732901Y-126450042D01*
X78900042Y-126282901D01*
X79096588Y-126151573D01*
X79314974Y-126061115D01*
X79546809Y-126015000D01*
X79783191Y-126015000D01*
X80015026Y-126061115D01*
X80015026Y-126061115D01*
G37*
G36*
X117346122Y-127520517D02*
X117394085Y-127535066D01*
X117438275Y-127558686D01*
X117477018Y-127590482D01*
X117508814Y-127629225D01*
X117532434Y-127673415D01*
X117546983Y-127721378D01*
X117552500Y-127777391D01*
X117552500Y-128602609D01*
X117546983Y-128658622D01*
X117532434Y-128706585D01*
X117508814Y-128750775D01*
X117477018Y-128789518D01*
X117438275Y-128821314D01*
X117394085Y-128844934D01*
X117346122Y-128859483D01*
X117290109Y-128865000D01*
X116539891Y-128865000D01*
X116483878Y-128859483D01*
X116435915Y-128844934D01*
X116391725Y-128821314D01*
X116352982Y-128789518D01*
X116321186Y-128750775D01*
X116297566Y-128706585D01*
X116283017Y-128658622D01*
X116277500Y-128602609D01*
X116277500Y-127777391D01*
X116283017Y-127721378D01*
X116297566Y-127673415D01*
X116321186Y-127629225D01*
X116352982Y-127590482D01*
X116391725Y-127558686D01*
X116435915Y-127535066D01*
X116483878Y-127520517D01*
X116539891Y-127515000D01*
X117290109Y-127515000D01*
X117346122Y-127520517D01*
X117346122Y-127520517D01*
G37*
G36*
X118921122Y-127520517D02*
X118969085Y-127535066D01*
X119013275Y-127558686D01*
X119052018Y-127590482D01*
X119083814Y-127629225D01*
X119107434Y-127673415D01*
X119121983Y-127721378D01*
X119127500Y-127777391D01*
X119127500Y-128602609D01*
X119121983Y-128658622D01*
X119107434Y-128706585D01*
X119083814Y-128750775D01*
X119052018Y-128789518D01*
X119013275Y-128821314D01*
X118969085Y-128844934D01*
X118921122Y-128859483D01*
X118865109Y-128865000D01*
X118114891Y-128865000D01*
X118058878Y-128859483D01*
X118010915Y-128844934D01*
X117966725Y-128821314D01*
X117927982Y-128789518D01*
X117896186Y-128750775D01*
X117872566Y-128706585D01*
X117858017Y-128658622D01*
X117852500Y-128602609D01*
X117852500Y-127777391D01*
X117858017Y-127721378D01*
X117872566Y-127673415D01*
X117896186Y-127629225D01*
X117927982Y-127590482D01*
X117966725Y-127558686D01*
X118010915Y-127535066D01*
X118058878Y-127520517D01*
X118114891Y-127515000D01*
X118865109Y-127515000D01*
X118921122Y-127520517D01*
X118921122Y-127520517D01*
G37*
G36*
X94650997Y-126995997D02*
X94703653Y-127011970D01*
X94752165Y-127037900D01*
X94794696Y-127072804D01*
X94829600Y-127115335D01*
X94855530Y-127163847D01*
X94871503Y-127216503D01*
X94877500Y-127277390D01*
X94877500Y-128502610D01*
X94871503Y-128563497D01*
X94855530Y-128616153D01*
X94829600Y-128664665D01*
X94794696Y-128707196D01*
X94752165Y-128742100D01*
X94703653Y-128768030D01*
X94650997Y-128784003D01*
X94590110Y-128790000D01*
X93789890Y-128790000D01*
X93729003Y-128784003D01*
X93676347Y-128768030D01*
X93627835Y-128742100D01*
X93585304Y-128707196D01*
X93550400Y-128664665D01*
X93524470Y-128616153D01*
X93508497Y-128563497D01*
X93502500Y-128502610D01*
X93502500Y-127277390D01*
X93508497Y-127216503D01*
X93524470Y-127163847D01*
X93550400Y-127115335D01*
X93585304Y-127072804D01*
X93627835Y-127037900D01*
X93676347Y-127011970D01*
X93729003Y-126995997D01*
X93789890Y-126990000D01*
X94590110Y-126990000D01*
X94650997Y-126995997D01*
X94650997Y-126995997D01*
G37*
G36*
X92775997Y-126995997D02*
X92828653Y-127011970D01*
X92877165Y-127037900D01*
X92919696Y-127072804D01*
X92954600Y-127115335D01*
X92980530Y-127163847D01*
X92996503Y-127216503D01*
X93002500Y-127277390D01*
X93002500Y-128502610D01*
X92996503Y-128563497D01*
X92980530Y-128616153D01*
X92954600Y-128664665D01*
X92919696Y-128707196D01*
X92877165Y-128742100D01*
X92828653Y-128768030D01*
X92775997Y-128784003D01*
X92715110Y-128790000D01*
X91914890Y-128790000D01*
X91854003Y-128784003D01*
X91801347Y-128768030D01*
X91752835Y-128742100D01*
X91710304Y-128707196D01*
X91675400Y-128664665D01*
X91649470Y-128616153D01*
X91633497Y-128563497D01*
X91627500Y-128502610D01*
X91627500Y-127277390D01*
X91633497Y-127216503D01*
X91649470Y-127163847D01*
X91675400Y-127115335D01*
X91710304Y-127072804D01*
X91752835Y-127037900D01*
X91801347Y-127011970D01*
X91854003Y-126995997D01*
X91914890Y-126990000D01*
X92715110Y-126990000D01*
X92775997Y-126995997D01*
X92775997Y-126995997D01*
G37*
G36*
X127415000Y-128615000D02*
X125415000Y-128615000D01*
X125415000Y-125965000D01*
X127415000Y-125965000D01*
X127415000Y-128615000D01*
X127415000Y-128615000D01*
G37*
G36*
X124015000Y-128615000D02*
X122015000Y-128615000D01*
X122015000Y-125965000D01*
X124015000Y-125965000D01*
X124015000Y-128615000D01*
X124015000Y-128615000D01*
G37*
G36*
X97775997Y-124795997D02*
X97828653Y-124811970D01*
X97877165Y-124837900D01*
X97919696Y-124872804D01*
X97954600Y-124915335D01*
X97980530Y-124963847D01*
X97996503Y-125016503D01*
X98002500Y-125077390D01*
X98002500Y-126302610D01*
X97996503Y-126363497D01*
X97980530Y-126416153D01*
X97954600Y-126464665D01*
X97919696Y-126507196D01*
X97877165Y-126542100D01*
X97828652Y-126568031D01*
X97820901Y-126570382D01*
X97798262Y-126579760D01*
X97777887Y-126593373D01*
X97760560Y-126610701D01*
X97746946Y-126631075D01*
X97737569Y-126653714D01*
X97732788Y-126677748D01*
X97732788Y-126702252D01*
X97737568Y-126726285D01*
X97746946Y-126748924D01*
X97760559Y-126769299D01*
X97777887Y-126786626D01*
X97798261Y-126800240D01*
X97820901Y-126809618D01*
X97828652Y-126811969D01*
X97877165Y-126837900D01*
X97919696Y-126872804D01*
X97954600Y-126915335D01*
X97980530Y-126963847D01*
X97996503Y-127016503D01*
X98002500Y-127077390D01*
X98002500Y-128302610D01*
X97996503Y-128363497D01*
X97980530Y-128416153D01*
X97954600Y-128464665D01*
X97919696Y-128507196D01*
X97877168Y-128542097D01*
X97840187Y-128561864D01*
X97819813Y-128575478D01*
X97810773Y-128584518D01*
X97805642Y-128583497D01*
X97781137Y-128583497D01*
X97715110Y-128590000D01*
X96914890Y-128590000D01*
X96854003Y-128584003D01*
X96801347Y-128568030D01*
X96752835Y-128542100D01*
X96710304Y-128507196D01*
X96675400Y-128464665D01*
X96649470Y-128416153D01*
X96633497Y-128363497D01*
X96627500Y-128302610D01*
X96627500Y-127077390D01*
X96633497Y-127016503D01*
X96649470Y-126963847D01*
X96675400Y-126915335D01*
X96710304Y-126872804D01*
X96752835Y-126837900D01*
X96801348Y-126811969D01*
X96809099Y-126809618D01*
X96831738Y-126800240D01*
X96852113Y-126786627D01*
X96869440Y-126769299D01*
X96883054Y-126748925D01*
X96892431Y-126726286D01*
X96897212Y-126702252D01*
X96897212Y-126677748D01*
X96892432Y-126653715D01*
X96883054Y-126631076D01*
X96869441Y-126610701D01*
X96852113Y-126593374D01*
X96831739Y-126579760D01*
X96809099Y-126570382D01*
X96801348Y-126568031D01*
X96752835Y-126542100D01*
X96710304Y-126507196D01*
X96675400Y-126464665D01*
X96649470Y-126416153D01*
X96633497Y-126363497D01*
X96627500Y-126302610D01*
X96627500Y-125077390D01*
X96633497Y-125016503D01*
X96649470Y-124963847D01*
X96675400Y-124915335D01*
X96710304Y-124872804D01*
X96752835Y-124837900D01*
X96801347Y-124811970D01*
X96854003Y-124795997D01*
X96914890Y-124790000D01*
X97715110Y-124790000D01*
X97775997Y-124795997D01*
X97775997Y-124795997D01*
G37*
G36*
X76185857Y-126007272D02*
X76386042Y-126090191D01*
X76386045Y-126090193D01*
X76535918Y-126190335D01*
X76566213Y-126210578D01*
X76719422Y-126363787D01*
X76719424Y-126363790D01*
X76719425Y-126363791D01*
X76754412Y-126416153D01*
X76839809Y-126543958D01*
X76922728Y-126744143D01*
X76965000Y-126956658D01*
X76965000Y-127173342D01*
X76922728Y-127385857D01*
X76839809Y-127586042D01*
X76839807Y-127586045D01*
X76737777Y-127738744D01*
X76719422Y-127766213D01*
X76566213Y-127919422D01*
X76566210Y-127919424D01*
X76566209Y-127919425D01*
X76475615Y-127979958D01*
X76386042Y-128039809D01*
X76185857Y-128122728D01*
X75973342Y-128165000D01*
X75756658Y-128165000D01*
X75544143Y-128122728D01*
X75343958Y-128039809D01*
X75254385Y-127979958D01*
X75163791Y-127919425D01*
X75163790Y-127919424D01*
X75163787Y-127919422D01*
X75010578Y-127766213D01*
X74992224Y-127738744D01*
X74890193Y-127586045D01*
X74890191Y-127586042D01*
X74807272Y-127385857D01*
X74765000Y-127173342D01*
X74765000Y-126956658D01*
X74807272Y-126744143D01*
X74890191Y-126543958D01*
X74975588Y-126416153D01*
X75010575Y-126363791D01*
X75010576Y-126363790D01*
X75010578Y-126363787D01*
X75163787Y-126210578D01*
X75194083Y-126190335D01*
X75343955Y-126090193D01*
X75343958Y-126090191D01*
X75544143Y-126007272D01*
X75756658Y-125965000D01*
X75973342Y-125965000D01*
X76185857Y-126007272D01*
X76185857Y-126007272D01*
G37*
G36*
X83488497Y-126070997D02*
X83541153Y-126086970D01*
X83589665Y-126112900D01*
X83632196Y-126147804D01*
X83667100Y-126190335D01*
X83693030Y-126238847D01*
X83709003Y-126291503D01*
X83715000Y-126352390D01*
X83715000Y-127152610D01*
X83709003Y-127213497D01*
X83693030Y-127266153D01*
X83667100Y-127314665D01*
X83632196Y-127357196D01*
X83589665Y-127392100D01*
X83541153Y-127418030D01*
X83488497Y-127434003D01*
X83427610Y-127440000D01*
X82202390Y-127440000D01*
X82141503Y-127434003D01*
X82088847Y-127418030D01*
X82040335Y-127392100D01*
X81997804Y-127357196D01*
X81962900Y-127314665D01*
X81936970Y-127266153D01*
X81920997Y-127213497D01*
X81915000Y-127152610D01*
X81915000Y-126352390D01*
X81920997Y-126291503D01*
X81936970Y-126238847D01*
X81962900Y-126190335D01*
X81997804Y-126147804D01*
X82040335Y-126112900D01*
X82088847Y-126086970D01*
X82141503Y-126070997D01*
X82202390Y-126065000D01*
X83427610Y-126065000D01*
X83488497Y-126070997D01*
X83488497Y-126070997D01*
G37*
G36*
X85988497Y-126070997D02*
X86041153Y-126086970D01*
X86089665Y-126112900D01*
X86132196Y-126147804D01*
X86167100Y-126190335D01*
X86193030Y-126238847D01*
X86209003Y-126291503D01*
X86215000Y-126352390D01*
X86215000Y-127152610D01*
X86209003Y-127213497D01*
X86193030Y-127266153D01*
X86167100Y-127314665D01*
X86132196Y-127357196D01*
X86089665Y-127392100D01*
X86041153Y-127418030D01*
X85988497Y-127434003D01*
X85927610Y-127440000D01*
X84702390Y-127440000D01*
X84641503Y-127434003D01*
X84588847Y-127418030D01*
X84540335Y-127392100D01*
X84497804Y-127357196D01*
X84462900Y-127314665D01*
X84436970Y-127266153D01*
X84420997Y-127213497D01*
X84415000Y-127152610D01*
X84415000Y-126352390D01*
X84420997Y-126291503D01*
X84436970Y-126238847D01*
X84462900Y-126190335D01*
X84497804Y-126147804D01*
X84540335Y-126112900D01*
X84588847Y-126086970D01*
X84641503Y-126070997D01*
X84702390Y-126065000D01*
X85927610Y-126065000D01*
X85988497Y-126070997D01*
X85988497Y-126070997D01*
G37*
G36*
X90790000Y-127320000D02*
X87840000Y-127320000D01*
X87840000Y-125860000D01*
X90790000Y-125860000D01*
X90790000Y-127320000D01*
X90790000Y-127320000D01*
G37*
G36*
X138715000Y-127240000D02*
X135165000Y-127240000D01*
X135165000Y-125840000D01*
X138715000Y-125840000D01*
X138715000Y-127240000D01*
X138715000Y-127240000D01*
G37*
G36*
X143765000Y-127240000D02*
X140215000Y-127240000D01*
X140215000Y-125840000D01*
X143765000Y-125840000D01*
X143765000Y-127240000D01*
X143765000Y-127240000D01*
G37*
G36*
X101533622Y-125770517D02*
X101581585Y-125785066D01*
X101625775Y-125808686D01*
X101664518Y-125840482D01*
X101696314Y-125879225D01*
X101719934Y-125923415D01*
X101734483Y-125971378D01*
X101740000Y-126027391D01*
X101740000Y-126777609D01*
X101734483Y-126833622D01*
X101719934Y-126881585D01*
X101696314Y-126925775D01*
X101664518Y-126964518D01*
X101625775Y-126996314D01*
X101581585Y-127019934D01*
X101533622Y-127034483D01*
X101477609Y-127040000D01*
X100652391Y-127040000D01*
X100596378Y-127034483D01*
X100548415Y-127019934D01*
X100504225Y-126996314D01*
X100465482Y-126964518D01*
X100433686Y-126925775D01*
X100410066Y-126881585D01*
X100395517Y-126833622D01*
X100390000Y-126777609D01*
X100390000Y-126027391D01*
X100395517Y-125971378D01*
X100410066Y-125923415D01*
X100433686Y-125879225D01*
X100465482Y-125840482D01*
X100504225Y-125808686D01*
X100548415Y-125785066D01*
X100596378Y-125770517D01*
X100652391Y-125765000D01*
X101477609Y-125765000D01*
X101533622Y-125770517D01*
X101533622Y-125770517D01*
G37*
G36*
X92775997Y-124795997D02*
X92828653Y-124811970D01*
X92877165Y-124837900D01*
X92919696Y-124872804D01*
X92954600Y-124915335D01*
X92980530Y-124963847D01*
X92996503Y-125016503D01*
X93002500Y-125077390D01*
X93002500Y-126302610D01*
X92996503Y-126363497D01*
X92980530Y-126416153D01*
X92954600Y-126464665D01*
X92919696Y-126507196D01*
X92877165Y-126542100D01*
X92828653Y-126568030D01*
X92775997Y-126584003D01*
X92715110Y-126590000D01*
X91914890Y-126590000D01*
X91854003Y-126584003D01*
X91801347Y-126568030D01*
X91752835Y-126542100D01*
X91710304Y-126507196D01*
X91675400Y-126464665D01*
X91649470Y-126416153D01*
X91633497Y-126363497D01*
X91627500Y-126302610D01*
X91627500Y-125077390D01*
X91633497Y-125016503D01*
X91649470Y-124963847D01*
X91675400Y-124915335D01*
X91710304Y-124872804D01*
X91752835Y-124837900D01*
X91801347Y-124811970D01*
X91854003Y-124795997D01*
X91914890Y-124790000D01*
X92715110Y-124790000D01*
X92775997Y-124795997D01*
X92775997Y-124795997D01*
G37*
G36*
X94650997Y-124795997D02*
X94703653Y-124811970D01*
X94752165Y-124837900D01*
X94794696Y-124872804D01*
X94829600Y-124915335D01*
X94855530Y-124963847D01*
X94871503Y-125016503D01*
X94877500Y-125077390D01*
X94877500Y-126302610D01*
X94871503Y-126363497D01*
X94855530Y-126416153D01*
X94829600Y-126464665D01*
X94794696Y-126507196D01*
X94752165Y-126542100D01*
X94703653Y-126568030D01*
X94650997Y-126584003D01*
X94590110Y-126590000D01*
X93789890Y-126590000D01*
X93729003Y-126584003D01*
X93676347Y-126568030D01*
X93627835Y-126542100D01*
X93585304Y-126507196D01*
X93550400Y-126464665D01*
X93524470Y-126416153D01*
X93508497Y-126363497D01*
X93502500Y-126302610D01*
X93502500Y-125077390D01*
X93508497Y-125016503D01*
X93524470Y-124963847D01*
X93550400Y-124915335D01*
X93585304Y-124872804D01*
X93627835Y-124837900D01*
X93676347Y-124811970D01*
X93729003Y-124795997D01*
X93789890Y-124790000D01*
X94590110Y-124790000D01*
X94650997Y-124795997D01*
X94650997Y-124795997D01*
G37*
G36*
X118921122Y-124520517D02*
X118969085Y-124535066D01*
X119013275Y-124558686D01*
X119052018Y-124590482D01*
X119083814Y-124629225D01*
X119107434Y-124673415D01*
X119121983Y-124721378D01*
X119127500Y-124777391D01*
X119127500Y-125602609D01*
X119121983Y-125658622D01*
X119107434Y-125706585D01*
X119083814Y-125750775D01*
X119052018Y-125789518D01*
X119013275Y-125821314D01*
X118969085Y-125844934D01*
X118921122Y-125859483D01*
X118865109Y-125865000D01*
X118114891Y-125865000D01*
X118058878Y-125859483D01*
X118010915Y-125844934D01*
X117966725Y-125821314D01*
X117927982Y-125789518D01*
X117896186Y-125750775D01*
X117872566Y-125706585D01*
X117858017Y-125658622D01*
X117852500Y-125602609D01*
X117852500Y-124777391D01*
X117858017Y-124721378D01*
X117872566Y-124673415D01*
X117896186Y-124629225D01*
X117927982Y-124590482D01*
X117966725Y-124558686D01*
X118010915Y-124535066D01*
X118058878Y-124520517D01*
X118114891Y-124515000D01*
X118865109Y-124515000D01*
X118921122Y-124520517D01*
X118921122Y-124520517D01*
G37*
G36*
X117346122Y-124520517D02*
X117394085Y-124535066D01*
X117438275Y-124558686D01*
X117477018Y-124590482D01*
X117508814Y-124629225D01*
X117532434Y-124673415D01*
X117546983Y-124721378D01*
X117552500Y-124777391D01*
X117552500Y-125602609D01*
X117546983Y-125658622D01*
X117532434Y-125706585D01*
X117508814Y-125750775D01*
X117477018Y-125789518D01*
X117438275Y-125821314D01*
X117394085Y-125844934D01*
X117346122Y-125859483D01*
X117290109Y-125865000D01*
X116539891Y-125865000D01*
X116483878Y-125859483D01*
X116435915Y-125844934D01*
X116391725Y-125821314D01*
X116352982Y-125789518D01*
X116321186Y-125750775D01*
X116297566Y-125706585D01*
X116283017Y-125658622D01*
X116277500Y-125602609D01*
X116277500Y-124777391D01*
X116283017Y-124721378D01*
X116297566Y-124673415D01*
X116321186Y-124629225D01*
X116352982Y-124590482D01*
X116391725Y-124558686D01*
X116435915Y-124535066D01*
X116483878Y-124520517D01*
X116539891Y-124515000D01*
X117290109Y-124515000D01*
X117346122Y-124520517D01*
X117346122Y-124520517D01*
G37*
G36*
X123365000Y-125490000D02*
X120065000Y-125490000D01*
X120065000Y-123690000D01*
X123365000Y-123690000D01*
X123365000Y-125490000D01*
X123365000Y-125490000D01*
G37*
G36*
X77238497Y-123945997D02*
X77291153Y-123961970D01*
X77339665Y-123987900D01*
X77382196Y-124022804D01*
X77417100Y-124065335D01*
X77443030Y-124113847D01*
X77459003Y-124166503D01*
X77465000Y-124227390D01*
X77465000Y-125027610D01*
X77459003Y-125088497D01*
X77443030Y-125141153D01*
X77417100Y-125189665D01*
X77382196Y-125232196D01*
X77339665Y-125267100D01*
X77291153Y-125293030D01*
X77238497Y-125309003D01*
X77177610Y-125315000D01*
X75952390Y-125315000D01*
X75891503Y-125309003D01*
X75838847Y-125293030D01*
X75790335Y-125267100D01*
X75747804Y-125232196D01*
X75712900Y-125189665D01*
X75686970Y-125141153D01*
X75670997Y-125088497D01*
X75665000Y-125027610D01*
X75665000Y-124227390D01*
X75670997Y-124166503D01*
X75686970Y-124113847D01*
X75712900Y-124065335D01*
X75747804Y-124022804D01*
X75790335Y-123987900D01*
X75838847Y-123961970D01*
X75891503Y-123945997D01*
X75952390Y-123940000D01*
X77177610Y-123940000D01*
X77238497Y-123945997D01*
X77238497Y-123945997D01*
G37*
G36*
X81988497Y-123945997D02*
X82041153Y-123961970D01*
X82089665Y-123987900D01*
X82132196Y-124022804D01*
X82167100Y-124065335D01*
X82193030Y-124113847D01*
X82209003Y-124166503D01*
X82215000Y-124227390D01*
X82215000Y-125027610D01*
X82209003Y-125088497D01*
X82193030Y-125141153D01*
X82167100Y-125189665D01*
X82132196Y-125232196D01*
X82089665Y-125267100D01*
X82041153Y-125293030D01*
X81988497Y-125309003D01*
X81927610Y-125315000D01*
X80702390Y-125315000D01*
X80641503Y-125309003D01*
X80588847Y-125293030D01*
X80540335Y-125267100D01*
X80497804Y-125232196D01*
X80462900Y-125189665D01*
X80436970Y-125141153D01*
X80420997Y-125088497D01*
X80415000Y-125027610D01*
X80415000Y-124227390D01*
X80420997Y-124166503D01*
X80436970Y-124113847D01*
X80462900Y-124065335D01*
X80497804Y-124022804D01*
X80540335Y-123987900D01*
X80588847Y-123961970D01*
X80641503Y-123945997D01*
X80702390Y-123940000D01*
X81927610Y-123940000D01*
X81988497Y-123945997D01*
X81988497Y-123945997D01*
G37*
G36*
X79588497Y-123945997D02*
X79641153Y-123961970D01*
X79689665Y-123987900D01*
X79732196Y-124022804D01*
X79767100Y-124065335D01*
X79793030Y-124113847D01*
X79809003Y-124166503D01*
X79815000Y-124227390D01*
X79815000Y-125027610D01*
X79809003Y-125088497D01*
X79793030Y-125141153D01*
X79767100Y-125189665D01*
X79732196Y-125232196D01*
X79689665Y-125267100D01*
X79641153Y-125293030D01*
X79588497Y-125309003D01*
X79527610Y-125315000D01*
X78302390Y-125315000D01*
X78241503Y-125309003D01*
X78188847Y-125293030D01*
X78140335Y-125267100D01*
X78097804Y-125232196D01*
X78062900Y-125189665D01*
X78036970Y-125141153D01*
X78020997Y-125088497D01*
X78015000Y-125027610D01*
X78015000Y-124227390D01*
X78020997Y-124166503D01*
X78036970Y-124113847D01*
X78062900Y-124065335D01*
X78097804Y-124022804D01*
X78140335Y-123987900D01*
X78188847Y-123961970D01*
X78241503Y-123945997D01*
X78302390Y-123940000D01*
X79527610Y-123940000D01*
X79588497Y-123945997D01*
X79588497Y-123945997D01*
G37*
G36*
X131575997Y-121395997D02*
X131628653Y-121411970D01*
X131677165Y-121437900D01*
X131719696Y-121472804D01*
X131754600Y-121515335D01*
X131780530Y-121563847D01*
X131796503Y-121616503D01*
X131802500Y-121677390D01*
X131802500Y-122902610D01*
X131796503Y-122963497D01*
X131780530Y-123016153D01*
X131754600Y-123064665D01*
X131719696Y-123107196D01*
X131677165Y-123142100D01*
X131628651Y-123168031D01*
X131627152Y-123168486D01*
X131604512Y-123177863D01*
X131584138Y-123191477D01*
X131566810Y-123208804D01*
X131553196Y-123229178D01*
X131543819Y-123251817D01*
X131539038Y-123275851D01*
X131539038Y-123300355D01*
X131543818Y-123324388D01*
X131553195Y-123347028D01*
X131566809Y-123367402D01*
X131584136Y-123384730D01*
X131604510Y-123398344D01*
X131627150Y-123407722D01*
X131641153Y-123411970D01*
X131689665Y-123437900D01*
X131732196Y-123472804D01*
X131767100Y-123515335D01*
X131793030Y-123563847D01*
X131809003Y-123616503D01*
X131815000Y-123677390D01*
X131815000Y-124902610D01*
X131809003Y-124963497D01*
X131793030Y-125016153D01*
X131767100Y-125064665D01*
X131732196Y-125107196D01*
X131689665Y-125142100D01*
X131641153Y-125168030D01*
X131588497Y-125184003D01*
X131527610Y-125190000D01*
X130727390Y-125190000D01*
X130666503Y-125184003D01*
X130613847Y-125168030D01*
X130565335Y-125142100D01*
X130522804Y-125107196D01*
X130487900Y-125064665D01*
X130461970Y-125016153D01*
X130445997Y-124963497D01*
X130440000Y-124902610D01*
X130440000Y-123677390D01*
X130445997Y-123616503D01*
X130461970Y-123563847D01*
X130487900Y-123515335D01*
X130522804Y-123472804D01*
X130565335Y-123437900D01*
X130613849Y-123411969D01*
X130615348Y-123411514D01*
X130637988Y-123402137D01*
X130658362Y-123388523D01*
X130675690Y-123371196D01*
X130689304Y-123350822D01*
X130698681Y-123328183D01*
X130703462Y-123304149D01*
X130703462Y-123279645D01*
X130698682Y-123255612D01*
X130689305Y-123232972D01*
X130675691Y-123212598D01*
X130658364Y-123195270D01*
X130637990Y-123181656D01*
X130615350Y-123172278D01*
X130601347Y-123168030D01*
X130552835Y-123142100D01*
X130510304Y-123107196D01*
X130475400Y-123064665D01*
X130449470Y-123016153D01*
X130433497Y-122963497D01*
X130427500Y-122902610D01*
X130427500Y-121677390D01*
X130433497Y-121616503D01*
X130449470Y-121563847D01*
X130475400Y-121515335D01*
X130510304Y-121472804D01*
X130552835Y-121437900D01*
X130601347Y-121411970D01*
X130654003Y-121395997D01*
X130714890Y-121390000D01*
X131515110Y-121390000D01*
X131575997Y-121395997D01*
X131575997Y-121395997D01*
G37*
G36*
X133450997Y-121395997D02*
X133503653Y-121411970D01*
X133552165Y-121437900D01*
X133594696Y-121472804D01*
X133629600Y-121515335D01*
X133655530Y-121563847D01*
X133671503Y-121616503D01*
X133677500Y-121677390D01*
X133677500Y-122902610D01*
X133671503Y-122963497D01*
X133655530Y-123016153D01*
X133629600Y-123064665D01*
X133594696Y-123107196D01*
X133552165Y-123142100D01*
X133503651Y-123168031D01*
X133502152Y-123168486D01*
X133479512Y-123177863D01*
X133459138Y-123191477D01*
X133441810Y-123208804D01*
X133428196Y-123229178D01*
X133418819Y-123251817D01*
X133414038Y-123275851D01*
X133414038Y-123300355D01*
X133418818Y-123324388D01*
X133428195Y-123347028D01*
X133441809Y-123367402D01*
X133459136Y-123384730D01*
X133479510Y-123398344D01*
X133502150Y-123407722D01*
X133516153Y-123411970D01*
X133564665Y-123437900D01*
X133607196Y-123472804D01*
X133642100Y-123515335D01*
X133668030Y-123563847D01*
X133684003Y-123616503D01*
X133690000Y-123677390D01*
X133690000Y-124902610D01*
X133684003Y-124963497D01*
X133668030Y-125016153D01*
X133642100Y-125064665D01*
X133607196Y-125107196D01*
X133564665Y-125142100D01*
X133516153Y-125168030D01*
X133463497Y-125184003D01*
X133402610Y-125190000D01*
X132602390Y-125190000D01*
X132541503Y-125184003D01*
X132488847Y-125168030D01*
X132440335Y-125142100D01*
X132397804Y-125107196D01*
X132362900Y-125064665D01*
X132336970Y-125016153D01*
X132320997Y-124963497D01*
X132315000Y-124902610D01*
X132315000Y-123677390D01*
X132320997Y-123616503D01*
X132336970Y-123563847D01*
X132362900Y-123515335D01*
X132397804Y-123472804D01*
X132440335Y-123437900D01*
X132488849Y-123411969D01*
X132490348Y-123411514D01*
X132512988Y-123402137D01*
X132533362Y-123388523D01*
X132550690Y-123371196D01*
X132564304Y-123350822D01*
X132573681Y-123328183D01*
X132578462Y-123304149D01*
X132578462Y-123279645D01*
X132573682Y-123255612D01*
X132564305Y-123232972D01*
X132550691Y-123212598D01*
X132533364Y-123195270D01*
X132512990Y-123181656D01*
X132490350Y-123172278D01*
X132476347Y-123168030D01*
X132427835Y-123142100D01*
X132385304Y-123107196D01*
X132350400Y-123064665D01*
X132324470Y-123016153D01*
X132308497Y-122963497D01*
X132302500Y-122902610D01*
X132302500Y-121677390D01*
X132308497Y-121616503D01*
X132324470Y-121563847D01*
X132350400Y-121515335D01*
X132385304Y-121472804D01*
X132427835Y-121437900D01*
X132476347Y-121411970D01*
X132529003Y-121395997D01*
X132589890Y-121390000D01*
X133390110Y-121390000D01*
X133450997Y-121395997D01*
X133450997Y-121395997D01*
G37*
G36*
X125533622Y-123845517D02*
X125581585Y-123860066D01*
X125625775Y-123883686D01*
X125664518Y-123915482D01*
X125696314Y-123954225D01*
X125719934Y-123998415D01*
X125734483Y-124046378D01*
X125740000Y-124102391D01*
X125740000Y-124852609D01*
X125734483Y-124908622D01*
X125719934Y-124956585D01*
X125696314Y-125000775D01*
X125664518Y-125039518D01*
X125625775Y-125071314D01*
X125581585Y-125094934D01*
X125533622Y-125109483D01*
X125477609Y-125115000D01*
X124652391Y-125115000D01*
X124596378Y-125109483D01*
X124548415Y-125094934D01*
X124504225Y-125071314D01*
X124465482Y-125039518D01*
X124433686Y-125000775D01*
X124410066Y-124956585D01*
X124395517Y-124908622D01*
X124390000Y-124852609D01*
X124390000Y-124102391D01*
X124395517Y-124046378D01*
X124410066Y-123998415D01*
X124433686Y-123954225D01*
X124465482Y-123915482D01*
X124504225Y-123883686D01*
X124548415Y-123860066D01*
X124596378Y-123845517D01*
X124652391Y-123840000D01*
X125477609Y-123840000D01*
X125533622Y-123845517D01*
X125533622Y-123845517D01*
G37*
G36*
X138715000Y-124700000D02*
X135165000Y-124700000D01*
X135165000Y-123300000D01*
X138715000Y-123300000D01*
X138715000Y-124700000D01*
X138715000Y-124700000D01*
G37*
G36*
X143765000Y-124700000D02*
X140215000Y-124700000D01*
X140215000Y-123300000D01*
X143765000Y-123300000D01*
X143765000Y-124700000D01*
X143765000Y-124700000D01*
G37*
G36*
X85590000Y-123595000D02*
X83640000Y-123595000D01*
X83640000Y-122595000D01*
X85590000Y-122595000D01*
X85590000Y-123595000D01*
X85590000Y-123595000D01*
G37*
G36*
X90990000Y-123595000D02*
X89040000Y-123595000D01*
X89040000Y-122595000D01*
X90990000Y-122595000D01*
X90990000Y-123595000D01*
X90990000Y-123595000D01*
G37*
G36*
X125533622Y-122270517D02*
X125581585Y-122285066D01*
X125625775Y-122308686D01*
X125664518Y-122340482D01*
X125696314Y-122379225D01*
X125719934Y-122423415D01*
X125734483Y-122471378D01*
X125740000Y-122527391D01*
X125740000Y-123277609D01*
X125734483Y-123333622D01*
X125719934Y-123381585D01*
X125696314Y-123425775D01*
X125664518Y-123464518D01*
X125625775Y-123496314D01*
X125581585Y-123519934D01*
X125533622Y-123534483D01*
X125477609Y-123540000D01*
X124652391Y-123540000D01*
X124596378Y-123534483D01*
X124548415Y-123519934D01*
X124504225Y-123496314D01*
X124465482Y-123464518D01*
X124433686Y-123425775D01*
X124410066Y-123381585D01*
X124395517Y-123333622D01*
X124390000Y-123277609D01*
X124390000Y-122527391D01*
X124395517Y-122471378D01*
X124410066Y-122423415D01*
X124433686Y-122379225D01*
X124465482Y-122340482D01*
X124504225Y-122308686D01*
X124548415Y-122285066D01*
X124596378Y-122270517D01*
X124652391Y-122265000D01*
X125477609Y-122265000D01*
X125533622Y-122270517D01*
X125533622Y-122270517D01*
G37*
G36*
X99915000Y-123490000D02*
X98215000Y-123490000D01*
X98215000Y-121790000D01*
X99915000Y-121790000D01*
X99915000Y-123490000D01*
X99915000Y-123490000D01*
G37*
G36*
X79588497Y-122070997D02*
X79641153Y-122086970D01*
X79689665Y-122112900D01*
X79732196Y-122147804D01*
X79767100Y-122190335D01*
X79793030Y-122238847D01*
X79809003Y-122291503D01*
X79815000Y-122352390D01*
X79815000Y-123152610D01*
X79809003Y-123213497D01*
X79793030Y-123266153D01*
X79767100Y-123314665D01*
X79732196Y-123357196D01*
X79689665Y-123392100D01*
X79641153Y-123418030D01*
X79588497Y-123434003D01*
X79527610Y-123440000D01*
X78302390Y-123440000D01*
X78241503Y-123434003D01*
X78188847Y-123418030D01*
X78140335Y-123392100D01*
X78097804Y-123357196D01*
X78062900Y-123314665D01*
X78036970Y-123266153D01*
X78020997Y-123213497D01*
X78015000Y-123152610D01*
X78015000Y-122352390D01*
X78020997Y-122291503D01*
X78036970Y-122238847D01*
X78062900Y-122190335D01*
X78097804Y-122147804D01*
X78140335Y-122112900D01*
X78188847Y-122086970D01*
X78241503Y-122070997D01*
X78302390Y-122065000D01*
X79527610Y-122065000D01*
X79588497Y-122070997D01*
X79588497Y-122070997D01*
G37*
G36*
X81988497Y-122070997D02*
X82041153Y-122086970D01*
X82089665Y-122112900D01*
X82132196Y-122147804D01*
X82167100Y-122190335D01*
X82193030Y-122238847D01*
X82209003Y-122291503D01*
X82215000Y-122352390D01*
X82215000Y-123152610D01*
X82209003Y-123213497D01*
X82193030Y-123266153D01*
X82167100Y-123314665D01*
X82132196Y-123357196D01*
X82089665Y-123392100D01*
X82041153Y-123418030D01*
X81988497Y-123434003D01*
X81927610Y-123440000D01*
X80702390Y-123440000D01*
X80641503Y-123434003D01*
X80588847Y-123418030D01*
X80540335Y-123392100D01*
X80497804Y-123357196D01*
X80462900Y-123314665D01*
X80436970Y-123266153D01*
X80420997Y-123213497D01*
X80415000Y-123152610D01*
X80415000Y-122352390D01*
X80420997Y-122291503D01*
X80436970Y-122238847D01*
X80462900Y-122190335D01*
X80497804Y-122147804D01*
X80540335Y-122112900D01*
X80588847Y-122086970D01*
X80641503Y-122070997D01*
X80702390Y-122065000D01*
X81927610Y-122065000D01*
X81988497Y-122070997D01*
X81988497Y-122070997D01*
G37*
G36*
X77238497Y-122070997D02*
X77291153Y-122086970D01*
X77339665Y-122112900D01*
X77382196Y-122147804D01*
X77417100Y-122190335D01*
X77443030Y-122238847D01*
X77459003Y-122291503D01*
X77465000Y-122352390D01*
X77465000Y-123152610D01*
X77459003Y-123213497D01*
X77443030Y-123266153D01*
X77417100Y-123314665D01*
X77382196Y-123357196D01*
X77339665Y-123392100D01*
X77291153Y-123418030D01*
X77238497Y-123434003D01*
X77177610Y-123440000D01*
X75952390Y-123440000D01*
X75891503Y-123434003D01*
X75838847Y-123418030D01*
X75790335Y-123392100D01*
X75747804Y-123357196D01*
X75712900Y-123314665D01*
X75686970Y-123266153D01*
X75670997Y-123213497D01*
X75665000Y-123152610D01*
X75665000Y-122352390D01*
X75670997Y-122291503D01*
X75686970Y-122238847D01*
X75712900Y-122190335D01*
X75747804Y-122147804D01*
X75790335Y-122112900D01*
X75838847Y-122086970D01*
X75891503Y-122070997D01*
X75952390Y-122065000D01*
X77177610Y-122065000D01*
X77238497Y-122070997D01*
X77238497Y-122070997D01*
G37*
G36*
X123365000Y-123290000D02*
X120065000Y-123290000D01*
X120065000Y-121490000D01*
X123365000Y-121490000D01*
X123365000Y-123290000D01*
X123365000Y-123290000D01*
G37*
G36*
X119333622Y-121733017D02*
X119381585Y-121747566D01*
X119425775Y-121771186D01*
X119464518Y-121802982D01*
X119496314Y-121841725D01*
X119519934Y-121885915D01*
X119534483Y-121933878D01*
X119540000Y-121989891D01*
X119540000Y-122740109D01*
X119534483Y-122796122D01*
X119519934Y-122844085D01*
X119496314Y-122888275D01*
X119464518Y-122927018D01*
X119425775Y-122958814D01*
X119381585Y-122982434D01*
X119333622Y-122996983D01*
X119277609Y-123002500D01*
X118452391Y-123002500D01*
X118396378Y-122996983D01*
X118348415Y-122982434D01*
X118304225Y-122958814D01*
X118265482Y-122927018D01*
X118233686Y-122888275D01*
X118210066Y-122844085D01*
X118195517Y-122796122D01*
X118190000Y-122740109D01*
X118190000Y-121989891D01*
X118195517Y-121933878D01*
X118210066Y-121885915D01*
X118233686Y-121841725D01*
X118265482Y-121802982D01*
X118304225Y-121771186D01*
X118348415Y-121747566D01*
X118396378Y-121733017D01*
X118452391Y-121727500D01*
X119277609Y-121727500D01*
X119333622Y-121733017D01*
X119333622Y-121733017D01*
G37*
G36*
X105302749Y-120590629D02*
X105327251Y-120590629D01*
X105333638Y-120590000D01*
X105796362Y-120590000D01*
X105802749Y-120590629D01*
X105827251Y-120590629D01*
X105833638Y-120590000D01*
X106296362Y-120590000D01*
X106302749Y-120590629D01*
X106327251Y-120590629D01*
X106333638Y-120590000D01*
X106796362Y-120590000D01*
X106802749Y-120590629D01*
X106827251Y-120590629D01*
X106833638Y-120590000D01*
X107296362Y-120590000D01*
X107302749Y-120590629D01*
X107327251Y-120590629D01*
X107333638Y-120590000D01*
X107796362Y-120590000D01*
X107802749Y-120590629D01*
X107827251Y-120590629D01*
X107833638Y-120590000D01*
X108296362Y-120590000D01*
X108302749Y-120590629D01*
X108327251Y-120590629D01*
X108333638Y-120590000D01*
X108796362Y-120590000D01*
X108802749Y-120590629D01*
X108827251Y-120590629D01*
X108833638Y-120590000D01*
X109296362Y-120590000D01*
X109302749Y-120590629D01*
X109327251Y-120590629D01*
X109333638Y-120590000D01*
X109796362Y-120590000D01*
X109802749Y-120590629D01*
X109827251Y-120590629D01*
X109833638Y-120590000D01*
X110296362Y-120590000D01*
X110302749Y-120590629D01*
X110327251Y-120590629D01*
X110333638Y-120590000D01*
X110796362Y-120590000D01*
X110802749Y-120590629D01*
X110827251Y-120590629D01*
X110833638Y-120590000D01*
X111296362Y-120590000D01*
X111302749Y-120590629D01*
X111327251Y-120590629D01*
X111333638Y-120590000D01*
X111796362Y-120590000D01*
X111802749Y-120590629D01*
X111827251Y-120590629D01*
X111833638Y-120590000D01*
X112296362Y-120590000D01*
X112302749Y-120590629D01*
X112327251Y-120590629D01*
X112333638Y-120590000D01*
X112796362Y-120590000D01*
X112824327Y-120592754D01*
X112845320Y-120599123D01*
X112864664Y-120609462D01*
X112881622Y-120623378D01*
X112895538Y-120640336D01*
X112905877Y-120659680D01*
X112912246Y-120680673D01*
X112915000Y-120708638D01*
X112915000Y-122346362D01*
X112912246Y-122374327D01*
X112905877Y-122395320D01*
X112895538Y-122414664D01*
X112881622Y-122431622D01*
X112864664Y-122445538D01*
X112845320Y-122455877D01*
X112824327Y-122462246D01*
X112796362Y-122465000D01*
X112333638Y-122465000D01*
X112327251Y-122464371D01*
X112302749Y-122464371D01*
X112296362Y-122465000D01*
X111833638Y-122465000D01*
X111827251Y-122464371D01*
X111802749Y-122464371D01*
X111796362Y-122465000D01*
X111333638Y-122465000D01*
X111327251Y-122464371D01*
X111302749Y-122464371D01*
X111296362Y-122465000D01*
X110833638Y-122465000D01*
X110827251Y-122464371D01*
X110802749Y-122464371D01*
X110796362Y-122465000D01*
X110333638Y-122465000D01*
X110327251Y-122464371D01*
X110302749Y-122464371D01*
X110296362Y-122465000D01*
X109833638Y-122465000D01*
X109827251Y-122464371D01*
X109802749Y-122464371D01*
X109796362Y-122465000D01*
X109333638Y-122465000D01*
X109327251Y-122464371D01*
X109302749Y-122464371D01*
X109296362Y-122465000D01*
X108833638Y-122465000D01*
X108827251Y-122464371D01*
X108802749Y-122464371D01*
X108796362Y-122465000D01*
X108333638Y-122465000D01*
X108327251Y-122464371D01*
X108302749Y-122464371D01*
X108296362Y-122465000D01*
X107833638Y-122465000D01*
X107827251Y-122464371D01*
X107802749Y-122464371D01*
X107796362Y-122465000D01*
X107333638Y-122465000D01*
X107327251Y-122464371D01*
X107302749Y-122464371D01*
X107296362Y-122465000D01*
X106833638Y-122465000D01*
X106827251Y-122464371D01*
X106802749Y-122464371D01*
X106796362Y-122465000D01*
X106333638Y-122465000D01*
X106327251Y-122464371D01*
X106302749Y-122464371D01*
X106296362Y-122465000D01*
X105833638Y-122465000D01*
X105827251Y-122464371D01*
X105802749Y-122464371D01*
X105796362Y-122465000D01*
X105333638Y-122465000D01*
X105327251Y-122464371D01*
X105302749Y-122464371D01*
X105296362Y-122465000D01*
X104833638Y-122465000D01*
X104805673Y-122462246D01*
X104784680Y-122455877D01*
X104765336Y-122445538D01*
X104748378Y-122431622D01*
X104734462Y-122414664D01*
X104724123Y-122395320D01*
X104717754Y-122374327D01*
X104715000Y-122346362D01*
X104715000Y-120708638D01*
X104717754Y-120680673D01*
X104724123Y-120659680D01*
X104734462Y-120640336D01*
X104748378Y-120623378D01*
X104765336Y-120609462D01*
X104784680Y-120599123D01*
X104805673Y-120592754D01*
X104833638Y-120590000D01*
X105296362Y-120590000D01*
X105302749Y-120590629D01*
X105302749Y-120590629D01*
G37*
G36*
X94765000Y-122340000D02*
X92365000Y-122340000D01*
X92365000Y-120640000D01*
X94765000Y-120640000D01*
X94765000Y-122340000D01*
X94765000Y-122340000D01*
G37*
G36*
X90990000Y-122325000D02*
X89040000Y-122325000D01*
X89040000Y-121325000D01*
X90990000Y-121325000D01*
X90990000Y-122325000D01*
X90990000Y-122325000D01*
G37*
G36*
X85590000Y-122325000D02*
X83640000Y-122325000D01*
X83640000Y-121325000D01*
X85590000Y-121325000D01*
X85590000Y-122325000D01*
X85590000Y-122325000D01*
G37*
G36*
X143765000Y-122160000D02*
X140215000Y-122160000D01*
X140215000Y-120760000D01*
X143765000Y-120760000D01*
X143765000Y-122160000D01*
X143765000Y-122160000D01*
G37*
G36*
X138715000Y-122160000D02*
X135165000Y-122160000D01*
X135165000Y-120760000D01*
X138715000Y-120760000D01*
X138715000Y-122160000D01*
X138715000Y-122160000D01*
G37*
G36*
X119333622Y-120158017D02*
X119381585Y-120172566D01*
X119425775Y-120196186D01*
X119464518Y-120227982D01*
X119496314Y-120266725D01*
X119519934Y-120310915D01*
X119534483Y-120358878D01*
X119540000Y-120414891D01*
X119540000Y-121165109D01*
X119534483Y-121221122D01*
X119519934Y-121269085D01*
X119496314Y-121313275D01*
X119464518Y-121352018D01*
X119425775Y-121383814D01*
X119381585Y-121407434D01*
X119333622Y-121421983D01*
X119277609Y-121427500D01*
X118452391Y-121427500D01*
X118396378Y-121421983D01*
X118348415Y-121407434D01*
X118304225Y-121383814D01*
X118265482Y-121352018D01*
X118233686Y-121313275D01*
X118210066Y-121269085D01*
X118195517Y-121221122D01*
X118190000Y-121165109D01*
X118190000Y-120414891D01*
X118195517Y-120358878D01*
X118210066Y-120310915D01*
X118233686Y-120266725D01*
X118265482Y-120227982D01*
X118304225Y-120196186D01*
X118348415Y-120172566D01*
X118396378Y-120158017D01*
X118452391Y-120152500D01*
X119277609Y-120152500D01*
X119333622Y-120158017D01*
X119333622Y-120158017D01*
G37*
G36*
X99915000Y-121190000D02*
X98215000Y-121190000D01*
X98215000Y-119490000D01*
X99915000Y-119490000D01*
X99915000Y-121190000D01*
X99915000Y-121190000D01*
G37*
G36*
X85590000Y-121055000D02*
X83640000Y-121055000D01*
X83640000Y-120055000D01*
X85590000Y-120055000D01*
X85590000Y-121055000D01*
X85590000Y-121055000D01*
G37*
G36*
X90990000Y-121055000D02*
X89040000Y-121055000D01*
X89040000Y-120055000D01*
X90990000Y-120055000D01*
X90990000Y-121055000D01*
X90990000Y-121055000D01*
G37*
G36*
X115464699Y-118470968D02*
X115517066Y-118486854D01*
X115565332Y-118512653D01*
X115607632Y-118547368D01*
X115642347Y-118589668D01*
X115668146Y-118637934D01*
X115684032Y-118690301D01*
X115690602Y-118757013D01*
X115695382Y-118781046D01*
X115704760Y-118803685D01*
X115718373Y-118824060D01*
X115735700Y-118841387D01*
X115756075Y-118855001D01*
X115778714Y-118864378D01*
X115802747Y-118869159D01*
X115827252Y-118869159D01*
X115851285Y-118864379D01*
X115873924Y-118855001D01*
X115894299Y-118841388D01*
X115911626Y-118824061D01*
X115925240Y-118803686D01*
X115934617Y-118781047D01*
X115939398Y-118757013D01*
X115945968Y-118690301D01*
X115961854Y-118637934D01*
X115987653Y-118589668D01*
X116022368Y-118547368D01*
X116064668Y-118512653D01*
X116112934Y-118486854D01*
X116165301Y-118470968D01*
X116225900Y-118465000D01*
X117179100Y-118465000D01*
X117239699Y-118470968D01*
X117292066Y-118486854D01*
X117340332Y-118512653D01*
X117382632Y-118547368D01*
X117417347Y-118589668D01*
X117443146Y-118637934D01*
X117459032Y-118690301D01*
X117465000Y-118750900D01*
X117465000Y-119629100D01*
X117459032Y-119689699D01*
X117443146Y-119742066D01*
X117417347Y-119790332D01*
X117382632Y-119832632D01*
X117340332Y-119867347D01*
X117292066Y-119893146D01*
X117239699Y-119909032D01*
X117179100Y-119915000D01*
X116225900Y-119915000D01*
X116165301Y-119909032D01*
X116112934Y-119893146D01*
X116064668Y-119867347D01*
X116022368Y-119832632D01*
X115987653Y-119790332D01*
X115961854Y-119742066D01*
X115945968Y-119689699D01*
X115939398Y-119622987D01*
X115934618Y-119598954D01*
X115925240Y-119576315D01*
X115911627Y-119555940D01*
X115894300Y-119538613D01*
X115873925Y-119524999D01*
X115851286Y-119515622D01*
X115827253Y-119510841D01*
X115802748Y-119510841D01*
X115778715Y-119515621D01*
X115756076Y-119524999D01*
X115735701Y-119538612D01*
X115718374Y-119555939D01*
X115704760Y-119576314D01*
X115695383Y-119598953D01*
X115690602Y-119622987D01*
X115684032Y-119689699D01*
X115668146Y-119742066D01*
X115642347Y-119790332D01*
X115607632Y-119832632D01*
X115565332Y-119867347D01*
X115517066Y-119893146D01*
X115464699Y-119909032D01*
X115404100Y-119915000D01*
X114450900Y-119915000D01*
X114390301Y-119909032D01*
X114337934Y-119893146D01*
X114289668Y-119867347D01*
X114247368Y-119832632D01*
X114212653Y-119790332D01*
X114186854Y-119742066D01*
X114170968Y-119689699D01*
X114165000Y-119629100D01*
X114165000Y-118750900D01*
X114170968Y-118690301D01*
X114186854Y-118637934D01*
X114212653Y-118589668D01*
X114247368Y-118547368D01*
X114289668Y-118512653D01*
X114337934Y-118486854D01*
X114390301Y-118470968D01*
X114450900Y-118465000D01*
X115404100Y-118465000D01*
X115464699Y-118470968D01*
X115464699Y-118470968D01*
G37*
G36*
X108583622Y-118520517D02*
X108631585Y-118535066D01*
X108675775Y-118558686D01*
X108714518Y-118590482D01*
X108743374Y-118625643D01*
X108760702Y-118642970D01*
X108781076Y-118656584D01*
X108803715Y-118665961D01*
X108827749Y-118670741D01*
X108852253Y-118670741D01*
X108876286Y-118665960D01*
X108898925Y-118656583D01*
X108919300Y-118642969D01*
X108936626Y-118625643D01*
X108965482Y-118590482D01*
X109004225Y-118558686D01*
X109048415Y-118535066D01*
X109096378Y-118520517D01*
X109152391Y-118515000D01*
X109902609Y-118515000D01*
X109958622Y-118520517D01*
X110006585Y-118535066D01*
X110050775Y-118558686D01*
X110089518Y-118590482D01*
X110121314Y-118629225D01*
X110144934Y-118673415D01*
X110159483Y-118721378D01*
X110165000Y-118777391D01*
X110165000Y-119602609D01*
X110159483Y-119658622D01*
X110144934Y-119706585D01*
X110121314Y-119750775D01*
X110089518Y-119789518D01*
X110050775Y-119821314D01*
X110006585Y-119844934D01*
X109958622Y-119859483D01*
X109902609Y-119865000D01*
X109152391Y-119865000D01*
X109096378Y-119859483D01*
X109048415Y-119844934D01*
X109004225Y-119821314D01*
X108965482Y-119789518D01*
X108936626Y-119754357D01*
X108919298Y-119737030D01*
X108898924Y-119723416D01*
X108876285Y-119714039D01*
X108852251Y-119709259D01*
X108827747Y-119709259D01*
X108803714Y-119714040D01*
X108781075Y-119723417D01*
X108760700Y-119737031D01*
X108743374Y-119754357D01*
X108714518Y-119789518D01*
X108675775Y-119821314D01*
X108631585Y-119844934D01*
X108583622Y-119859483D01*
X108527609Y-119865000D01*
X107777391Y-119865000D01*
X107721378Y-119859483D01*
X107673415Y-119844934D01*
X107629225Y-119821314D01*
X107590482Y-119789518D01*
X107558686Y-119750775D01*
X107535066Y-119706585D01*
X107520517Y-119658622D01*
X107515000Y-119602609D01*
X107515000Y-118777391D01*
X107520517Y-118721378D01*
X107535066Y-118673415D01*
X107558686Y-118629225D01*
X107590482Y-118590482D01*
X107629225Y-118558686D01*
X107673415Y-118535066D01*
X107721378Y-118520517D01*
X107777391Y-118515000D01*
X108527609Y-118515000D01*
X108583622Y-118520517D01*
X108583622Y-118520517D01*
G37*
G36*
X107008622Y-118520517D02*
X107056585Y-118535066D01*
X107100775Y-118558686D01*
X107139518Y-118590482D01*
X107171314Y-118629225D01*
X107194934Y-118673415D01*
X107209483Y-118721378D01*
X107215000Y-118777391D01*
X107215000Y-119602609D01*
X107209483Y-119658622D01*
X107194934Y-119706585D01*
X107171314Y-119750775D01*
X107139518Y-119789518D01*
X107100775Y-119821314D01*
X107056585Y-119844934D01*
X107008622Y-119859483D01*
X106952609Y-119865000D01*
X106202391Y-119865000D01*
X106146378Y-119859483D01*
X106098415Y-119844934D01*
X106054225Y-119821314D01*
X106015482Y-119789518D01*
X105983686Y-119750775D01*
X105960066Y-119706585D01*
X105945517Y-119658622D01*
X105940000Y-119602609D01*
X105940000Y-118777391D01*
X105945517Y-118721378D01*
X105960066Y-118673415D01*
X105983686Y-118629225D01*
X106015482Y-118590482D01*
X106054225Y-118558686D01*
X106098415Y-118535066D01*
X106146378Y-118520517D01*
X106202391Y-118515000D01*
X106952609Y-118515000D01*
X107008622Y-118520517D01*
X107008622Y-118520517D01*
G37*
G36*
X111533622Y-118520517D02*
X111581585Y-118535066D01*
X111625775Y-118558686D01*
X111664518Y-118590482D01*
X111696314Y-118629225D01*
X111719934Y-118673415D01*
X111734483Y-118721378D01*
X111740000Y-118777391D01*
X111740000Y-119602609D01*
X111734483Y-119658622D01*
X111719934Y-119706585D01*
X111696314Y-119750775D01*
X111664518Y-119789518D01*
X111625775Y-119821314D01*
X111581585Y-119844934D01*
X111533622Y-119859483D01*
X111477609Y-119865000D01*
X110727391Y-119865000D01*
X110671378Y-119859483D01*
X110623415Y-119844934D01*
X110579225Y-119821314D01*
X110540482Y-119789518D01*
X110508686Y-119750775D01*
X110485066Y-119706585D01*
X110470517Y-119658622D01*
X110465000Y-119602609D01*
X110465000Y-118777391D01*
X110470517Y-118721378D01*
X110485066Y-118673415D01*
X110508686Y-118629225D01*
X110540482Y-118590482D01*
X110579225Y-118558686D01*
X110623415Y-118535066D01*
X110671378Y-118520517D01*
X110727391Y-118515000D01*
X111477609Y-118515000D01*
X111533622Y-118520517D01*
X111533622Y-118520517D01*
G37*
G36*
X90990000Y-119785000D02*
X89040000Y-119785000D01*
X89040000Y-118785000D01*
X90990000Y-118785000D01*
X90990000Y-119785000D01*
X90990000Y-119785000D01*
G37*
G36*
X85590000Y-119785000D02*
X83640000Y-119785000D01*
X83640000Y-118785000D01*
X85590000Y-118785000D01*
X85590000Y-119785000D01*
X85590000Y-119785000D01*
G37*
G36*
X78865000Y-119740000D02*
X76765000Y-119740000D01*
X76765000Y-117640000D01*
X78865000Y-117640000D01*
X78865000Y-119740000D01*
X78865000Y-119740000D01*
G37*
G36*
X80483707Y-117647597D02*
X80560836Y-117655193D01*
X80692787Y-117695220D01*
X80758763Y-117715233D01*
X80941172Y-117812733D01*
X81101054Y-117943946D01*
X81232267Y-118103828D01*
X81329767Y-118286237D01*
X81329767Y-118286238D01*
X81389807Y-118484164D01*
X81410080Y-118690000D01*
X81389807Y-118895836D01*
X81369282Y-118963497D01*
X81329767Y-119093763D01*
X81232267Y-119276172D01*
X81101054Y-119436054D01*
X80941172Y-119567267D01*
X80758763Y-119664767D01*
X80692787Y-119684780D01*
X80560836Y-119724807D01*
X80483707Y-119732403D01*
X80406580Y-119740000D01*
X80303420Y-119740000D01*
X80226293Y-119732403D01*
X80149164Y-119724807D01*
X80017213Y-119684780D01*
X79951237Y-119664767D01*
X79768828Y-119567267D01*
X79608946Y-119436054D01*
X79477733Y-119276172D01*
X79380233Y-119093763D01*
X79340718Y-118963497D01*
X79320193Y-118895836D01*
X79299920Y-118690000D01*
X79320193Y-118484164D01*
X79380233Y-118286238D01*
X79380233Y-118286237D01*
X79477733Y-118103828D01*
X79608946Y-117943946D01*
X79768828Y-117812733D01*
X79951237Y-117715233D01*
X80017213Y-117695220D01*
X80149164Y-117655193D01*
X80226293Y-117647597D01*
X80303420Y-117640000D01*
X80406580Y-117640000D01*
X80483707Y-117647597D01*
X80483707Y-117647597D01*
G37*
G36*
X138715000Y-119620000D02*
X135165000Y-119620000D01*
X135165000Y-118220000D01*
X138715000Y-118220000D01*
X138715000Y-119620000D01*
X138715000Y-119620000D01*
G37*
G36*
X143765000Y-119620000D02*
X140215000Y-119620000D01*
X140215000Y-118220000D01*
X143765000Y-118220000D01*
X143765000Y-119620000D01*
X143765000Y-119620000D01*
G37*
G36*
X133450997Y-117395997D02*
X133503653Y-117411970D01*
X133552165Y-117437900D01*
X133594696Y-117472804D01*
X133629600Y-117515335D01*
X133655530Y-117563847D01*
X133671503Y-117616503D01*
X133677500Y-117677390D01*
X133677500Y-118902610D01*
X133671503Y-118963497D01*
X133655530Y-119016153D01*
X133629600Y-119064665D01*
X133594696Y-119107196D01*
X133552165Y-119142100D01*
X133503653Y-119168030D01*
X133450997Y-119184003D01*
X133390110Y-119190000D01*
X132589890Y-119190000D01*
X132529003Y-119184003D01*
X132476347Y-119168030D01*
X132427835Y-119142100D01*
X132385304Y-119107196D01*
X132350400Y-119064665D01*
X132324470Y-119016153D01*
X132308497Y-118963497D01*
X132302500Y-118902610D01*
X132302500Y-117677390D01*
X132308497Y-117616503D01*
X132324470Y-117563847D01*
X132350400Y-117515335D01*
X132385304Y-117472804D01*
X132427835Y-117437900D01*
X132476347Y-117411970D01*
X132529003Y-117395997D01*
X132589890Y-117390000D01*
X133390110Y-117390000D01*
X133450997Y-117395997D01*
X133450997Y-117395997D01*
G37*
G36*
X131575997Y-117395997D02*
X131628653Y-117411970D01*
X131677165Y-117437900D01*
X131719696Y-117472804D01*
X131754600Y-117515335D01*
X131780530Y-117563847D01*
X131796503Y-117616503D01*
X131802500Y-117677390D01*
X131802500Y-118902610D01*
X131796503Y-118963497D01*
X131780530Y-119016153D01*
X131754600Y-119064665D01*
X131719696Y-119107196D01*
X131677165Y-119142100D01*
X131628653Y-119168030D01*
X131575997Y-119184003D01*
X131515110Y-119190000D01*
X130714890Y-119190000D01*
X130654003Y-119184003D01*
X130601347Y-119168030D01*
X130552835Y-119142100D01*
X130510304Y-119107196D01*
X130475400Y-119064665D01*
X130449470Y-119016153D01*
X130433497Y-118963497D01*
X130427500Y-118902610D01*
X130427500Y-117677390D01*
X130433497Y-117616503D01*
X130449470Y-117563847D01*
X130475400Y-117515335D01*
X130510304Y-117472804D01*
X130552835Y-117437900D01*
X130601347Y-117411970D01*
X130654003Y-117395997D01*
X130714890Y-117390000D01*
X131515110Y-117390000D01*
X131575997Y-117395997D01*
X131575997Y-117395997D01*
G37*
G36*
X138715000Y-117080000D02*
X135165000Y-117080000D01*
X135165000Y-115680000D01*
X138715000Y-115680000D01*
X138715000Y-117080000D01*
X138715000Y-117080000D01*
G37*
G36*
X143765000Y-117080000D02*
X140215000Y-117080000D01*
X140215000Y-115680000D01*
X143765000Y-115680000D01*
X143765000Y-117080000D01*
X143765000Y-117080000D01*
G37*
G36*
X115713497Y-112295997D02*
X115766153Y-112311970D01*
X115814665Y-112337900D01*
X115857196Y-112372804D01*
X115892100Y-112415335D01*
X115918030Y-112463847D01*
X115934003Y-112516503D01*
X115940000Y-112577390D01*
X115940000Y-113802610D01*
X115934003Y-113863497D01*
X115918030Y-113916153D01*
X115892100Y-113964665D01*
X115857196Y-114007196D01*
X115814665Y-114042100D01*
X115766152Y-114068031D01*
X115758401Y-114070382D01*
X115735762Y-114079760D01*
X115715387Y-114093373D01*
X115698060Y-114110701D01*
X115684446Y-114131075D01*
X115675069Y-114153714D01*
X115670288Y-114177748D01*
X115670288Y-114202252D01*
X115675068Y-114226285D01*
X115684446Y-114248924D01*
X115698059Y-114269299D01*
X115715387Y-114286626D01*
X115735761Y-114300240D01*
X115758401Y-114309618D01*
X115766152Y-114311969D01*
X115814665Y-114337900D01*
X115857196Y-114372804D01*
X115892100Y-114415335D01*
X115918030Y-114463847D01*
X115934003Y-114516503D01*
X115940000Y-114577390D01*
X115940000Y-115802610D01*
X115934003Y-115863497D01*
X115918030Y-115916153D01*
X115892100Y-115964665D01*
X115857196Y-116007196D01*
X115814665Y-116042100D01*
X115766153Y-116068030D01*
X115713497Y-116084003D01*
X115652610Y-116090000D01*
X114852390Y-116090000D01*
X114791503Y-116084003D01*
X114738847Y-116068030D01*
X114690335Y-116042100D01*
X114647804Y-116007196D01*
X114612900Y-115964665D01*
X114586970Y-115916153D01*
X114570997Y-115863497D01*
X114565000Y-115802610D01*
X114565000Y-114577390D01*
X114570997Y-114516503D01*
X114586970Y-114463847D01*
X114612900Y-114415335D01*
X114647804Y-114372804D01*
X114690335Y-114337900D01*
X114738848Y-114311969D01*
X114746599Y-114309618D01*
X114769238Y-114300240D01*
X114789613Y-114286627D01*
X114806940Y-114269299D01*
X114820554Y-114248925D01*
X114829931Y-114226286D01*
X114834712Y-114202252D01*
X114834712Y-114177748D01*
X114829932Y-114153715D01*
X114820554Y-114131076D01*
X114806941Y-114110701D01*
X114789613Y-114093374D01*
X114769239Y-114079760D01*
X114746599Y-114070382D01*
X114738848Y-114068031D01*
X114690335Y-114042100D01*
X114647804Y-114007196D01*
X114612900Y-113964665D01*
X114586970Y-113916153D01*
X114570997Y-113863497D01*
X114565000Y-113802610D01*
X114565000Y-112577390D01*
X114570997Y-112516503D01*
X114586970Y-112463847D01*
X114612900Y-112415335D01*
X114647804Y-112372804D01*
X114690335Y-112337900D01*
X114738847Y-112311970D01*
X114791503Y-112295997D01*
X114852390Y-112290000D01*
X115652610Y-112290000D01*
X115713497Y-112295997D01*
X115713497Y-112295997D01*
G37*
G36*
X113838497Y-112295997D02*
X113891153Y-112311970D01*
X113939665Y-112337900D01*
X113982196Y-112372804D01*
X114017100Y-112415335D01*
X114043030Y-112463847D01*
X114059003Y-112516503D01*
X114065000Y-112577390D01*
X114065000Y-113802610D01*
X114059003Y-113863497D01*
X114043030Y-113916153D01*
X114017100Y-113964665D01*
X113982196Y-114007196D01*
X113939665Y-114042100D01*
X113891152Y-114068031D01*
X113883401Y-114070382D01*
X113860762Y-114079760D01*
X113840387Y-114093373D01*
X113823060Y-114110701D01*
X113809446Y-114131075D01*
X113800069Y-114153714D01*
X113795288Y-114177748D01*
X113795288Y-114202252D01*
X113800068Y-114226285D01*
X113809446Y-114248924D01*
X113823059Y-114269299D01*
X113840387Y-114286626D01*
X113860761Y-114300240D01*
X113883401Y-114309618D01*
X113891152Y-114311969D01*
X113939665Y-114337900D01*
X113982196Y-114372804D01*
X114017100Y-114415335D01*
X114043030Y-114463847D01*
X114059003Y-114516503D01*
X114065000Y-114577390D01*
X114065000Y-115802610D01*
X114059003Y-115863497D01*
X114043030Y-115916153D01*
X114017100Y-115964665D01*
X113982196Y-116007196D01*
X113939665Y-116042100D01*
X113891153Y-116068030D01*
X113838497Y-116084003D01*
X113777610Y-116090000D01*
X112977390Y-116090000D01*
X112916503Y-116084003D01*
X112863847Y-116068030D01*
X112815335Y-116042100D01*
X112772804Y-116007196D01*
X112737900Y-115964665D01*
X112711970Y-115916153D01*
X112695997Y-115863497D01*
X112690000Y-115802610D01*
X112690000Y-114577390D01*
X112695997Y-114516503D01*
X112711970Y-114463847D01*
X112737900Y-114415335D01*
X112772804Y-114372804D01*
X112815335Y-114337900D01*
X112863848Y-114311969D01*
X112871599Y-114309618D01*
X112894238Y-114300240D01*
X112914613Y-114286627D01*
X112931940Y-114269299D01*
X112945554Y-114248925D01*
X112954931Y-114226286D01*
X112959712Y-114202252D01*
X112959712Y-114177748D01*
X112954932Y-114153715D01*
X112945554Y-114131076D01*
X112931941Y-114110701D01*
X112914613Y-114093374D01*
X112894239Y-114079760D01*
X112871599Y-114070382D01*
X112863848Y-114068031D01*
X112815335Y-114042100D01*
X112772804Y-114007196D01*
X112737900Y-113964665D01*
X112711970Y-113916153D01*
X112695997Y-113863497D01*
X112690000Y-113802610D01*
X112690000Y-112577390D01*
X112695997Y-112516503D01*
X112711970Y-112463847D01*
X112737900Y-112415335D01*
X112772804Y-112372804D01*
X112815335Y-112337900D01*
X112863847Y-112311970D01*
X112916503Y-112295997D01*
X112977390Y-112290000D01*
X113777610Y-112290000D01*
X113838497Y-112295997D01*
X113838497Y-112295997D01*
G37*
G36*
X100713497Y-112295997D02*
X100766153Y-112311970D01*
X100814665Y-112337900D01*
X100857196Y-112372804D01*
X100892100Y-112415335D01*
X100918030Y-112463847D01*
X100934003Y-112516503D01*
X100940000Y-112577390D01*
X100940000Y-113802610D01*
X100934003Y-113863497D01*
X100918030Y-113916153D01*
X100892100Y-113964665D01*
X100857196Y-114007196D01*
X100814665Y-114042100D01*
X100766152Y-114068031D01*
X100758401Y-114070382D01*
X100735762Y-114079760D01*
X100715387Y-114093373D01*
X100698060Y-114110701D01*
X100684446Y-114131075D01*
X100675069Y-114153714D01*
X100670288Y-114177748D01*
X100670288Y-114202252D01*
X100675068Y-114226285D01*
X100684446Y-114248924D01*
X100698059Y-114269299D01*
X100715387Y-114286626D01*
X100735761Y-114300240D01*
X100758401Y-114309618D01*
X100766152Y-114311969D01*
X100814665Y-114337900D01*
X100857196Y-114372804D01*
X100892100Y-114415335D01*
X100918030Y-114463847D01*
X100934003Y-114516503D01*
X100940000Y-114577390D01*
X100940000Y-115802610D01*
X100934003Y-115863497D01*
X100918030Y-115916153D01*
X100892100Y-115964665D01*
X100857196Y-116007196D01*
X100814665Y-116042100D01*
X100766153Y-116068030D01*
X100713497Y-116084003D01*
X100652610Y-116090000D01*
X99852390Y-116090000D01*
X99791503Y-116084003D01*
X99738847Y-116068030D01*
X99690335Y-116042100D01*
X99647804Y-116007196D01*
X99612900Y-115964665D01*
X99586970Y-115916153D01*
X99570997Y-115863497D01*
X99565000Y-115802610D01*
X99565000Y-114577390D01*
X99570997Y-114516503D01*
X99586970Y-114463847D01*
X99612900Y-114415335D01*
X99647804Y-114372804D01*
X99690335Y-114337900D01*
X99738848Y-114311969D01*
X99746599Y-114309618D01*
X99769238Y-114300240D01*
X99789613Y-114286627D01*
X99806940Y-114269299D01*
X99820554Y-114248925D01*
X99829931Y-114226286D01*
X99834712Y-114202252D01*
X99834712Y-114177748D01*
X99829932Y-114153715D01*
X99820554Y-114131076D01*
X99806941Y-114110701D01*
X99789613Y-114093374D01*
X99769239Y-114079760D01*
X99746599Y-114070382D01*
X99738848Y-114068031D01*
X99690335Y-114042100D01*
X99647804Y-114007196D01*
X99612900Y-113964665D01*
X99586970Y-113916153D01*
X99570997Y-113863497D01*
X99565000Y-113802610D01*
X99565000Y-112577390D01*
X99570997Y-112516503D01*
X99586970Y-112463847D01*
X99612900Y-112415335D01*
X99647804Y-112372804D01*
X99690335Y-112337900D01*
X99738847Y-112311970D01*
X99791503Y-112295997D01*
X99852390Y-112290000D01*
X100652610Y-112290000D01*
X100713497Y-112295997D01*
X100713497Y-112295997D01*
G37*
G36*
X98838497Y-112295997D02*
X98891153Y-112311970D01*
X98939665Y-112337900D01*
X98982196Y-112372804D01*
X99017100Y-112415335D01*
X99043030Y-112463847D01*
X99059003Y-112516503D01*
X99065000Y-112577390D01*
X99065000Y-113802610D01*
X99059003Y-113863497D01*
X99043030Y-113916153D01*
X99017100Y-113964665D01*
X98982196Y-114007196D01*
X98939665Y-114042100D01*
X98891152Y-114068031D01*
X98883401Y-114070382D01*
X98860762Y-114079760D01*
X98840387Y-114093373D01*
X98823060Y-114110701D01*
X98809446Y-114131075D01*
X98800069Y-114153714D01*
X98795288Y-114177748D01*
X98795288Y-114202252D01*
X98800068Y-114226285D01*
X98809446Y-114248924D01*
X98823059Y-114269299D01*
X98840387Y-114286626D01*
X98860761Y-114300240D01*
X98883401Y-114309618D01*
X98891152Y-114311969D01*
X98939665Y-114337900D01*
X98982196Y-114372804D01*
X99017100Y-114415335D01*
X99043030Y-114463847D01*
X99059003Y-114516503D01*
X99065000Y-114577390D01*
X99065000Y-115802610D01*
X99059003Y-115863497D01*
X99043030Y-115916153D01*
X99017100Y-115964665D01*
X98982196Y-116007196D01*
X98939665Y-116042100D01*
X98891153Y-116068030D01*
X98838497Y-116084003D01*
X98777610Y-116090000D01*
X97977390Y-116090000D01*
X97916503Y-116084003D01*
X97863847Y-116068030D01*
X97815335Y-116042100D01*
X97772804Y-116007196D01*
X97737900Y-115964665D01*
X97711970Y-115916153D01*
X97695997Y-115863497D01*
X97690000Y-115802610D01*
X97690000Y-114577390D01*
X97695997Y-114516503D01*
X97711970Y-114463847D01*
X97737900Y-114415335D01*
X97772804Y-114372804D01*
X97815335Y-114337900D01*
X97863848Y-114311969D01*
X97871599Y-114309618D01*
X97894238Y-114300240D01*
X97914613Y-114286627D01*
X97931940Y-114269299D01*
X97945554Y-114248925D01*
X97954931Y-114226286D01*
X97959712Y-114202252D01*
X97959712Y-114177748D01*
X97954932Y-114153715D01*
X97945554Y-114131076D01*
X97931941Y-114110701D01*
X97914613Y-114093374D01*
X97894239Y-114079760D01*
X97871599Y-114070382D01*
X97863848Y-114068031D01*
X97815335Y-114042100D01*
X97772804Y-114007196D01*
X97737900Y-113964665D01*
X97711970Y-113916153D01*
X97695997Y-113863497D01*
X97690000Y-113802610D01*
X97690000Y-112577390D01*
X97695997Y-112516503D01*
X97711970Y-112463847D01*
X97737900Y-112415335D01*
X97772804Y-112372804D01*
X97815335Y-112337900D01*
X97863847Y-112311970D01*
X97916503Y-112295997D01*
X97977390Y-112290000D01*
X98777610Y-112290000D01*
X98838497Y-112295997D01*
X98838497Y-112295997D01*
G37*
G36*
X85713497Y-112295997D02*
X85766153Y-112311970D01*
X85814665Y-112337900D01*
X85857196Y-112372804D01*
X85892100Y-112415335D01*
X85918030Y-112463847D01*
X85934003Y-112516503D01*
X85940000Y-112577390D01*
X85940000Y-113802610D01*
X85934003Y-113863497D01*
X85918030Y-113916153D01*
X85892100Y-113964665D01*
X85857196Y-114007196D01*
X85814665Y-114042100D01*
X85766152Y-114068031D01*
X85758401Y-114070382D01*
X85735762Y-114079760D01*
X85715387Y-114093373D01*
X85698060Y-114110701D01*
X85684446Y-114131075D01*
X85675069Y-114153714D01*
X85670288Y-114177748D01*
X85670288Y-114202252D01*
X85675068Y-114226285D01*
X85684446Y-114248924D01*
X85698059Y-114269299D01*
X85715387Y-114286626D01*
X85735761Y-114300240D01*
X85758401Y-114309618D01*
X85766152Y-114311969D01*
X85814665Y-114337900D01*
X85857196Y-114372804D01*
X85892100Y-114415335D01*
X85918030Y-114463847D01*
X85934003Y-114516503D01*
X85940000Y-114577390D01*
X85940000Y-115802610D01*
X85934003Y-115863497D01*
X85918030Y-115916153D01*
X85892100Y-115964665D01*
X85857196Y-116007196D01*
X85814665Y-116042100D01*
X85766153Y-116068030D01*
X85713497Y-116084003D01*
X85652610Y-116090000D01*
X84852390Y-116090000D01*
X84791503Y-116084003D01*
X84738847Y-116068030D01*
X84690335Y-116042100D01*
X84647804Y-116007196D01*
X84612900Y-115964665D01*
X84586970Y-115916153D01*
X84570997Y-115863497D01*
X84565000Y-115802610D01*
X84565000Y-114577390D01*
X84570997Y-114516503D01*
X84586970Y-114463847D01*
X84612900Y-114415335D01*
X84647804Y-114372804D01*
X84690335Y-114337900D01*
X84738848Y-114311969D01*
X84746599Y-114309618D01*
X84769238Y-114300240D01*
X84789613Y-114286627D01*
X84806940Y-114269299D01*
X84820554Y-114248925D01*
X84829931Y-114226286D01*
X84834712Y-114202252D01*
X84834712Y-114177748D01*
X84829932Y-114153715D01*
X84820554Y-114131076D01*
X84806941Y-114110701D01*
X84789613Y-114093374D01*
X84769239Y-114079760D01*
X84746599Y-114070382D01*
X84738848Y-114068031D01*
X84690335Y-114042100D01*
X84647804Y-114007196D01*
X84612900Y-113964665D01*
X84586970Y-113916153D01*
X84570997Y-113863497D01*
X84565000Y-113802610D01*
X84565000Y-112577390D01*
X84570997Y-112516503D01*
X84586970Y-112463847D01*
X84612900Y-112415335D01*
X84647804Y-112372804D01*
X84690335Y-112337900D01*
X84738847Y-112311970D01*
X84791503Y-112295997D01*
X84852390Y-112290000D01*
X85652610Y-112290000D01*
X85713497Y-112295997D01*
X85713497Y-112295997D01*
G37*
G36*
X83838497Y-112295997D02*
X83891153Y-112311970D01*
X83939665Y-112337900D01*
X83982196Y-112372804D01*
X84017100Y-112415335D01*
X84043030Y-112463847D01*
X84059003Y-112516503D01*
X84065000Y-112577390D01*
X84065000Y-113802610D01*
X84059003Y-113863497D01*
X84043030Y-113916153D01*
X84017100Y-113964665D01*
X83982196Y-114007196D01*
X83939665Y-114042100D01*
X83891152Y-114068031D01*
X83883401Y-114070382D01*
X83860762Y-114079760D01*
X83840387Y-114093373D01*
X83823060Y-114110701D01*
X83809446Y-114131075D01*
X83800069Y-114153714D01*
X83795288Y-114177748D01*
X83795288Y-114202252D01*
X83800068Y-114226285D01*
X83809446Y-114248924D01*
X83823059Y-114269299D01*
X83840387Y-114286626D01*
X83860761Y-114300240D01*
X83883401Y-114309618D01*
X83891152Y-114311969D01*
X83939665Y-114337900D01*
X83982196Y-114372804D01*
X84017100Y-114415335D01*
X84043030Y-114463847D01*
X84059003Y-114516503D01*
X84065000Y-114577390D01*
X84065000Y-115802610D01*
X84059003Y-115863497D01*
X84043030Y-115916153D01*
X84017100Y-115964665D01*
X83982196Y-116007196D01*
X83939665Y-116042100D01*
X83891153Y-116068030D01*
X83838497Y-116084003D01*
X83777610Y-116090000D01*
X82977390Y-116090000D01*
X82916503Y-116084003D01*
X82863847Y-116068030D01*
X82815335Y-116042100D01*
X82772804Y-116007196D01*
X82737900Y-115964665D01*
X82711970Y-115916153D01*
X82695997Y-115863497D01*
X82690000Y-115802610D01*
X82690000Y-114577390D01*
X82695997Y-114516503D01*
X82711970Y-114463847D01*
X82737900Y-114415335D01*
X82772804Y-114372804D01*
X82815335Y-114337900D01*
X82863848Y-114311969D01*
X82871599Y-114309618D01*
X82894238Y-114300240D01*
X82914613Y-114286627D01*
X82931940Y-114269299D01*
X82945554Y-114248925D01*
X82954931Y-114226286D01*
X82959712Y-114202252D01*
X82959712Y-114177748D01*
X82954932Y-114153715D01*
X82945554Y-114131076D01*
X82931941Y-114110701D01*
X82914613Y-114093374D01*
X82894239Y-114079760D01*
X82871599Y-114070382D01*
X82863848Y-114068031D01*
X82815335Y-114042100D01*
X82772804Y-114007196D01*
X82737900Y-113964665D01*
X82711970Y-113916153D01*
X82695997Y-113863497D01*
X82690000Y-113802610D01*
X82690000Y-112577390D01*
X82695997Y-112516503D01*
X82711970Y-112463847D01*
X82737900Y-112415335D01*
X82772804Y-112372804D01*
X82815335Y-112337900D01*
X82863847Y-112311970D01*
X82916503Y-112295997D01*
X82977390Y-112290000D01*
X83777610Y-112290000D01*
X83838497Y-112295997D01*
X83838497Y-112295997D01*
G37*
G36*
X111992378Y-114220308D02*
X112038302Y-114234239D01*
X112080615Y-114256855D01*
X112117705Y-114287295D01*
X112148145Y-114324385D01*
X112170761Y-114366698D01*
X112184692Y-114412622D01*
X112190000Y-114466511D01*
X112190000Y-115713489D01*
X112184692Y-115767378D01*
X112170761Y-115813302D01*
X112148145Y-115855615D01*
X112117705Y-115892705D01*
X112080615Y-115923145D01*
X112038302Y-115945761D01*
X111992378Y-115959692D01*
X111938489Y-115965000D01*
X108691511Y-115965000D01*
X108637622Y-115959692D01*
X108591698Y-115945761D01*
X108549385Y-115923145D01*
X108512295Y-115892705D01*
X108481855Y-115855615D01*
X108459239Y-115813302D01*
X108445308Y-115767378D01*
X108440000Y-115713489D01*
X108440000Y-114466511D01*
X108445308Y-114412622D01*
X108459239Y-114366698D01*
X108481855Y-114324385D01*
X108512295Y-114287295D01*
X108549385Y-114256855D01*
X108591698Y-114234239D01*
X108637622Y-114220308D01*
X108691511Y-114215000D01*
X111938489Y-114215000D01*
X111992378Y-114220308D01*
X111992378Y-114220308D01*
G37*
G36*
X126992378Y-114220308D02*
X127038302Y-114234239D01*
X127080615Y-114256855D01*
X127117705Y-114287295D01*
X127148145Y-114324385D01*
X127170761Y-114366698D01*
X127184692Y-114412622D01*
X127190000Y-114466511D01*
X127190000Y-115713489D01*
X127184692Y-115767378D01*
X127170761Y-115813302D01*
X127148145Y-115855615D01*
X127117705Y-115892705D01*
X127080615Y-115923145D01*
X127038302Y-115945761D01*
X126992378Y-115959692D01*
X126938489Y-115965000D01*
X123691511Y-115965000D01*
X123637622Y-115959692D01*
X123591698Y-115945761D01*
X123549385Y-115923145D01*
X123512295Y-115892705D01*
X123481855Y-115855615D01*
X123459239Y-115813302D01*
X123445308Y-115767378D01*
X123440000Y-115713489D01*
X123440000Y-114466511D01*
X123445308Y-114412622D01*
X123459239Y-114366698D01*
X123481855Y-114324385D01*
X123512295Y-114287295D01*
X123549385Y-114256855D01*
X123591698Y-114234239D01*
X123637622Y-114220308D01*
X123691511Y-114215000D01*
X126938489Y-114215000D01*
X126992378Y-114220308D01*
X126992378Y-114220308D01*
G37*
G36*
X96992378Y-114220308D02*
X97038302Y-114234239D01*
X97080615Y-114256855D01*
X97117705Y-114287295D01*
X97148145Y-114324385D01*
X97170761Y-114366698D01*
X97184692Y-114412622D01*
X97190000Y-114466511D01*
X97190000Y-115713489D01*
X97184692Y-115767378D01*
X97170761Y-115813302D01*
X97148145Y-115855615D01*
X97117705Y-115892705D01*
X97080615Y-115923145D01*
X97038302Y-115945761D01*
X96992378Y-115959692D01*
X96938489Y-115965000D01*
X93691511Y-115965000D01*
X93637622Y-115959692D01*
X93591698Y-115945761D01*
X93549385Y-115923145D01*
X93512295Y-115892705D01*
X93481855Y-115855615D01*
X93459239Y-115813302D01*
X93445308Y-115767378D01*
X93440000Y-115713489D01*
X93440000Y-114466511D01*
X93445308Y-114412622D01*
X93459239Y-114366698D01*
X93481855Y-114324385D01*
X93512295Y-114287295D01*
X93549385Y-114256855D01*
X93591698Y-114234239D01*
X93637622Y-114220308D01*
X93691511Y-114215000D01*
X96938489Y-114215000D01*
X96992378Y-114220308D01*
X96992378Y-114220308D01*
G37*
G36*
X143765000Y-114540000D02*
X140215000Y-114540000D01*
X140215000Y-113140000D01*
X143765000Y-113140000D01*
X143765000Y-114540000D01*
X143765000Y-114540000D01*
G37*
G36*
X138715000Y-114540000D02*
X135165000Y-114540000D01*
X135165000Y-113140000D01*
X138715000Y-113140000D01*
X138715000Y-114540000D01*
X138715000Y-114540000D01*
G37*
G36*
X89790000Y-114020000D02*
X86840000Y-114020000D01*
X86840000Y-112560000D01*
X89790000Y-112560000D01*
X89790000Y-114020000D01*
X89790000Y-114020000D01*
G37*
G36*
X119790000Y-114020000D02*
X116840000Y-114020000D01*
X116840000Y-112560000D01*
X119790000Y-112560000D01*
X119790000Y-114020000D01*
X119790000Y-114020000D01*
G37*
G36*
X104790000Y-114020000D02*
X101840000Y-114020000D01*
X101840000Y-112560000D01*
X104790000Y-112560000D01*
X104790000Y-114020000D01*
X104790000Y-114020000D01*
G37*
G36*
X143765000Y-112000000D02*
X140215000Y-112000000D01*
X140215000Y-110600000D01*
X143765000Y-110600000D01*
X143765000Y-112000000D01*
X143765000Y-112000000D01*
G37*
G36*
X138715000Y-112000000D02*
X135165000Y-112000000D01*
X135165000Y-110600000D01*
X138715000Y-110600000D01*
X138715000Y-112000000D01*
X138715000Y-112000000D01*
G37*
G36*
X99915000Y-111840000D02*
X98715000Y-111840000D01*
X98715000Y-110540000D01*
X99915000Y-110540000D01*
X99915000Y-111840000D01*
X99915000Y-111840000D01*
G37*
G36*
X84965000Y-111840000D02*
X83765000Y-111840000D01*
X83765000Y-110540000D01*
X84965000Y-110540000D01*
X84965000Y-111840000D01*
X84965000Y-111840000D01*
G37*
G36*
X114915000Y-111840000D02*
X113715000Y-111840000D01*
X113715000Y-110540000D01*
X114915000Y-110540000D01*
X114915000Y-111840000D01*
X114915000Y-111840000D01*
G37*
G36*
X104790000Y-111820000D02*
X101840000Y-111820000D01*
X101840000Y-110360000D01*
X104790000Y-110360000D01*
X104790000Y-111820000D01*
X104790000Y-111820000D01*
G37*
G36*
X89790000Y-111820000D02*
X86840000Y-111820000D01*
X86840000Y-110360000D01*
X89790000Y-110360000D01*
X89790000Y-111820000D01*
X89790000Y-111820000D01*
G37*
G36*
X119790000Y-111820000D02*
X116840000Y-111820000D01*
X116840000Y-110360000D01*
X119790000Y-110360000D01*
X119790000Y-111820000D01*
X119790000Y-111820000D01*
G37*
G36*
X130588497Y-109895997D02*
X130641153Y-109911970D01*
X130689665Y-109937900D01*
X130732196Y-109972804D01*
X130767100Y-110015335D01*
X130793030Y-110063847D01*
X130809003Y-110116503D01*
X130815000Y-110177390D01*
X130815000Y-111402610D01*
X130809003Y-111463497D01*
X130793030Y-111516153D01*
X130767100Y-111564665D01*
X130732196Y-111607196D01*
X130689665Y-111642100D01*
X130641153Y-111668030D01*
X130588497Y-111684003D01*
X130527610Y-111690000D01*
X129727390Y-111690000D01*
X129666503Y-111684003D01*
X129613847Y-111668030D01*
X129565335Y-111642100D01*
X129522804Y-111607196D01*
X129487900Y-111564665D01*
X129461970Y-111516153D01*
X129445997Y-111463497D01*
X129440000Y-111402610D01*
X129440000Y-110177390D01*
X129445997Y-110116503D01*
X129461970Y-110063847D01*
X129487900Y-110015335D01*
X129522804Y-109972804D01*
X129565335Y-109937900D01*
X129613847Y-109911970D01*
X129666503Y-109895997D01*
X129727390Y-109890000D01*
X130527610Y-109890000D01*
X130588497Y-109895997D01*
X130588497Y-109895997D01*
G37*
G36*
X132463497Y-109895997D02*
X132516153Y-109911970D01*
X132564665Y-109937900D01*
X132607196Y-109972804D01*
X132642100Y-110015335D01*
X132668030Y-110063847D01*
X132684003Y-110116503D01*
X132690000Y-110177390D01*
X132690000Y-111402610D01*
X132684003Y-111463497D01*
X132668030Y-111516153D01*
X132642100Y-111564665D01*
X132607196Y-111607196D01*
X132564665Y-111642100D01*
X132516153Y-111668030D01*
X132463497Y-111684003D01*
X132402610Y-111690000D01*
X131602390Y-111690000D01*
X131541503Y-111684003D01*
X131488847Y-111668030D01*
X131440335Y-111642100D01*
X131397804Y-111607196D01*
X131362900Y-111564665D01*
X131336970Y-111516153D01*
X131320997Y-111463497D01*
X131315000Y-111402610D01*
X131315000Y-110177390D01*
X131320997Y-110116503D01*
X131336970Y-110063847D01*
X131362900Y-110015335D01*
X131397804Y-109972804D01*
X131440335Y-109937900D01*
X131488847Y-109911970D01*
X131541503Y-109895997D01*
X131602390Y-109890000D01*
X132402610Y-109890000D01*
X132463497Y-109895997D01*
X132463497Y-109895997D01*
G37*
G36*
X126992378Y-108420308D02*
X127038302Y-108434239D01*
X127080615Y-108456855D01*
X127117705Y-108487295D01*
X127148145Y-108524385D01*
X127170761Y-108566698D01*
X127184692Y-108612622D01*
X127190000Y-108666511D01*
X127190000Y-109913489D01*
X127184692Y-109967378D01*
X127170761Y-110013302D01*
X127148145Y-110055615D01*
X127117705Y-110092705D01*
X127080615Y-110123145D01*
X127038302Y-110145761D01*
X126992378Y-110159692D01*
X126938489Y-110165000D01*
X123691511Y-110165000D01*
X123637622Y-110159692D01*
X123591698Y-110145761D01*
X123549385Y-110123145D01*
X123512295Y-110092705D01*
X123481855Y-110055615D01*
X123459239Y-110013302D01*
X123445308Y-109967378D01*
X123440000Y-109913489D01*
X123440000Y-108666511D01*
X123445308Y-108612622D01*
X123459239Y-108566698D01*
X123481855Y-108524385D01*
X123512295Y-108487295D01*
X123549385Y-108456855D01*
X123591698Y-108434239D01*
X123637622Y-108420308D01*
X123691511Y-108415000D01*
X126938489Y-108415000D01*
X126992378Y-108420308D01*
X126992378Y-108420308D01*
G37*
G36*
X111992378Y-108420308D02*
X112038302Y-108434239D01*
X112080615Y-108456855D01*
X112117705Y-108487295D01*
X112148145Y-108524385D01*
X112170761Y-108566698D01*
X112184692Y-108612622D01*
X112190000Y-108666511D01*
X112190000Y-109913489D01*
X112184692Y-109967378D01*
X112170761Y-110013302D01*
X112148145Y-110055615D01*
X112117705Y-110092705D01*
X112080615Y-110123145D01*
X112038302Y-110145761D01*
X111992378Y-110159692D01*
X111938489Y-110165000D01*
X108691511Y-110165000D01*
X108637622Y-110159692D01*
X108591698Y-110145761D01*
X108549385Y-110123145D01*
X108512295Y-110092705D01*
X108481855Y-110055615D01*
X108459239Y-110013302D01*
X108445308Y-109967378D01*
X108440000Y-109913489D01*
X108440000Y-108666511D01*
X108445308Y-108612622D01*
X108459239Y-108566698D01*
X108481855Y-108524385D01*
X108512295Y-108487295D01*
X108549385Y-108456855D01*
X108591698Y-108434239D01*
X108637622Y-108420308D01*
X108691511Y-108415000D01*
X111938489Y-108415000D01*
X111992378Y-108420308D01*
X111992378Y-108420308D01*
G37*
G36*
X96992378Y-108420308D02*
X97038302Y-108434239D01*
X97080615Y-108456855D01*
X97117705Y-108487295D01*
X97148145Y-108524385D01*
X97170761Y-108566698D01*
X97184692Y-108612622D01*
X97190000Y-108666511D01*
X97190000Y-109913489D01*
X97184692Y-109967378D01*
X97170761Y-110013302D01*
X97148145Y-110055615D01*
X97117705Y-110092705D01*
X97080615Y-110123145D01*
X97038302Y-110145761D01*
X96992378Y-110159692D01*
X96938489Y-110165000D01*
X93691511Y-110165000D01*
X93637622Y-110159692D01*
X93591698Y-110145761D01*
X93549385Y-110123145D01*
X93512295Y-110092705D01*
X93481855Y-110055615D01*
X93459239Y-110013302D01*
X93445308Y-109967378D01*
X93440000Y-109913489D01*
X93440000Y-108666511D01*
X93445308Y-108612622D01*
X93459239Y-108566698D01*
X93481855Y-108524385D01*
X93512295Y-108487295D01*
X93549385Y-108456855D01*
X93591698Y-108434239D01*
X93637622Y-108420308D01*
X93691511Y-108415000D01*
X96938489Y-108415000D01*
X96992378Y-108420308D01*
X96992378Y-108420308D01*
G37*
G36*
X102958622Y-108520517D02*
X103006585Y-108535066D01*
X103050775Y-108558686D01*
X103089518Y-108590482D01*
X103121314Y-108629225D01*
X103144934Y-108673415D01*
X103159483Y-108721378D01*
X103165000Y-108777391D01*
X103165000Y-109602609D01*
X103159483Y-109658622D01*
X103144934Y-109706585D01*
X103121314Y-109750775D01*
X103089518Y-109789518D01*
X103050775Y-109821314D01*
X103006585Y-109844934D01*
X102958622Y-109859483D01*
X102902609Y-109865000D01*
X102152391Y-109865000D01*
X102096378Y-109859483D01*
X102048415Y-109844934D01*
X102004225Y-109821314D01*
X101965482Y-109789518D01*
X101933686Y-109750775D01*
X101910066Y-109706585D01*
X101895517Y-109658622D01*
X101890000Y-109602609D01*
X101890000Y-108777391D01*
X101895517Y-108721378D01*
X101910066Y-108673415D01*
X101933686Y-108629225D01*
X101965482Y-108590482D01*
X102004225Y-108558686D01*
X102048415Y-108535066D01*
X102096378Y-108520517D01*
X102152391Y-108515000D01*
X102902609Y-108515000D01*
X102958622Y-108520517D01*
X102958622Y-108520517D01*
G37*
G36*
X87958622Y-108520517D02*
X88006585Y-108535066D01*
X88050775Y-108558686D01*
X88089518Y-108590482D01*
X88121314Y-108629225D01*
X88144934Y-108673415D01*
X88159483Y-108721378D01*
X88165000Y-108777391D01*
X88165000Y-109602609D01*
X88159483Y-109658622D01*
X88144934Y-109706585D01*
X88121314Y-109750775D01*
X88089518Y-109789518D01*
X88050775Y-109821314D01*
X88006585Y-109844934D01*
X87958622Y-109859483D01*
X87902609Y-109865000D01*
X87152391Y-109865000D01*
X87096378Y-109859483D01*
X87048415Y-109844934D01*
X87004225Y-109821314D01*
X86965482Y-109789518D01*
X86933686Y-109750775D01*
X86910066Y-109706585D01*
X86895517Y-109658622D01*
X86890000Y-109602609D01*
X86890000Y-108777391D01*
X86895517Y-108721378D01*
X86910066Y-108673415D01*
X86933686Y-108629225D01*
X86965482Y-108590482D01*
X87004225Y-108558686D01*
X87048415Y-108535066D01*
X87096378Y-108520517D01*
X87152391Y-108515000D01*
X87902609Y-108515000D01*
X87958622Y-108520517D01*
X87958622Y-108520517D01*
G37*
G36*
X89533622Y-108520517D02*
X89581585Y-108535066D01*
X89625775Y-108558686D01*
X89664518Y-108590482D01*
X89696314Y-108629225D01*
X89719934Y-108673415D01*
X89734483Y-108721378D01*
X89740000Y-108777391D01*
X89740000Y-109602609D01*
X89734483Y-109658622D01*
X89719934Y-109706585D01*
X89696314Y-109750775D01*
X89664518Y-109789518D01*
X89625775Y-109821314D01*
X89581585Y-109844934D01*
X89533622Y-109859483D01*
X89477609Y-109865000D01*
X88727391Y-109865000D01*
X88671378Y-109859483D01*
X88623415Y-109844934D01*
X88579225Y-109821314D01*
X88540482Y-109789518D01*
X88508686Y-109750775D01*
X88485066Y-109706585D01*
X88470517Y-109658622D01*
X88465000Y-109602609D01*
X88465000Y-108777391D01*
X88470517Y-108721378D01*
X88485066Y-108673415D01*
X88508686Y-108629225D01*
X88540482Y-108590482D01*
X88579225Y-108558686D01*
X88623415Y-108535066D01*
X88671378Y-108520517D01*
X88727391Y-108515000D01*
X89477609Y-108515000D01*
X89533622Y-108520517D01*
X89533622Y-108520517D01*
G37*
G36*
X104533622Y-108520517D02*
X104581585Y-108535066D01*
X104625775Y-108558686D01*
X104664518Y-108590482D01*
X104696314Y-108629225D01*
X104719934Y-108673415D01*
X104734483Y-108721378D01*
X104740000Y-108777391D01*
X104740000Y-109602609D01*
X104734483Y-109658622D01*
X104719934Y-109706585D01*
X104696314Y-109750775D01*
X104664518Y-109789518D01*
X104625775Y-109821314D01*
X104581585Y-109844934D01*
X104533622Y-109859483D01*
X104477609Y-109865000D01*
X103727391Y-109865000D01*
X103671378Y-109859483D01*
X103623415Y-109844934D01*
X103579225Y-109821314D01*
X103540482Y-109789518D01*
X103508686Y-109750775D01*
X103485066Y-109706585D01*
X103470517Y-109658622D01*
X103465000Y-109602609D01*
X103465000Y-108777391D01*
X103470517Y-108721378D01*
X103485066Y-108673415D01*
X103508686Y-108629225D01*
X103540482Y-108590482D01*
X103579225Y-108558686D01*
X103623415Y-108535066D01*
X103671378Y-108520517D01*
X103727391Y-108515000D01*
X104477609Y-108515000D01*
X104533622Y-108520517D01*
X104533622Y-108520517D01*
G37*
G36*
X117958622Y-108520517D02*
X118006585Y-108535066D01*
X118050775Y-108558686D01*
X118089518Y-108590482D01*
X118121314Y-108629225D01*
X118144934Y-108673415D01*
X118159483Y-108721378D01*
X118165000Y-108777391D01*
X118165000Y-109602609D01*
X118159483Y-109658622D01*
X118144934Y-109706585D01*
X118121314Y-109750775D01*
X118089518Y-109789518D01*
X118050775Y-109821314D01*
X118006585Y-109844934D01*
X117958622Y-109859483D01*
X117902609Y-109865000D01*
X117152391Y-109865000D01*
X117096378Y-109859483D01*
X117048415Y-109844934D01*
X117004225Y-109821314D01*
X116965482Y-109789518D01*
X116933686Y-109750775D01*
X116910066Y-109706585D01*
X116895517Y-109658622D01*
X116890000Y-109602609D01*
X116890000Y-108777391D01*
X116895517Y-108721378D01*
X116910066Y-108673415D01*
X116933686Y-108629225D01*
X116965482Y-108590482D01*
X117004225Y-108558686D01*
X117048415Y-108535066D01*
X117096378Y-108520517D01*
X117152391Y-108515000D01*
X117902609Y-108515000D01*
X117958622Y-108520517D01*
X117958622Y-108520517D01*
G37*
G36*
X119533622Y-108520517D02*
X119581585Y-108535066D01*
X119625775Y-108558686D01*
X119664518Y-108590482D01*
X119696314Y-108629225D01*
X119719934Y-108673415D01*
X119734483Y-108721378D01*
X119740000Y-108777391D01*
X119740000Y-109602609D01*
X119734483Y-109658622D01*
X119719934Y-109706585D01*
X119696314Y-109750775D01*
X119664518Y-109789518D01*
X119625775Y-109821314D01*
X119581585Y-109844934D01*
X119533622Y-109859483D01*
X119477609Y-109865000D01*
X118727391Y-109865000D01*
X118671378Y-109859483D01*
X118623415Y-109844934D01*
X118579225Y-109821314D01*
X118540482Y-109789518D01*
X118508686Y-109750775D01*
X118485066Y-109706585D01*
X118470517Y-109658622D01*
X118465000Y-109602609D01*
X118465000Y-108777391D01*
X118470517Y-108721378D01*
X118485066Y-108673415D01*
X118508686Y-108629225D01*
X118540482Y-108590482D01*
X118579225Y-108558686D01*
X118623415Y-108535066D01*
X118671378Y-108520517D01*
X118727391Y-108515000D01*
X119477609Y-108515000D01*
X119533622Y-108520517D01*
X119533622Y-108520517D01*
G37*
G36*
X85915000Y-109840000D02*
X84715000Y-109840000D01*
X84715000Y-108540000D01*
X85915000Y-108540000D01*
X85915000Y-109840000D01*
X85915000Y-109840000D01*
G37*
G36*
X115865000Y-109840000D02*
X114665000Y-109840000D01*
X114665000Y-108540000D01*
X115865000Y-108540000D01*
X115865000Y-109840000D01*
X115865000Y-109840000D01*
G37*
G36*
X113965000Y-109840000D02*
X112765000Y-109840000D01*
X112765000Y-108540000D01*
X113965000Y-108540000D01*
X113965000Y-109840000D01*
X113965000Y-109840000D01*
G37*
G36*
X100865000Y-109840000D02*
X99665000Y-109840000D01*
X99665000Y-108540000D01*
X100865000Y-108540000D01*
X100865000Y-109840000D01*
X100865000Y-109840000D01*
G37*
G36*
X98965000Y-109840000D02*
X97765000Y-109840000D01*
X97765000Y-108540000D01*
X98965000Y-108540000D01*
X98965000Y-109840000D01*
X98965000Y-109840000D01*
G37*
G36*
X84015000Y-109840000D02*
X82815000Y-109840000D01*
X82815000Y-108540000D01*
X84015000Y-108540000D01*
X84015000Y-109840000D01*
X84015000Y-109840000D01*
G37*
G36*
X143765000Y-109460000D02*
X140215000Y-109460000D01*
X140215000Y-108060000D01*
X143765000Y-108060000D01*
X143765000Y-109460000D01*
X143765000Y-109460000D01*
G37*
G36*
X138715000Y-109460000D02*
X135165000Y-109460000D01*
X135165000Y-108060000D01*
X138715000Y-108060000D01*
X138715000Y-109460000D01*
X138715000Y-109460000D01*
G37*
G36*
X132463497Y-107145997D02*
X132516153Y-107161970D01*
X132564665Y-107187900D01*
X132607196Y-107222804D01*
X132642100Y-107265335D01*
X132668030Y-107313847D01*
X132684003Y-107366503D01*
X132690000Y-107427390D01*
X132690000Y-108652610D01*
X132684003Y-108713497D01*
X132668030Y-108766153D01*
X132642100Y-108814665D01*
X132607196Y-108857196D01*
X132564665Y-108892100D01*
X132516153Y-108918030D01*
X132463497Y-108934003D01*
X132402610Y-108940000D01*
X131602390Y-108940000D01*
X131541503Y-108934003D01*
X131488847Y-108918030D01*
X131440335Y-108892100D01*
X131397804Y-108857196D01*
X131362900Y-108814665D01*
X131336970Y-108766153D01*
X131320997Y-108713497D01*
X131315000Y-108652610D01*
X131315000Y-107427390D01*
X131320997Y-107366503D01*
X131336970Y-107313847D01*
X131362900Y-107265335D01*
X131397804Y-107222804D01*
X131440335Y-107187900D01*
X131488847Y-107161970D01*
X131541503Y-107145997D01*
X131602390Y-107140000D01*
X132402610Y-107140000D01*
X132463497Y-107145997D01*
X132463497Y-107145997D01*
G37*
G36*
X130588497Y-107145997D02*
X130641153Y-107161970D01*
X130689665Y-107187900D01*
X130732196Y-107222804D01*
X130767100Y-107265335D01*
X130793030Y-107313847D01*
X130809003Y-107366503D01*
X130815000Y-107427390D01*
X130815000Y-108652610D01*
X130809003Y-108713497D01*
X130793030Y-108766153D01*
X130767100Y-108814665D01*
X130732196Y-108857196D01*
X130689665Y-108892100D01*
X130641153Y-108918030D01*
X130588497Y-108934003D01*
X130527610Y-108940000D01*
X129727390Y-108940000D01*
X129666503Y-108934003D01*
X129613847Y-108918030D01*
X129565335Y-108892100D01*
X129522804Y-108857196D01*
X129487900Y-108814665D01*
X129461970Y-108766153D01*
X129445997Y-108713497D01*
X129440000Y-108652610D01*
X129440000Y-107427390D01*
X129445997Y-107366503D01*
X129461970Y-107313847D01*
X129487900Y-107265335D01*
X129522804Y-107222804D01*
X129565335Y-107187900D01*
X129613847Y-107161970D01*
X129666503Y-107145997D01*
X129727390Y-107140000D01*
X130527610Y-107140000D01*
X130588497Y-107145997D01*
X130588497Y-107145997D01*
G37*
G36*
X81240770Y-104205372D02*
X81356689Y-104228429D01*
X81538678Y-104303811D01*
X81702463Y-104413249D01*
X81841751Y-104552537D01*
X81951189Y-104716322D01*
X82026571Y-104898311D01*
X82065000Y-105091509D01*
X82065000Y-105288491D01*
X82026571Y-105481689D01*
X81951189Y-105663678D01*
X81841751Y-105827463D01*
X81702463Y-105966751D01*
X81538678Y-106076189D01*
X81356689Y-106151571D01*
X81240770Y-106174628D01*
X81163493Y-106190000D01*
X80966507Y-106190000D01*
X80889230Y-106174628D01*
X80773311Y-106151571D01*
X80591322Y-106076189D01*
X80427537Y-105966751D01*
X80288249Y-105827463D01*
X80178811Y-105663678D01*
X80103429Y-105481689D01*
X80065000Y-105288491D01*
X80065000Y-105091509D01*
X80103429Y-104898311D01*
X80178811Y-104716322D01*
X80288249Y-104552537D01*
X80427537Y-104413249D01*
X80591322Y-104303811D01*
X80773311Y-104228429D01*
X80889230Y-104205372D01*
X80966507Y-104190000D01*
X81163493Y-104190000D01*
X81240770Y-104205372D01*
X81240770Y-104205372D01*
G37*
G36*
X132240770Y-102205372D02*
X132356689Y-102228429D01*
X132538678Y-102303811D01*
X132702463Y-102413249D01*
X132841751Y-102552537D01*
X132951189Y-102716322D01*
X133026571Y-102898311D01*
X133065000Y-103091509D01*
X133065000Y-103288491D01*
X133026571Y-103481689D01*
X132951189Y-103663678D01*
X132841751Y-103827463D01*
X132702463Y-103966751D01*
X132538678Y-104076189D01*
X132356689Y-104151571D01*
X132240770Y-104174628D01*
X132163493Y-104190000D01*
X131966507Y-104190000D01*
X131889230Y-104174628D01*
X131773311Y-104151571D01*
X131591322Y-104076189D01*
X131427537Y-103966751D01*
X131288249Y-103827463D01*
X131178811Y-103663678D01*
X131103429Y-103481689D01*
X131065000Y-103288491D01*
X131065000Y-103091509D01*
X131103429Y-102898311D01*
X131178811Y-102716322D01*
X131288249Y-102552537D01*
X131427537Y-102413249D01*
X131591322Y-102303811D01*
X131773311Y-102228429D01*
X131889230Y-102205372D01*
X131966507Y-102190000D01*
X132163493Y-102190000D01*
X132240770Y-102205372D01*
X132240770Y-102205372D01*
G37*
G36*
X79449251Y-96156679D02*
X79954652Y-96257209D01*
X80509717Y-96487125D01*
X81009262Y-96820910D01*
X81434090Y-97245738D01*
X81767875Y-97745283D01*
X81997791Y-98300348D01*
X82115000Y-98889601D01*
X82115000Y-99490399D01*
X81997791Y-100079652D01*
X81767875Y-100634717D01*
X81434090Y-101134262D01*
X81009262Y-101559090D01*
X80509717Y-101892875D01*
X79954652Y-102122791D01*
X79449251Y-102223321D01*
X79365400Y-102240000D01*
X78764600Y-102240000D01*
X78680749Y-102223321D01*
X78175348Y-102122791D01*
X77620283Y-101892875D01*
X77120738Y-101559090D01*
X76695910Y-101134262D01*
X76362125Y-100634717D01*
X76132209Y-100079652D01*
X76015000Y-99490399D01*
X76015000Y-98889601D01*
X76132209Y-98300348D01*
X76362125Y-97745283D01*
X76695910Y-97245738D01*
X77120738Y-96820910D01*
X77620283Y-96487125D01*
X78175348Y-96257209D01*
X78680749Y-96156679D01*
X78764600Y-96140000D01*
X79365400Y-96140000D01*
X79449251Y-96156679D01*
X79449251Y-96156679D01*
G37*
G36*
X142449251Y-96156679D02*
X142954652Y-96257209D01*
X143509717Y-96487125D01*
X144009262Y-96820910D01*
X144434090Y-97245738D01*
X144767875Y-97745283D01*
X144997791Y-98300348D01*
X145115000Y-98889601D01*
X145115000Y-99490399D01*
X144997791Y-100079652D01*
X144767875Y-100634717D01*
X144434090Y-101134262D01*
X144009262Y-101559090D01*
X143509717Y-101892875D01*
X142954652Y-102122791D01*
X142449251Y-102223321D01*
X142365400Y-102240000D01*
X141764600Y-102240000D01*
X141680749Y-102223321D01*
X141175348Y-102122791D01*
X140620283Y-101892875D01*
X140120738Y-101559090D01*
X139695910Y-101134262D01*
X139362125Y-100634717D01*
X139132209Y-100079652D01*
X139015000Y-99490399D01*
X139015000Y-98889601D01*
X139132209Y-98300348D01*
X139362125Y-97745283D01*
X139695910Y-97245738D01*
X140120738Y-96820910D01*
X140620283Y-96487125D01*
X141175348Y-96257209D01*
X141680749Y-96156679D01*
X141764600Y-96140000D01*
X142365400Y-96140000D01*
X142449251Y-96156679D01*
X142449251Y-96156679D01*
G37*
G36*
X115951393Y-97033553D02*
X116060872Y-97055330D01*
X116370252Y-97183479D01*
X116648687Y-97369523D01*
X116885477Y-97606313D01*
X117071521Y-97884748D01*
X117199670Y-98194128D01*
X117265000Y-98522565D01*
X117265000Y-98857435D01*
X117199670Y-99185872D01*
X117071521Y-99495252D01*
X116885477Y-99773687D01*
X116648687Y-100010477D01*
X116370252Y-100196521D01*
X116060872Y-100324670D01*
X115951393Y-100346447D01*
X115732437Y-100390000D01*
X115397563Y-100390000D01*
X115178607Y-100346447D01*
X115069128Y-100324670D01*
X114759748Y-100196521D01*
X114481313Y-100010477D01*
X114244523Y-99773687D01*
X114058479Y-99495252D01*
X113930330Y-99185872D01*
X113865000Y-98857435D01*
X113865000Y-98522565D01*
X113930330Y-98194128D01*
X114058479Y-97884748D01*
X114244523Y-97606313D01*
X114481313Y-97369523D01*
X114759748Y-97183479D01*
X115069128Y-97055330D01*
X115178607Y-97033553D01*
X115397563Y-96990000D01*
X115732437Y-96990000D01*
X115951393Y-97033553D01*
X115951393Y-97033553D01*
G37*
G36*
X120951393Y-97033553D02*
X121060872Y-97055330D01*
X121370252Y-97183479D01*
X121648687Y-97369523D01*
X121885477Y-97606313D01*
X122071521Y-97884748D01*
X122199670Y-98194128D01*
X122265000Y-98522565D01*
X122265000Y-98857435D01*
X122199670Y-99185872D01*
X122071521Y-99495252D01*
X121885477Y-99773687D01*
X121648687Y-100010477D01*
X121370252Y-100196521D01*
X121060872Y-100324670D01*
X120951393Y-100346447D01*
X120732437Y-100390000D01*
X120397563Y-100390000D01*
X120178607Y-100346447D01*
X120069128Y-100324670D01*
X119759748Y-100196521D01*
X119481313Y-100010477D01*
X119244523Y-99773687D01*
X119058479Y-99495252D01*
X118930330Y-99185872D01*
X118865000Y-98857435D01*
X118865000Y-98522565D01*
X118930330Y-98194128D01*
X119058479Y-97884748D01*
X119244523Y-97606313D01*
X119481313Y-97369523D01*
X119759748Y-97183479D01*
X120069128Y-97055330D01*
X120178607Y-97033553D01*
X120397563Y-96990000D01*
X120732437Y-96990000D01*
X120951393Y-97033553D01*
X120951393Y-97033553D01*
G37*
G36*
X110951393Y-97033553D02*
X111060872Y-97055330D01*
X111370252Y-97183479D01*
X111648687Y-97369523D01*
X111885477Y-97606313D01*
X112071521Y-97884748D01*
X112199670Y-98194128D01*
X112265000Y-98522565D01*
X112265000Y-98857435D01*
X112199670Y-99185872D01*
X112071521Y-99495252D01*
X111885477Y-99773687D01*
X111648687Y-100010477D01*
X111370252Y-100196521D01*
X111060872Y-100324670D01*
X110951393Y-100346447D01*
X110732437Y-100390000D01*
X110397563Y-100390000D01*
X110178607Y-100346447D01*
X110069128Y-100324670D01*
X109759748Y-100196521D01*
X109481313Y-100010477D01*
X109244523Y-99773687D01*
X109058479Y-99495252D01*
X108930330Y-99185872D01*
X108865000Y-98857435D01*
X108865000Y-98522565D01*
X108930330Y-98194128D01*
X109058479Y-97884748D01*
X109244523Y-97606313D01*
X109481313Y-97369523D01*
X109759748Y-97183479D01*
X110069128Y-97055330D01*
X110178607Y-97033553D01*
X110397563Y-96990000D01*
X110732437Y-96990000D01*
X110951393Y-97033553D01*
X110951393Y-97033553D01*
G37*
G36*
X105951393Y-97033553D02*
X106060872Y-97055330D01*
X106370252Y-97183479D01*
X106648687Y-97369523D01*
X106885477Y-97606313D01*
X107071521Y-97884748D01*
X107199670Y-98194128D01*
X107265000Y-98522565D01*
X107265000Y-98857435D01*
X107199670Y-99185872D01*
X107071521Y-99495252D01*
X106885477Y-99773687D01*
X106648687Y-100010477D01*
X106370252Y-100196521D01*
X106060872Y-100324670D01*
X105951393Y-100346447D01*
X105732437Y-100390000D01*
X105397563Y-100390000D01*
X105178607Y-100346447D01*
X105069128Y-100324670D01*
X104759748Y-100196521D01*
X104481313Y-100010477D01*
X104244523Y-99773687D01*
X104058479Y-99495252D01*
X103930330Y-99185872D01*
X103865000Y-98857435D01*
X103865000Y-98522565D01*
X103930330Y-98194128D01*
X104058479Y-97884748D01*
X104244523Y-97606313D01*
X104481313Y-97369523D01*
X104759748Y-97183479D01*
X105069128Y-97055330D01*
X105178607Y-97033553D01*
X105397563Y-96990000D01*
X105732437Y-96990000D01*
X105951393Y-97033553D01*
X105951393Y-97033553D01*
G37*
G36*
X100951393Y-97033553D02*
X101060872Y-97055330D01*
X101370252Y-97183479D01*
X101648687Y-97369523D01*
X101885477Y-97606313D01*
X102071521Y-97884748D01*
X102199670Y-98194128D01*
X102265000Y-98522565D01*
X102265000Y-98857435D01*
X102199670Y-99185872D01*
X102071521Y-99495252D01*
X101885477Y-99773687D01*
X101648687Y-100010477D01*
X101370252Y-100196521D01*
X101060872Y-100324670D01*
X100951393Y-100346447D01*
X100732437Y-100390000D01*
X100397563Y-100390000D01*
X100178607Y-100346447D01*
X100069128Y-100324670D01*
X99759748Y-100196521D01*
X99481313Y-100010477D01*
X99244523Y-99773687D01*
X99058479Y-99495252D01*
X98930330Y-99185872D01*
X98865000Y-98857435D01*
X98865000Y-98522565D01*
X98930330Y-98194128D01*
X99058479Y-97884748D01*
X99244523Y-97606313D01*
X99481313Y-97369523D01*
X99759748Y-97183479D01*
X100069128Y-97055330D01*
X100178607Y-97033553D01*
X100397563Y-96990000D01*
X100732437Y-96990000D01*
X100951393Y-97033553D01*
X100951393Y-97033553D01*
G37*
G36*
X95951393Y-97033553D02*
X96060872Y-97055330D01*
X96370252Y-97183479D01*
X96648687Y-97369523D01*
X96885477Y-97606313D01*
X97071521Y-97884748D01*
X97199670Y-98194128D01*
X97265000Y-98522565D01*
X97265000Y-98857435D01*
X97199670Y-99185872D01*
X97071521Y-99495252D01*
X96885477Y-99773687D01*
X96648687Y-100010477D01*
X96370252Y-100196521D01*
X96060872Y-100324670D01*
X95951393Y-100346447D01*
X95732437Y-100390000D01*
X95397563Y-100390000D01*
X95178607Y-100346447D01*
X95069128Y-100324670D01*
X94759748Y-100196521D01*
X94481313Y-100010477D01*
X94244523Y-99773687D01*
X94058479Y-99495252D01*
X93930330Y-99185872D01*
X93865000Y-98857435D01*
X93865000Y-98522565D01*
X93930330Y-98194128D01*
X94058479Y-97884748D01*
X94244523Y-97606313D01*
X94481313Y-97369523D01*
X94759748Y-97183479D01*
X95069128Y-97055330D01*
X95178607Y-97033553D01*
X95397563Y-96990000D01*
X95732437Y-96990000D01*
X95951393Y-97033553D01*
X95951393Y-97033553D01*
G37*
G36*
X90951393Y-97033553D02*
X91060872Y-97055330D01*
X91370252Y-97183479D01*
X91648687Y-97369523D01*
X91885477Y-97606313D01*
X92071521Y-97884748D01*
X92199670Y-98194128D01*
X92265000Y-98522565D01*
X92265000Y-98857435D01*
X92199670Y-99185872D01*
X92071521Y-99495252D01*
X91885477Y-99773687D01*
X91648687Y-100010477D01*
X91370252Y-100196521D01*
X91060872Y-100324670D01*
X90951393Y-100346447D01*
X90732437Y-100390000D01*
X90397563Y-100390000D01*
X90178607Y-100346447D01*
X90069128Y-100324670D01*
X89759748Y-100196521D01*
X89481313Y-100010477D01*
X89244523Y-99773687D01*
X89058479Y-99495252D01*
X88930330Y-99185872D01*
X88865000Y-98857435D01*
X88865000Y-98522565D01*
X88930330Y-98194128D01*
X89058479Y-97884748D01*
X89244523Y-97606313D01*
X89481313Y-97369523D01*
X89759748Y-97183479D01*
X90069128Y-97055330D01*
X90178607Y-97033553D01*
X90397563Y-96990000D01*
X90732437Y-96990000D01*
X90951393Y-97033553D01*
X90951393Y-97033553D01*
G37*
M02*
