G04 #@! TF.GenerationSoftware,KiCad,Pcbnew,5.0.0-fee4fd1~65~ubuntu17.10.1*
G04 #@! TF.CreationDate,2019-09-20T12:26:55+02:00*
G04 #@! TF.ProjectId,lynsyn,6C796E73796E2E6B696361645F706362,rev?*
G04 #@! TF.SameCoordinates,Original*
G04 #@! TF.FileFunction,Soldermask,Bot*
G04 #@! TF.FilePolarity,Negative*
%FSLAX46Y46*%
G04 Gerber Fmt 4.6, Leading zero omitted, Abs format (unit mm)*
G04 Created by KiCad (PCBNEW 5.0.0-fee4fd1~65~ubuntu17.10.1) date Fri Sep 20 12:26:55 2019*
%MOMM*%
%LPD*%
G01*
G04 APERTURE LIST*
%ADD10C,0.100000*%
G04 APERTURE END LIST*
D10*
G36*
X138449251Y-138156679D02*
X138954652Y-138257209D01*
X139509717Y-138487125D01*
X140009262Y-138820910D01*
X140434090Y-139245738D01*
X140767875Y-139745283D01*
X140997791Y-140300348D01*
X141115000Y-140889601D01*
X141115000Y-141490399D01*
X140997791Y-142079652D01*
X140767875Y-142634717D01*
X140434090Y-143134262D01*
X140009262Y-143559090D01*
X139509717Y-143892875D01*
X138954652Y-144122791D01*
X138449251Y-144223321D01*
X138365400Y-144240000D01*
X137764600Y-144240000D01*
X137680749Y-144223321D01*
X137175348Y-144122791D01*
X136620283Y-143892875D01*
X136120738Y-143559090D01*
X135695910Y-143134262D01*
X135362125Y-142634717D01*
X135132209Y-142079652D01*
X135015000Y-141490399D01*
X135015000Y-140889601D01*
X135132209Y-140300348D01*
X135362125Y-139745283D01*
X135695910Y-139245738D01*
X136120738Y-138820910D01*
X136620283Y-138487125D01*
X137175348Y-138257209D01*
X137680749Y-138156679D01*
X137764600Y-138140000D01*
X138365400Y-138140000D01*
X138449251Y-138156679D01*
X138449251Y-138156679D01*
G37*
G36*
X79449251Y-138156679D02*
X79954652Y-138257209D01*
X80509717Y-138487125D01*
X81009262Y-138820910D01*
X81434090Y-139245738D01*
X81767875Y-139745283D01*
X81997791Y-140300348D01*
X82115000Y-140889601D01*
X82115000Y-141490399D01*
X81997791Y-142079652D01*
X81767875Y-142634717D01*
X81434090Y-143134262D01*
X81009262Y-143559090D01*
X80509717Y-143892875D01*
X79954652Y-144122791D01*
X79449251Y-144223321D01*
X79365400Y-144240000D01*
X78764600Y-144240000D01*
X78680749Y-144223321D01*
X78175348Y-144122791D01*
X77620283Y-143892875D01*
X77120738Y-143559090D01*
X76695910Y-143134262D01*
X76362125Y-142634717D01*
X76132209Y-142079652D01*
X76015000Y-141490399D01*
X76015000Y-140889601D01*
X76132209Y-140300348D01*
X76362125Y-139745283D01*
X76695910Y-139245738D01*
X77120738Y-138820910D01*
X77620283Y-138487125D01*
X78175348Y-138257209D01*
X78680749Y-138156679D01*
X78764600Y-138140000D01*
X79365400Y-138140000D01*
X79449251Y-138156679D01*
X79449251Y-138156679D01*
G37*
G36*
X76185857Y-133757272D02*
X76386042Y-133840191D01*
X76386045Y-133840193D01*
X76484607Y-133906050D01*
X76566213Y-133960578D01*
X76719422Y-134113787D01*
X76719424Y-134113790D01*
X76719425Y-134113791D01*
X76839807Y-134293955D01*
X76839809Y-134293958D01*
X76922728Y-134494143D01*
X76965000Y-134706658D01*
X76965000Y-134923342D01*
X76922728Y-135135857D01*
X76839809Y-135336042D01*
X76719422Y-135516213D01*
X76566213Y-135669422D01*
X76386042Y-135789809D01*
X76185857Y-135872728D01*
X75973342Y-135915000D01*
X75756658Y-135915000D01*
X75544143Y-135872728D01*
X75343958Y-135789809D01*
X75163787Y-135669422D01*
X75010578Y-135516213D01*
X74890191Y-135336042D01*
X74807272Y-135135857D01*
X74765000Y-134923342D01*
X74765000Y-134706658D01*
X74807272Y-134494143D01*
X74890191Y-134293958D01*
X74890193Y-134293955D01*
X75010575Y-134113791D01*
X75010576Y-134113790D01*
X75010578Y-134113787D01*
X75163787Y-133960578D01*
X75245394Y-133906050D01*
X75343955Y-133840193D01*
X75343958Y-133840191D01*
X75544143Y-133757272D01*
X75756658Y-133715000D01*
X75973342Y-133715000D01*
X76185857Y-133757272D01*
X76185857Y-133757272D01*
G37*
G36*
X78790012Y-132863057D02*
X78899207Y-132908287D01*
X78997481Y-132973952D01*
X79081048Y-133057519D01*
X79146713Y-133155793D01*
X79191943Y-133264988D01*
X79215432Y-133383078D01*
X79217402Y-133403074D01*
X79224515Y-133426523D01*
X79236066Y-133448134D01*
X79251612Y-133467076D01*
X79270554Y-133482622D01*
X79292165Y-133494173D01*
X79315614Y-133501286D01*
X79340000Y-133503688D01*
X79364386Y-133501286D01*
X79546809Y-133465000D01*
X79783191Y-133465000D01*
X80015026Y-133511115D01*
X80233412Y-133601573D01*
X80429958Y-133732901D01*
X80597099Y-133900042D01*
X80728427Y-134096588D01*
X80818885Y-134314974D01*
X80865000Y-134546809D01*
X80865000Y-134783191D01*
X80818885Y-135015026D01*
X80728427Y-135233412D01*
X80597099Y-135429958D01*
X80429958Y-135597099D01*
X80233412Y-135728427D01*
X80015026Y-135818885D01*
X79783191Y-135865000D01*
X79546809Y-135865000D01*
X79314974Y-135818885D01*
X79096588Y-135728427D01*
X78900042Y-135597099D01*
X78732901Y-135429958D01*
X78601573Y-135233412D01*
X78511115Y-135015026D01*
X78465000Y-134783191D01*
X78465000Y-134546809D01*
X78511115Y-134314976D01*
X78561465Y-134193420D01*
X78568578Y-134169971D01*
X78570980Y-134145584D01*
X78568578Y-134121198D01*
X78561465Y-134097749D01*
X78549914Y-134076138D01*
X78534369Y-134057196D01*
X78515427Y-134041650D01*
X78493816Y-134030099D01*
X78470367Y-134022986D01*
X78439988Y-134016943D01*
X78330793Y-133971713D01*
X78232519Y-133906048D01*
X78148952Y-133822481D01*
X78083287Y-133724207D01*
X78038057Y-133615012D01*
X78015000Y-133499096D01*
X78015000Y-133380904D01*
X78038057Y-133264988D01*
X78083287Y-133155793D01*
X78148952Y-133057519D01*
X78232519Y-132973952D01*
X78330793Y-132908287D01*
X78439988Y-132863057D01*
X78555904Y-132840000D01*
X78674096Y-132840000D01*
X78790012Y-132863057D01*
X78790012Y-132863057D01*
G37*
G36*
X80015026Y-126061115D02*
X80233412Y-126151573D01*
X80429958Y-126282901D01*
X80597099Y-126450042D01*
X80728427Y-126646588D01*
X80818885Y-126864974D01*
X80865000Y-127096809D01*
X80865000Y-127333191D01*
X80818885Y-127565026D01*
X80728427Y-127783412D01*
X80597099Y-127979958D01*
X80429958Y-128147099D01*
X80233412Y-128278427D01*
X80015026Y-128368885D01*
X79783191Y-128415000D01*
X79546809Y-128415000D01*
X79364386Y-128378714D01*
X79340000Y-128376312D01*
X79315614Y-128378714D01*
X79292164Y-128385827D01*
X79270554Y-128397378D01*
X79251612Y-128412924D01*
X79236066Y-128431866D01*
X79224515Y-128453477D01*
X79217402Y-128476926D01*
X79215432Y-128496922D01*
X79191943Y-128615012D01*
X79146713Y-128724207D01*
X79081048Y-128822481D01*
X78997481Y-128906048D01*
X78899207Y-128971713D01*
X78790012Y-129016943D01*
X78674096Y-129040000D01*
X78555904Y-129040000D01*
X78439988Y-129016943D01*
X78330793Y-128971713D01*
X78232519Y-128906048D01*
X78148952Y-128822481D01*
X78083287Y-128724207D01*
X78038057Y-128615012D01*
X78015000Y-128499096D01*
X78015000Y-128380904D01*
X78038057Y-128264988D01*
X78083287Y-128155793D01*
X78148952Y-128057519D01*
X78232519Y-127973952D01*
X78330793Y-127908287D01*
X78439988Y-127863057D01*
X78470367Y-127857014D01*
X78493816Y-127849901D01*
X78515427Y-127838349D01*
X78534369Y-127822804D01*
X78549914Y-127803862D01*
X78561465Y-127782251D01*
X78568578Y-127758802D01*
X78570980Y-127734416D01*
X78568578Y-127710029D01*
X78561465Y-127686580D01*
X78511115Y-127565024D01*
X78465000Y-127333191D01*
X78465000Y-127096809D01*
X78511115Y-126864974D01*
X78601573Y-126646588D01*
X78732901Y-126450042D01*
X78900042Y-126282901D01*
X79096588Y-126151573D01*
X79314974Y-126061115D01*
X79546809Y-126015000D01*
X79783191Y-126015000D01*
X80015026Y-126061115D01*
X80015026Y-126061115D01*
G37*
G36*
X76185857Y-126007272D02*
X76386042Y-126090191D01*
X76566213Y-126210578D01*
X76719422Y-126363787D01*
X76839809Y-126543958D01*
X76922728Y-126744143D01*
X76965000Y-126956658D01*
X76965000Y-127173342D01*
X76922728Y-127385857D01*
X76839809Y-127586042D01*
X76839807Y-127586045D01*
X76772632Y-127686580D01*
X76719422Y-127766213D01*
X76566213Y-127919422D01*
X76566210Y-127919424D01*
X76566209Y-127919425D01*
X76475615Y-127979958D01*
X76386042Y-128039809D01*
X76185857Y-128122728D01*
X75973342Y-128165000D01*
X75756658Y-128165000D01*
X75544143Y-128122728D01*
X75343958Y-128039809D01*
X75254385Y-127979958D01*
X75163791Y-127919425D01*
X75163790Y-127919424D01*
X75163787Y-127919422D01*
X75010578Y-127766213D01*
X74957369Y-127686580D01*
X74890193Y-127586045D01*
X74890191Y-127586042D01*
X74807272Y-127385857D01*
X74765000Y-127173342D01*
X74765000Y-126956658D01*
X74807272Y-126744143D01*
X74890191Y-126543958D01*
X75010578Y-126363787D01*
X75163787Y-126210578D01*
X75343958Y-126090191D01*
X75544143Y-126007272D01*
X75756658Y-125965000D01*
X75973342Y-125965000D01*
X76185857Y-126007272D01*
X76185857Y-126007272D01*
G37*
G36*
X80483707Y-117647597D02*
X80560836Y-117655193D01*
X80692787Y-117695220D01*
X80758763Y-117715233D01*
X80941172Y-117812733D01*
X81101054Y-117943946D01*
X81232267Y-118103828D01*
X81329767Y-118286237D01*
X81329767Y-118286238D01*
X81389807Y-118484164D01*
X81410080Y-118690000D01*
X81389807Y-118895836D01*
X81349780Y-119027787D01*
X81329767Y-119093763D01*
X81232267Y-119276172D01*
X81101054Y-119436054D01*
X80941172Y-119567267D01*
X80758763Y-119664767D01*
X80692787Y-119684780D01*
X80560836Y-119724807D01*
X80483707Y-119732403D01*
X80406580Y-119740000D01*
X80303420Y-119740000D01*
X80226293Y-119732403D01*
X80149164Y-119724807D01*
X80017213Y-119684780D01*
X79951237Y-119664767D01*
X79768828Y-119567267D01*
X79608946Y-119436054D01*
X79477733Y-119276172D01*
X79380233Y-119093763D01*
X79360220Y-119027787D01*
X79320193Y-118895836D01*
X79299920Y-118690000D01*
X79320193Y-118484164D01*
X79380233Y-118286238D01*
X79380233Y-118286237D01*
X79477733Y-118103828D01*
X79608946Y-117943946D01*
X79768828Y-117812733D01*
X79951237Y-117715233D01*
X80017213Y-117695220D01*
X80149164Y-117655193D01*
X80226293Y-117647597D01*
X80303420Y-117640000D01*
X80406580Y-117640000D01*
X80483707Y-117647597D01*
X80483707Y-117647597D01*
G37*
G36*
X78865000Y-119740000D02*
X76765000Y-119740000D01*
X76765000Y-117640000D01*
X78865000Y-117640000D01*
X78865000Y-119740000D01*
X78865000Y-119740000D01*
G37*
G36*
X138449251Y-96156679D02*
X138954652Y-96257209D01*
X139509717Y-96487125D01*
X140009262Y-96820910D01*
X140434090Y-97245738D01*
X140767875Y-97745283D01*
X140997791Y-98300348D01*
X141115000Y-98889601D01*
X141115000Y-99490399D01*
X140997791Y-100079652D01*
X140767875Y-100634717D01*
X140434090Y-101134262D01*
X140009262Y-101559090D01*
X139509717Y-101892875D01*
X138954652Y-102122791D01*
X138449251Y-102223321D01*
X138365400Y-102240000D01*
X137764600Y-102240000D01*
X137680749Y-102223321D01*
X137175348Y-102122791D01*
X136620283Y-101892875D01*
X136120738Y-101559090D01*
X135695910Y-101134262D01*
X135362125Y-100634717D01*
X135132209Y-100079652D01*
X135015000Y-99490399D01*
X135015000Y-98889601D01*
X135132209Y-98300348D01*
X135362125Y-97745283D01*
X135695910Y-97245738D01*
X136120738Y-96820910D01*
X136620283Y-96487125D01*
X137175348Y-96257209D01*
X137680749Y-96156679D01*
X137764600Y-96140000D01*
X138365400Y-96140000D01*
X138449251Y-96156679D01*
X138449251Y-96156679D01*
G37*
G36*
X79449251Y-96156679D02*
X79954652Y-96257209D01*
X80509717Y-96487125D01*
X81009262Y-96820910D01*
X81434090Y-97245738D01*
X81767875Y-97745283D01*
X81997791Y-98300348D01*
X82115000Y-98889601D01*
X82115000Y-99490399D01*
X81997791Y-100079652D01*
X81767875Y-100634717D01*
X81434090Y-101134262D01*
X81009262Y-101559090D01*
X80509717Y-101892875D01*
X79954652Y-102122791D01*
X79449251Y-102223321D01*
X79365400Y-102240000D01*
X78764600Y-102240000D01*
X78680749Y-102223321D01*
X78175348Y-102122791D01*
X77620283Y-101892875D01*
X77120738Y-101559090D01*
X76695910Y-101134262D01*
X76362125Y-100634717D01*
X76132209Y-100079652D01*
X76015000Y-99490399D01*
X76015000Y-98889601D01*
X76132209Y-98300348D01*
X76362125Y-97745283D01*
X76695910Y-97245738D01*
X77120738Y-96820910D01*
X77620283Y-96487125D01*
X78175348Y-96257209D01*
X78680749Y-96156679D01*
X78764600Y-96140000D01*
X79365400Y-96140000D01*
X79449251Y-96156679D01*
X79449251Y-96156679D01*
G37*
G36*
X105951393Y-97033553D02*
X106060872Y-97055330D01*
X106370252Y-97183479D01*
X106648687Y-97369523D01*
X106885477Y-97606313D01*
X107071521Y-97884748D01*
X107199670Y-98194128D01*
X107265000Y-98522565D01*
X107265000Y-98857435D01*
X107199670Y-99185872D01*
X107071521Y-99495252D01*
X106885477Y-99773687D01*
X106648687Y-100010477D01*
X106370252Y-100196521D01*
X106060872Y-100324670D01*
X105951393Y-100346447D01*
X105732437Y-100390000D01*
X105397563Y-100390000D01*
X105178607Y-100346447D01*
X105069128Y-100324670D01*
X104759748Y-100196521D01*
X104481313Y-100010477D01*
X104244523Y-99773687D01*
X104058479Y-99495252D01*
X103930330Y-99185872D01*
X103865000Y-98857435D01*
X103865000Y-98522565D01*
X103930330Y-98194128D01*
X104058479Y-97884748D01*
X104244523Y-97606313D01*
X104481313Y-97369523D01*
X104759748Y-97183479D01*
X105069128Y-97055330D01*
X105178607Y-97033553D01*
X105397563Y-96990000D01*
X105732437Y-96990000D01*
X105951393Y-97033553D01*
X105951393Y-97033553D01*
G37*
G36*
X110951393Y-97033553D02*
X111060872Y-97055330D01*
X111370252Y-97183479D01*
X111648687Y-97369523D01*
X111885477Y-97606313D01*
X112071521Y-97884748D01*
X112199670Y-98194128D01*
X112265000Y-98522565D01*
X112265000Y-98857435D01*
X112199670Y-99185872D01*
X112071521Y-99495252D01*
X111885477Y-99773687D01*
X111648687Y-100010477D01*
X111370252Y-100196521D01*
X111060872Y-100324670D01*
X110951393Y-100346447D01*
X110732437Y-100390000D01*
X110397563Y-100390000D01*
X110178607Y-100346447D01*
X110069128Y-100324670D01*
X109759748Y-100196521D01*
X109481313Y-100010477D01*
X109244523Y-99773687D01*
X109058479Y-99495252D01*
X108930330Y-99185872D01*
X108865000Y-98857435D01*
X108865000Y-98522565D01*
X108930330Y-98194128D01*
X109058479Y-97884748D01*
X109244523Y-97606313D01*
X109481313Y-97369523D01*
X109759748Y-97183479D01*
X110069128Y-97055330D01*
X110178607Y-97033553D01*
X110397563Y-96990000D01*
X110732437Y-96990000D01*
X110951393Y-97033553D01*
X110951393Y-97033553D01*
G37*
G36*
X115951393Y-97033553D02*
X116060872Y-97055330D01*
X116370252Y-97183479D01*
X116648687Y-97369523D01*
X116885477Y-97606313D01*
X117071521Y-97884748D01*
X117199670Y-98194128D01*
X117265000Y-98522565D01*
X117265000Y-98857435D01*
X117199670Y-99185872D01*
X117071521Y-99495252D01*
X116885477Y-99773687D01*
X116648687Y-100010477D01*
X116370252Y-100196521D01*
X116060872Y-100324670D01*
X115951393Y-100346447D01*
X115732437Y-100390000D01*
X115397563Y-100390000D01*
X115178607Y-100346447D01*
X115069128Y-100324670D01*
X114759748Y-100196521D01*
X114481313Y-100010477D01*
X114244523Y-99773687D01*
X114058479Y-99495252D01*
X113930330Y-99185872D01*
X113865000Y-98857435D01*
X113865000Y-98522565D01*
X113930330Y-98194128D01*
X114058479Y-97884748D01*
X114244523Y-97606313D01*
X114481313Y-97369523D01*
X114759748Y-97183479D01*
X115069128Y-97055330D01*
X115178607Y-97033553D01*
X115397563Y-96990000D01*
X115732437Y-96990000D01*
X115951393Y-97033553D01*
X115951393Y-97033553D01*
G37*
G36*
X120951393Y-97033553D02*
X121060872Y-97055330D01*
X121370252Y-97183479D01*
X121648687Y-97369523D01*
X121885477Y-97606313D01*
X122071521Y-97884748D01*
X122199670Y-98194128D01*
X122265000Y-98522565D01*
X122265000Y-98857435D01*
X122199670Y-99185872D01*
X122071521Y-99495252D01*
X121885477Y-99773687D01*
X121648687Y-100010477D01*
X121370252Y-100196521D01*
X121060872Y-100324670D01*
X120951393Y-100346447D01*
X120732437Y-100390000D01*
X120397563Y-100390000D01*
X120178607Y-100346447D01*
X120069128Y-100324670D01*
X119759748Y-100196521D01*
X119481313Y-100010477D01*
X119244523Y-99773687D01*
X119058479Y-99495252D01*
X118930330Y-99185872D01*
X118865000Y-98857435D01*
X118865000Y-98522565D01*
X118930330Y-98194128D01*
X119058479Y-97884748D01*
X119244523Y-97606313D01*
X119481313Y-97369523D01*
X119759748Y-97183479D01*
X120069128Y-97055330D01*
X120178607Y-97033553D01*
X120397563Y-96990000D01*
X120732437Y-96990000D01*
X120951393Y-97033553D01*
X120951393Y-97033553D01*
G37*
G36*
X100951393Y-97033553D02*
X101060872Y-97055330D01*
X101370252Y-97183479D01*
X101648687Y-97369523D01*
X101885477Y-97606313D01*
X102071521Y-97884748D01*
X102199670Y-98194128D01*
X102265000Y-98522565D01*
X102265000Y-98857435D01*
X102199670Y-99185872D01*
X102071521Y-99495252D01*
X101885477Y-99773687D01*
X101648687Y-100010477D01*
X101370252Y-100196521D01*
X101060872Y-100324670D01*
X100951393Y-100346447D01*
X100732437Y-100390000D01*
X100397563Y-100390000D01*
X100178607Y-100346447D01*
X100069128Y-100324670D01*
X99759748Y-100196521D01*
X99481313Y-100010477D01*
X99244523Y-99773687D01*
X99058479Y-99495252D01*
X98930330Y-99185872D01*
X98865000Y-98857435D01*
X98865000Y-98522565D01*
X98930330Y-98194128D01*
X99058479Y-97884748D01*
X99244523Y-97606313D01*
X99481313Y-97369523D01*
X99759748Y-97183479D01*
X100069128Y-97055330D01*
X100178607Y-97033553D01*
X100397563Y-96990000D01*
X100732437Y-96990000D01*
X100951393Y-97033553D01*
X100951393Y-97033553D01*
G37*
G36*
X90951393Y-97033553D02*
X91060872Y-97055330D01*
X91370252Y-97183479D01*
X91648687Y-97369523D01*
X91885477Y-97606313D01*
X92071521Y-97884748D01*
X92199670Y-98194128D01*
X92265000Y-98522565D01*
X92265000Y-98857435D01*
X92199670Y-99185872D01*
X92071521Y-99495252D01*
X91885477Y-99773687D01*
X91648687Y-100010477D01*
X91370252Y-100196521D01*
X91060872Y-100324670D01*
X90951393Y-100346447D01*
X90732437Y-100390000D01*
X90397563Y-100390000D01*
X90178607Y-100346447D01*
X90069128Y-100324670D01*
X89759748Y-100196521D01*
X89481313Y-100010477D01*
X89244523Y-99773687D01*
X89058479Y-99495252D01*
X88930330Y-99185872D01*
X88865000Y-98857435D01*
X88865000Y-98522565D01*
X88930330Y-98194128D01*
X89058479Y-97884748D01*
X89244523Y-97606313D01*
X89481313Y-97369523D01*
X89759748Y-97183479D01*
X90069128Y-97055330D01*
X90178607Y-97033553D01*
X90397563Y-96990000D01*
X90732437Y-96990000D01*
X90951393Y-97033553D01*
X90951393Y-97033553D01*
G37*
G36*
X95951393Y-97033553D02*
X96060872Y-97055330D01*
X96370252Y-97183479D01*
X96648687Y-97369523D01*
X96885477Y-97606313D01*
X97071521Y-97884748D01*
X97199670Y-98194128D01*
X97265000Y-98522565D01*
X97265000Y-98857435D01*
X97199670Y-99185872D01*
X97071521Y-99495252D01*
X96885477Y-99773687D01*
X96648687Y-100010477D01*
X96370252Y-100196521D01*
X96060872Y-100324670D01*
X95951393Y-100346447D01*
X95732437Y-100390000D01*
X95397563Y-100390000D01*
X95178607Y-100346447D01*
X95069128Y-100324670D01*
X94759748Y-100196521D01*
X94481313Y-100010477D01*
X94244523Y-99773687D01*
X94058479Y-99495252D01*
X93930330Y-99185872D01*
X93865000Y-98857435D01*
X93865000Y-98522565D01*
X93930330Y-98194128D01*
X94058479Y-97884748D01*
X94244523Y-97606313D01*
X94481313Y-97369523D01*
X94759748Y-97183479D01*
X95069128Y-97055330D01*
X95178607Y-97033553D01*
X95397563Y-96990000D01*
X95732437Y-96990000D01*
X95951393Y-97033553D01*
X95951393Y-97033553D01*
G37*
M02*
