M48
;DRILL file {KiCad 5.0.2-bee76a0~70~ubuntu18.04.1} date on. 11. des. 2019 kl. 08.42 +0100
;FORMAT={-:-/ absolute / metric / decimal}
FMAT,2
METRIC,TZ
T1C0.300
T2C1.000
T3C1.200
T4C1.400
T5C1.600
T6C3.200
%
G90
G05
T1
X75.315Y-122.94
X81.265Y-121.79
X82.565Y-115.19
X82.865Y-129.79
X83.465Y-108.29
X84.265Y-136.59
X84.465Y-131.59
X85.265Y-108.29
X85.265Y-129.59
X85.865Y-123.09
X87.315Y-129.94
X87.315Y-131.49
X87.465Y-108.29
X88.365Y-135.69
X88.465Y-139.99
X88.565Y-114.29
X88.565Y-142.19
X89.065Y-108.29
X89.265Y-125.59
X90.065Y-111.94
X90.265Y-129.79
X92.365Y-128.99
X93.865Y-140.69
X95.065Y-125.69
X95.065Y-127.89
X95.315Y-110.69
X96.365Y-125.69
X96.365Y-127.69
X96.365Y-136.84
X96.365Y-140.69
X97.465Y-115.19
X97.965Y-120.29
X98.365Y-108.29
X100.265Y-108.29
X100.565Y-138.99
X101.065Y-125.49
X101.565Y-135.19
X101.965Y-127.99
X102.565Y-108.29
X103.365Y-114.29
X103.965Y-137.99
X104.065Y-108.29
X104.418Y-128.861
X104.465Y-124.99
X104.815Y-111.94
X105.465Y-136.39
X107.051Y-118.376
X107.165Y-136.09
X107.165Y-137.69
X108.065Y-122.89
X108.565Y-131.69
X108.765Y-119.89
X109.565Y-136.44
X110.065Y-122.69
X110.265Y-119.89
X110.315Y-110.69
X111.065Y-122.69
X111.615Y-134.19
X111.965Y-119.19
X112.065Y-122.69
X112.315Y-125.94
X113.165Y-132.89
X113.265Y-124.39
X113.265Y-127.49
X113.265Y-129.49
X113.365Y-108.29
X113.565Y-116.44
X113.815Y-136.136
X113.865Y-119.19
X115.265Y-108.29
X116.065Y-125.19
X116.865Y-137.79
X116.965Y-129.19
X117.065Y-130.19
X117.565Y-108.29
X117.765Y-119.19
X118.065Y-129.19
X118.365Y-114.29
X118.465Y-124.29
X118.865Y-119.89
X119.065Y-108.29
X119.815Y-111.94
X119.865Y-124.59
X120.065Y-131.19
X120.315Y-127.065
X122.065Y-129.69
X122.065Y-134.49
X122.065Y-139.29
X122.565Y-121.19
X124.565Y-128.79
X124.565Y-135.39
X124.665Y-126.29
X124.665Y-138.39
X125.065Y-121.99
X125.315Y-110.69
X127.815Y-128.44
X127.815Y-132.965
X128.765Y-129.49
X128.765Y-134.49
X128.865Y-139.29
X129.265Y-107.99
X133.665Y-130.19
X141.965Y-115.09
X141.965Y-120.19
X141.965Y-120.19
X141.965Y-127.89
T2
X77.815Y-118.69
X80.355Y-118.69
T3
X75.865Y-127.065
X75.865Y-134.815
T4
X79.665Y-127.215
X79.665Y-134.665
T5
X90.565Y-98.69
X95.565Y-98.69
X100.565Y-98.69
X105.565Y-98.69
X110.565Y-98.69
X115.565Y-98.69
X120.565Y-98.69
T6
X142.065Y-141.19
X142.065Y-99.19
X79.065Y-141.19
X79.065Y-99.19
T0
M30
